%TF.GenerationSoftware,KiCad,Pcbnew,6.0.9*%
%TF.CreationDate,2023-02-22T15:13:05+01:00*%
%TF.ProjectId,sygeco1,73796765-636f-4312-9e6b-696361645f70,1.0*%
%TF.SameCoordinates,Original*%
%TF.FileFunction,Copper,L1,Top*%
%TF.FilePolarity,Positive*%
%FSLAX46Y46*%
G04 Gerber Fmt 4.6, Leading zero omitted, Abs format (unit mm)*
G04 Created by KiCad (PCBNEW 6.0.9) date 2023-02-22 15:13:05*
%MOMM*%
%LPD*%
G01*
G04 APERTURE LIST*
G04 Aperture macros list*
%AMRoundRect*
0 Rectangle with rounded corners*
0 $1 Rounding radius*
0 $2 $3 $4 $5 $6 $7 $8 $9 X,Y pos of 4 corners*
0 Add a 4 corners polygon primitive as box body*
4,1,4,$2,$3,$4,$5,$6,$7,$8,$9,$2,$3,0*
0 Add four circle primitives for the rounded corners*
1,1,$1+$1,$2,$3*
1,1,$1+$1,$4,$5*
1,1,$1+$1,$6,$7*
1,1,$1+$1,$8,$9*
0 Add four rect primitives between the rounded corners*
20,1,$1+$1,$2,$3,$4,$5,0*
20,1,$1+$1,$4,$5,$6,$7,0*
20,1,$1+$1,$6,$7,$8,$9,0*
20,1,$1+$1,$8,$9,$2,$3,0*%
G04 Aperture macros list end*
%TA.AperFunction,ComponentPad*%
%ADD10C,1.524000*%
%TD*%
%TA.AperFunction,ComponentPad*%
%ADD11R,1.700000X1.700000*%
%TD*%
%TA.AperFunction,ComponentPad*%
%ADD12O,1.700000X1.700000*%
%TD*%
%TA.AperFunction,SMDPad,CuDef*%
%ADD13RoundRect,0.250000X0.625000X-0.375000X0.625000X0.375000X-0.625000X0.375000X-0.625000X-0.375000X0*%
%TD*%
%TA.AperFunction,ComponentPad*%
%ADD14R,1.600000X1.600000*%
%TD*%
%TA.AperFunction,ComponentPad*%
%ADD15C,1.600000*%
%TD*%
%TA.AperFunction,ComponentPad*%
%ADD16C,1.800000*%
%TD*%
%TA.AperFunction,ComponentPad*%
%ADD17C,1.500000*%
%TD*%
%TA.AperFunction,ComponentPad*%
%ADD18C,3.500000*%
%TD*%
%TA.AperFunction,ComponentPad*%
%ADD19R,2.500000X2.500000*%
%TD*%
%TA.AperFunction,ComponentPad*%
%ADD20RoundRect,0.550000X-0.550000X-0.550000X0.550000X-0.550000X0.550000X0.550000X-0.550000X0.550000X0*%
%TD*%
%TA.AperFunction,SMDPad,CuDef*%
%ADD21RoundRect,0.162500X-0.162500X0.825000X-0.162500X-0.825000X0.162500X-0.825000X0.162500X0.825000X0*%
%TD*%
%TA.AperFunction,ComponentPad*%
%ADD22O,1.600000X1.600000*%
%TD*%
%TA.AperFunction,ViaPad*%
%ADD23C,0.800000*%
%TD*%
%TA.AperFunction,Conductor*%
%ADD24C,0.250000*%
%TD*%
G04 APERTURE END LIST*
D10*
%TO.P,SW1,1,A*%
%TO.N,unconnected-(SW1-Pad1)*%
X130954000Y-62690000D03*
%TO.P,SW1,2,B*%
%TO.N,Net-(BT1-Pad1)*%
X130954000Y-60690000D03*
%TO.P,SW1,3,C*%
%TO.N,VCC*%
X130954000Y-58690000D03*
%TO.P,SW1,4,A*%
%TO.N,unconnected-(SW1-Pad4)*%
X135954000Y-62690000D03*
%TO.P,SW1,5,B*%
%TO.N,Net-(BT1-Pad1)*%
X135954000Y-60690000D03*
%TO.P,SW1,6,C*%
%TO.N,VCC*%
X135954000Y-58690000D03*
%TD*%
%TO.P,SW2,1,A*%
%TO.N,unconnected-(SW2-Pad1)*%
X148734000Y-62690000D03*
%TO.P,SW2,2,B*%
%TO.N,VCC*%
X148734000Y-60690000D03*
%TO.P,SW2,3,C*%
%TO.N,Net-(R9-Pad1)*%
X148734000Y-58690000D03*
%TO.P,SW2,4,A*%
%TO.N,unconnected-(SW2-Pad4)*%
X153734000Y-62690000D03*
%TO.P,SW2,5,B*%
%TO.N,Net-(SW2-Pad5)*%
X153734000Y-60690000D03*
%TO.P,SW2,6,C*%
%TO.N,Net-(R10-Pad2)*%
X153734000Y-58690000D03*
%TD*%
D11*
%TO.P,J1,1,SDA*%
%TO.N,SDA*%
X146354800Y-69138800D03*
D12*
%TO.P,J1,2,SCL*%
%TO.N,SCL*%
X143814800Y-69138800D03*
%TO.P,J1,3,Vcc*%
%TO.N,VCC*%
X141274800Y-69138800D03*
%TO.P,J1,4,GND*%
%TO.N,GND*%
X138734800Y-69138800D03*
%TD*%
D13*
%TO.P,D1,1,K*%
%TO.N,GND*%
X140208000Y-62614000D03*
%TO.P,D1,2,A*%
%TO.N,Net-(D1-Pad2)*%
X140208000Y-59814000D03*
%TD*%
D14*
%TO.P,LS1,1,1*%
%TO.N,Net-(LS1-Pad1)*%
X152908000Y-102108000D03*
D15*
%TO.P,LS1,2,2*%
%TO.N,GND*%
X146408000Y-102108000D03*
%TD*%
D16*
%TO.P,S1,1,A*%
%TO.N,Net-(R1-Pad2)*%
X136906000Y-114046000D03*
D17*
%TO.P,S1,2,B*%
%TO.N,Net-(R8-Pad2)*%
X136906000Y-117746000D03*
D16*
%TO.P,S1,3,C*%
%TO.N,Net-(R5-Pad2)*%
X136906000Y-120546000D03*
%TO.P,S1,4,Com*%
%TO.N,GND*%
X147206000Y-120546000D03*
D17*
%TO.P,S1,5,D*%
%TO.N,Net-(R2-Pad2)*%
X147206000Y-117746000D03*
D16*
%TO.P,S1,6,Center*%
%TO.N,Button*%
X147206000Y-114046000D03*
%TD*%
D11*
%TO.P,J2,1,MISO*%
%TO.N,Button*%
X133096000Y-75184000D03*
D12*
%TO.P,J2,2,VCC*%
%TO.N,VCC*%
X130556000Y-75184000D03*
%TO.P,J2,3,SCK*%
%TO.N,SCL*%
X133096000Y-72644000D03*
%TO.P,J2,4,MOSI*%
%TO.N,SDA*%
X130556000Y-72644000D03*
%TO.P,J2,5,~{RST}*%
%TO.N,PAD_AXIS_1*%
X133096000Y-70104000D03*
%TO.P,J2,6,GND*%
%TO.N,GND*%
X130556000Y-70104000D03*
%TD*%
D18*
%TO.P,H1,1*%
%TO.N,N/C*%
X130556000Y-93218000D03*
%TD*%
%TO.P,H2,1*%
%TO.N,N/C*%
X154178000Y-93218000D03*
%TD*%
D13*
%TO.P,D2,1,K*%
%TO.N,GND*%
X144018000Y-62614000D03*
%TO.P,D2,2,A*%
%TO.N,Net-(D2-Pad2)*%
X144018000Y-59814000D03*
%TD*%
D19*
%TO.P,BT1,1,+*%
%TO.N,Net-(BT1-Pad1)*%
X133040000Y-83770000D03*
D20*
%TO.P,BT1,2,-*%
%TO.N,GND*%
X153040000Y-83770000D03*
%TD*%
D14*
%TO.P,U1,1,~{RESET}/PB5*%
%TO.N,PAD_AXIS_1*%
X131064000Y-97536000D03*
D21*
X136762800Y-98689700D03*
D22*
%TO.P,U1,2,XTAL1/PB3*%
%TO.N,PAD_AXIS_2*%
X131064000Y-100076000D03*
D21*
X135492800Y-98689700D03*
D22*
%TO.P,U1,3,XTAL2/PB4*%
%TO.N,Net-(SW2-Pad5)*%
X131064000Y-102616000D03*
D21*
X134222800Y-98689700D03*
D22*
%TO.P,U1,4,GND*%
%TO.N,GND*%
X131064000Y-105156000D03*
D21*
X132952800Y-98689700D03*
%TO.P,U1,5,AREF/PB0*%
%TO.N,SDA*%
X132952800Y-103764700D03*
D22*
X138684000Y-105156000D03*
%TO.P,U1,6,PB1*%
%TO.N,Button*%
X138684000Y-102616000D03*
D21*
X134222800Y-103764700D03*
D22*
%TO.P,U1,7,PB2*%
%TO.N,SCL*%
X138684000Y-100076000D03*
D21*
X135492800Y-103764700D03*
%TO.P,U1,8,VCC*%
%TO.N,VCC*%
X136762800Y-103764700D03*
D22*
X138684000Y-97536000D03*
%TD*%
D23*
%TO.N,GND*%
X149606000Y-66548000D03*
X139954000Y-109220000D03*
X132765800Y-96037400D03*
%TO.N,SDA*%
X138176000Y-80645000D03*
X138582400Y-108000800D03*
%TO.N,SCL*%
X140716000Y-72644000D03*
%TO.N,VCC*%
X136626600Y-105664000D03*
X140208000Y-77724000D03*
X136762800Y-101888600D03*
X149758400Y-99974400D03*
%TO.N,Button*%
X143764000Y-75184000D03*
%TO.N,Net-(D1-Pad2)*%
X140208000Y-56642000D03*
%TO.N,PAD_AXIS_1*%
X130048000Y-67564000D03*
X152908000Y-110540800D03*
%TO.N,PAD_AXIS_2*%
X131825400Y-112548000D03*
%TO.N,Net-(SW2-Pad5)*%
X136601200Y-87172800D03*
X134222800Y-95444000D03*
%TO.N,Net-(D2-Pad2)*%
X144018000Y-56642000D03*
%TD*%
D24*
%TO.N,GND*%
X130556000Y-70104000D02*
X131572000Y-69088000D01*
X143637000Y-109220000D02*
X139954000Y-109220000D01*
X138684000Y-66548000D02*
X132588000Y-66548000D01*
X138734800Y-66598800D02*
X138684000Y-66548000D01*
X142116000Y-66545000D02*
X142113000Y-66548000D01*
X131064000Y-105156000D02*
X131064000Y-106680000D01*
X142113000Y-66548000D02*
X138684000Y-66548000D01*
X146408000Y-102108000D02*
X146408000Y-106449000D01*
X142116000Y-62614000D02*
X142116000Y-66545000D01*
X131064000Y-106680000D02*
X134289800Y-109905800D01*
X149606000Y-66548000D02*
X142113000Y-66548000D01*
X142116000Y-62614000D02*
X140208000Y-62614000D01*
X134289800Y-109905800D02*
X139268200Y-109905800D01*
X131572000Y-69088000D02*
X131572000Y-67564000D01*
X139268200Y-109905800D02*
X139954000Y-109220000D01*
X132952800Y-96224400D02*
X132765800Y-96037400D01*
X144018000Y-62614000D02*
X142116000Y-62614000D01*
X132588000Y-66548000D02*
X132334000Y-66802000D01*
X138734800Y-69138800D02*
X138734800Y-66598800D01*
X132952800Y-98689700D02*
X132952800Y-96224400D01*
X146408000Y-106449000D02*
X143637000Y-109220000D01*
X131572000Y-67564000D02*
X132334000Y-66802000D01*
%TO.N,SDA*%
X144208500Y-80645000D02*
X138176000Y-80645000D01*
X132952800Y-105724000D02*
X135788400Y-108559600D01*
X135788400Y-108559600D02*
X138023600Y-108559600D01*
X132952800Y-103764700D02*
X132952800Y-105724000D01*
X146354800Y-69138800D02*
X146354800Y-78498700D01*
X138023600Y-108559600D02*
X138582400Y-108000800D01*
X146354800Y-78498700D02*
X144208500Y-80645000D01*
%TO.N,SCL*%
X135492800Y-101641600D02*
X136398000Y-100736400D01*
X133096000Y-72644000D02*
X140716000Y-72644000D01*
X142748000Y-72644000D02*
X143814800Y-71577200D01*
X140716000Y-72644000D02*
X142748000Y-72644000D01*
X138684000Y-100076000D02*
X138023600Y-100736400D01*
X135492800Y-103764700D02*
X135492800Y-101641600D01*
X143814800Y-71577200D02*
X143814800Y-69138800D01*
X138023600Y-100736400D02*
X136398000Y-100736400D01*
%TO.N,VCC*%
X130556000Y-75184000D02*
X130556000Y-77216000D01*
X130556000Y-77216000D02*
X131064000Y-77724000D01*
X136762800Y-103764700D02*
X136762800Y-101888600D01*
X136762800Y-103764700D02*
X136762800Y-105527800D01*
X136762800Y-105527800D02*
X136626600Y-105664000D01*
X131064000Y-77724000D02*
X140208000Y-77724000D01*
X147320000Y-97536000D02*
X149758400Y-99974400D01*
X138684000Y-97536000D02*
X147320000Y-97536000D01*
%TO.N,Button*%
X141224000Y-104013000D02*
X141224000Y-106299000D01*
X133096000Y-75184000D02*
X143764000Y-75184000D01*
X139827000Y-102616000D02*
X141224000Y-104013000D01*
X134222800Y-103764700D02*
X134222800Y-104809600D01*
X134222800Y-104809600D02*
X136448800Y-107035600D01*
X138684000Y-102616000D02*
X139827000Y-102616000D01*
X136448800Y-107035600D02*
X140487400Y-107035600D01*
X141224000Y-106299000D02*
X140487400Y-107035600D01*
%TO.N,Net-(D1-Pad2)*%
X140208000Y-56642000D02*
X139192000Y-57658000D01*
X139192000Y-58798000D02*
X140208000Y-59814000D01*
X139192000Y-57658000D02*
X139192000Y-58798000D01*
%TO.N,PAD_AXIS_1*%
X128524000Y-87503000D02*
X128524000Y-69088000D01*
X131064000Y-96062800D02*
X131064000Y-97536000D01*
X152082500Y-109715300D02*
X152082500Y-104965500D01*
X128524000Y-69088000D02*
X130048000Y-67564000D01*
X145806700Y-98689700D02*
X136762800Y-98689700D01*
X134073900Y-93052900D02*
X128524000Y-87503000D01*
X152908000Y-110540800D02*
X152082500Y-109715300D01*
X136762800Y-95741800D02*
X136762800Y-96478400D01*
X134073900Y-93052900D02*
X131064000Y-96062800D01*
X147993100Y-100876100D02*
X145806700Y-98689700D01*
X147993100Y-100876100D02*
X152082500Y-104965500D01*
X134175500Y-93154500D02*
X134073900Y-93052900D01*
X134175500Y-93154500D02*
X136762800Y-95741800D01*
X136762800Y-98689700D02*
X136762800Y-96478400D01*
%TO.N,PAD_AXIS_2*%
X128930400Y-100685600D02*
X128930400Y-109653000D01*
X129540000Y-100076000D02*
X128930400Y-100685600D01*
X131064000Y-100076000D02*
X131953000Y-100965000D01*
X131064000Y-100076000D02*
X129540000Y-100076000D01*
X135492800Y-100346200D02*
X135492800Y-98689700D01*
X131953000Y-100965000D02*
X134874000Y-100965000D01*
X134874000Y-100965000D02*
X135492800Y-100346200D01*
X128930400Y-109653000D02*
X131825400Y-112548000D01*
%TO.N,Net-(SW2-Pad5)*%
X134222800Y-98689700D02*
X134222800Y-95444000D01*
X151384000Y-78232000D02*
X151384000Y-61976000D01*
X136601200Y-87172800D02*
X142443200Y-87172800D01*
X151384000Y-61976000D02*
X152670000Y-60690000D01*
X142443200Y-87172800D02*
X151384000Y-78232000D01*
X152670000Y-60690000D02*
X153734000Y-60690000D01*
%TO.N,Net-(D2-Pad2)*%
X145034000Y-58674000D02*
X145034000Y-57658000D01*
X144018000Y-59814000D02*
X144018000Y-59690000D01*
X145034000Y-57658000D02*
X144018000Y-56642000D01*
X144018000Y-59690000D02*
X145034000Y-58674000D01*
%TD*%
M02*
