%TF.GenerationSoftware,KiCad,Pcbnew,5.1.7*%
%TF.CreationDate,2020-11-07T17:07:58+01:00*%
%TF.ProjectId,sygeco1,73796765-636f-4312-9e6b-696361645f70,0.1*%
%TF.SameCoordinates,Original*%
%TF.FileFunction,Soldermask,Top*%
%TF.FilePolarity,Negative*%
%FSLAX46Y46*%
G04 Gerber Fmt 4.6, Leading zero omitted, Abs format (unit mm)*
G04 Created by KiCad (PCBNEW 5.1.7) date 2020-11-07 17:07:58*
%MOMM*%
%LPD*%
G01*
G04 APERTURE LIST*
%ADD10R,3.000000X3.000000*%
%ADD11C,3.000000*%
%ADD12C,1.800000*%
%ADD13C,1.500000*%
%ADD14C,1.524000*%
%ADD15C,1.700000*%
%ADD16R,1.700000X1.700000*%
%ADD17C,2.700000*%
%ADD18O,1.700000X1.700000*%
%ADD19C,1.600000*%
%ADD20R,1.600000X1.600000*%
%ADD21R,2.400000X1.600000*%
%ADD22O,2.400000X1.600000*%
G04 APERTURE END LIST*
D10*
%TO.C,BT1*%
X132740000Y-83670000D03*
D11*
X152790000Y-83770000D03*
%TD*%
D12*
%TO.C,S1*%
X136906000Y-114046000D03*
D13*
X136906000Y-117746000D03*
D12*
X136906000Y-120546000D03*
X147206000Y-120546000D03*
D13*
X147206000Y-117746000D03*
D12*
X147206000Y-114046000D03*
%TD*%
D14*
%TO.C,SW1*%
X130700000Y-63325000D03*
X130700000Y-61325000D03*
X130700000Y-59325000D03*
X135700000Y-63325000D03*
X135700000Y-61325000D03*
X135700000Y-59325000D03*
%TD*%
D15*
%TO.C,REF\u002A\u002A*%
X150368000Y-69088000D03*
X147828000Y-69088000D03*
X145288000Y-69088000D03*
X142748000Y-69088000D03*
X140208000Y-69088000D03*
X137668000Y-69088000D03*
X135128000Y-69088000D03*
D16*
X132588000Y-69088000D03*
D17*
X155956000Y-69088000D03*
X127000000Y-98552000D03*
X155956000Y-98552000D03*
X127000000Y-69088000D03*
%TD*%
D16*
%TO.C,J1*%
X138176000Y-69088000D03*
D18*
X140716000Y-69088000D03*
X143256000Y-69088000D03*
X145796000Y-69088000D03*
%TD*%
D19*
%TO.C,LS1*%
X146408000Y-102108000D03*
D20*
X152908000Y-102108000D03*
%TD*%
D14*
%TO.C,SW2*%
X153480000Y-59325000D03*
X153480000Y-61325000D03*
X153480000Y-63325000D03*
X148480000Y-59325000D03*
X148480000Y-61325000D03*
X148480000Y-63325000D03*
%TD*%
D21*
%TO.C,U1*%
X131064000Y-97536000D03*
D22*
X138684000Y-105156000D03*
X131064000Y-100076000D03*
X138684000Y-102616000D03*
X131064000Y-102616000D03*
X138684000Y-100076000D03*
X131064000Y-105156000D03*
X138684000Y-97536000D03*
%TD*%
%TO.C,D1*%
G36*
G01*
X140345000Y-62220000D02*
X140345000Y-60970000D01*
G75*
G02*
X140595000Y-60720000I250000J0D01*
G01*
X141345000Y-60720000D01*
G75*
G02*
X141595000Y-60970000I0J-250000D01*
G01*
X141595000Y-62220000D01*
G75*
G02*
X141345000Y-62470000I-250000J0D01*
G01*
X140595000Y-62470000D01*
G75*
G02*
X140345000Y-62220000I0J250000D01*
G01*
G37*
G36*
G01*
X143145000Y-62220000D02*
X143145000Y-60970000D01*
G75*
G02*
X143395000Y-60720000I250000J0D01*
G01*
X144145000Y-60720000D01*
G75*
G02*
X144395000Y-60970000I0J-250000D01*
G01*
X144395000Y-62220000D01*
G75*
G02*
X144145000Y-62470000I-250000J0D01*
G01*
X143395000Y-62470000D01*
G75*
G02*
X143145000Y-62220000I0J250000D01*
G01*
G37*
%TD*%
D16*
%TO.C,J2*%
X133096000Y-75184000D03*
D18*
X130556000Y-75184000D03*
X133096000Y-72644000D03*
X130556000Y-72644000D03*
X133096000Y-70104000D03*
X130556000Y-70104000D03*
%TD*%
M02*
