%TF.GenerationSoftware,KiCad,Pcbnew,5.1.7*%
%TF.CreationDate,2020-11-12T05:12:17+01:00*%
%TF.ProjectId,sygeco1,73796765-636f-4312-9e6b-696361645f70,0.1*%
%TF.SameCoordinates,Original*%
%TF.FileFunction,Soldermask,Top*%
%TF.FilePolarity,Negative*%
%FSLAX46Y46*%
G04 Gerber Fmt 4.6, Leading zero omitted, Abs format (unit mm)*
G04 Created by KiCad (PCBNEW 5.1.7) date 2020-11-12 05:12:17*
%MOMM*%
%LPD*%
G01*
G04 APERTURE LIST*
%ADD10C,1.800000*%
%ADD11C,1.500000*%
%ADD12R,2.500000X2.500000*%
%ADD13C,1.524000*%
%ADD14O,1.700000X1.700000*%
%ADD15R,1.700000X1.700000*%
%ADD16C,1.600000*%
%ADD17R,1.600000X1.600000*%
%ADD18O,2.400000X1.600000*%
%ADD19R,2.400000X1.600000*%
G04 APERTURE END LIST*
D10*
%TO.C,S1*%
X136906000Y-114046000D03*
D11*
X136906000Y-117746000D03*
D10*
X136906000Y-120546000D03*
X147206000Y-120546000D03*
D11*
X147206000Y-117746000D03*
D10*
X147206000Y-114046000D03*
%TD*%
%TO.C,BT1*%
G36*
G01*
X151940000Y-84320000D02*
X151940000Y-83220000D01*
G75*
G02*
X152490000Y-82670000I550000J0D01*
G01*
X153590000Y-82670000D01*
G75*
G02*
X154140000Y-83220000I0J-550000D01*
G01*
X154140000Y-84320000D01*
G75*
G02*
X153590000Y-84870000I-550000J0D01*
G01*
X152490000Y-84870000D01*
G75*
G02*
X151940000Y-84320000I0J550000D01*
G01*
G37*
D12*
X133040000Y-83770000D03*
%TD*%
D13*
%TO.C,SW1*%
X135700000Y-59325000D03*
X135700000Y-61325000D03*
X135700000Y-63325000D03*
X130700000Y-59325000D03*
X130700000Y-61325000D03*
X130700000Y-63325000D03*
%TD*%
D14*
%TO.C,J1*%
X138176000Y-69088000D03*
X140716000Y-69088000D03*
X143256000Y-69088000D03*
D15*
X145796000Y-69088000D03*
%TD*%
D16*
%TO.C,LS1*%
X146408000Y-102108000D03*
D17*
X152908000Y-102108000D03*
%TD*%
D13*
%TO.C,SW2*%
X153480000Y-59325000D03*
X153480000Y-61325000D03*
X153480000Y-63325000D03*
X148480000Y-59325000D03*
X148480000Y-61325000D03*
X148480000Y-63325000D03*
%TD*%
D18*
%TO.C,U1*%
X138684000Y-97536000D03*
X131064000Y-105156000D03*
X138684000Y-100076000D03*
X131064000Y-102616000D03*
X138684000Y-102616000D03*
X131064000Y-100076000D03*
X138684000Y-105156000D03*
D19*
X131064000Y-97536000D03*
%TD*%
%TO.C,D1*%
G36*
G01*
X143145000Y-62220000D02*
X143145000Y-60970000D01*
G75*
G02*
X143395000Y-60720000I250000J0D01*
G01*
X144145000Y-60720000D01*
G75*
G02*
X144395000Y-60970000I0J-250000D01*
G01*
X144395000Y-62220000D01*
G75*
G02*
X144145000Y-62470000I-250000J0D01*
G01*
X143395000Y-62470000D01*
G75*
G02*
X143145000Y-62220000I0J250000D01*
G01*
G37*
G36*
G01*
X140345000Y-62220000D02*
X140345000Y-60970000D01*
G75*
G02*
X140595000Y-60720000I250000J0D01*
G01*
X141345000Y-60720000D01*
G75*
G02*
X141595000Y-60970000I0J-250000D01*
G01*
X141595000Y-62220000D01*
G75*
G02*
X141345000Y-62470000I-250000J0D01*
G01*
X140595000Y-62470000D01*
G75*
G02*
X140345000Y-62220000I0J250000D01*
G01*
G37*
%TD*%
D14*
%TO.C,J2*%
X130556000Y-70104000D03*
X133096000Y-70104000D03*
X130556000Y-72644000D03*
X133096000Y-72644000D03*
X130556000Y-75184000D03*
D15*
X133096000Y-75184000D03*
%TD*%
M02*
