%TF.GenerationSoftware,KiCad,Pcbnew,5.1.7*%
%TF.CreationDate,2020-11-12T05:12:17+01:00*%
%TF.ProjectId,sygeco1,73796765-636f-4312-9e6b-696361645f70,0.1*%
%TF.SameCoordinates,Original*%
%TF.FileFunction,Other,User*%
%FSLAX46Y46*%
G04 Gerber Fmt 4.6, Leading zero omitted, Abs format (unit mm)*
G04 Created by KiCad (PCBNEW 5.1.7) date 2020-11-12 05:12:17*
%MOMM*%
%LPD*%
G01*
G04 APERTURE LIST*
%ADD10C,0.050000*%
G04 APERTURE END LIST*
D10*
%TO.C,R6*%
X141120000Y-56201500D02*
X141120000Y-60761500D01*
X143360000Y-56201500D02*
X141120000Y-56201500D01*
X143360000Y-60761500D02*
X143360000Y-56201500D01*
X141120000Y-60761500D02*
X143360000Y-60761500D01*
%TO.C,C1*%
X133290000Y-107816000D02*
X128330000Y-107816000D01*
X133290000Y-110116000D02*
X133290000Y-107816000D01*
X128330000Y-110116000D02*
X133290000Y-110116000D01*
X128330000Y-107816000D02*
X128330000Y-110116000D01*
%TO.C,R1*%
X153520000Y-123100000D02*
X153520000Y-118200000D01*
X151280000Y-123100000D02*
X153520000Y-123100000D01*
X151280000Y-118200000D02*
X151280000Y-123100000D01*
X153520000Y-118200000D02*
X151280000Y-118200000D01*
%TO.C,R2*%
X129690000Y-118200000D02*
X129690000Y-123100000D01*
X131930000Y-118200000D02*
X129690000Y-118200000D01*
X131930000Y-123100000D02*
X131930000Y-118200000D01*
X129690000Y-123100000D02*
X131930000Y-123100000D01*
%TO.C,R3*%
X151280000Y-111850000D02*
X151280000Y-116750000D01*
X153520000Y-111850000D02*
X151280000Y-111850000D01*
X153520000Y-116750000D02*
X153520000Y-111850000D01*
X151280000Y-116750000D02*
X153520000Y-116750000D01*
%TO.C,R4*%
X131930000Y-116750000D02*
X131930000Y-111850000D01*
X129690000Y-116750000D02*
X131930000Y-116750000D01*
X129690000Y-111850000D02*
X129690000Y-116750000D01*
X131930000Y-111850000D02*
X129690000Y-111850000D01*
%TO.C,R5*%
X142852000Y-119290000D02*
X142852000Y-114390000D01*
X140612000Y-119290000D02*
X142852000Y-119290000D01*
X140612000Y-114390000D02*
X140612000Y-119290000D01*
X142852000Y-114390000D02*
X140612000Y-114390000D01*
%TD*%
M02*
