%TF.GenerationSoftware,KiCad,Pcbnew,5.1.7*%
%TF.CreationDate,2020-11-07T17:07:58+01:00*%
%TF.ProjectId,sygeco1,73796765-636f-4312-9e6b-696361645f70,0.1*%
%TF.SameCoordinates,Original*%
%TF.FileFunction,Other,User*%
%FSLAX46Y46*%
G04 Gerber Fmt 4.6, Leading zero omitted, Abs format (unit mm)*
G04 Created by KiCad (PCBNEW 5.1.7) date 2020-11-07 17:07:58*
%MOMM*%
%LPD*%
G01*
G04 APERTURE LIST*
%ADD10C,0.100000*%
%ADD11C,0.050000*%
G04 APERTURE END LIST*
D10*
%TO.C,S1*%
X134056000Y-123296000D02*
X134056000Y-111296000D01*
X149106000Y-123296000D02*
X134056000Y-123296000D01*
X149106000Y-111296000D02*
X149106000Y-123296000D01*
X134056000Y-111296000D02*
X149106000Y-111296000D01*
D11*
%TO.C,REF\u002A\u002A*%
X130298000Y-95768000D02*
X130298000Y-99908000D01*
X154608000Y-101858000D02*
X155958000Y-101858000D01*
X123698000Y-69088000D02*
X123698000Y-98558000D01*
X159258000Y-69088000D02*
X159258000Y-98558000D01*
X130298000Y-95768000D02*
X152658000Y-95768000D01*
X128348000Y-101858000D02*
X126998000Y-101858000D01*
X155958000Y-65788000D02*
X126998000Y-65788000D01*
X152658000Y-95768000D02*
X152658000Y-99908000D01*
X128348000Y-101858000D02*
G75*
G03*
X130298000Y-99908000I0J1950000D01*
G01*
X123698000Y-98558000D02*
G75*
G03*
X126998000Y-101858000I3300000J0D01*
G01*
X123698000Y-69088000D02*
G75*
G02*
X126998000Y-65788000I3300000J0D01*
G01*
X159258000Y-98558000D02*
G75*
G02*
X155958000Y-101858000I-3300000J0D01*
G01*
X159258000Y-69088000D02*
G75*
G03*
X155958000Y-65788000I-3300000J0D01*
G01*
X154608000Y-101858000D02*
G75*
G02*
X152658000Y-99908000I0J1950000D01*
G01*
%TO.C,J1*%
X147576000Y-70888000D02*
X136376000Y-70888000D01*
X147576000Y-67338000D02*
X147576000Y-70888000D01*
X136376000Y-67338000D02*
X147576000Y-67338000D01*
X136376000Y-70888000D02*
X136376000Y-67338000D01*
%TO.C,LS1*%
X155908000Y-102108000D02*
G75*
G03*
X155908000Y-102108000I-6250000J0D01*
G01*
%TO.C,U1*%
X140214000Y-95936000D02*
X129514000Y-95936000D01*
X140214000Y-106736000D02*
X140214000Y-95936000D01*
X129514000Y-106736000D02*
X140214000Y-106736000D01*
X129514000Y-95936000D02*
X129514000Y-106736000D01*
%TO.C,D1*%
X140090000Y-62715000D02*
X140090000Y-60475000D01*
X140090000Y-60475000D02*
X144650000Y-60475000D01*
X144650000Y-60475000D02*
X144650000Y-62715000D01*
X144650000Y-62715000D02*
X140090000Y-62715000D01*
%TO.C,J2*%
X134896000Y-76984000D02*
X134896000Y-68334000D01*
X134896000Y-68334000D02*
X128746000Y-68334000D01*
X128746000Y-68334000D02*
X128746000Y-76984000D01*
X128746000Y-76984000D02*
X134896000Y-76984000D01*
%TD*%
M02*
