%TF.GenerationSoftware,KiCad,Pcbnew,5.1.7*%
%TF.CreationDate,2020-11-07T17:07:58+01:00*%
%TF.ProjectId,sygeco1,73796765-636f-4312-9e6b-696361645f70,0.1*%
%TF.SameCoordinates,Original*%
%TF.FileFunction,Soldermask,Bot*%
%TF.FilePolarity,Negative*%
%FSLAX46Y46*%
G04 Gerber Fmt 4.6, Leading zero omitted, Abs format (unit mm)*
G04 Created by KiCad (PCBNEW 5.1.7) date 2020-11-07 17:07:58*
%MOMM*%
%LPD*%
G01*
G04 APERTURE LIST*
%ADD10R,3.000000X3.000000*%
%ADD11C,3.000000*%
%ADD12C,1.800000*%
%ADD13C,1.500000*%
%ADD14C,1.524000*%
%ADD15C,1.700000*%
%ADD16R,1.700000X1.700000*%
%ADD17C,2.700000*%
%ADD18O,1.700000X1.700000*%
%ADD19C,1.600000*%
%ADD20R,1.600000X1.600000*%
%ADD21R,2.400000X1.600000*%
%ADD22O,2.400000X1.600000*%
G04 APERTURE END LIST*
D10*
%TO.C,BT1*%
X132740000Y-83670000D03*
D11*
X152790000Y-83770000D03*
%TD*%
D12*
%TO.C,S1*%
X136906000Y-114046000D03*
D13*
X136906000Y-117746000D03*
D12*
X136906000Y-120546000D03*
X147206000Y-120546000D03*
D13*
X147206000Y-117746000D03*
D12*
X147206000Y-114046000D03*
%TD*%
D14*
%TO.C,SW1*%
X130700000Y-63325000D03*
X130700000Y-61325000D03*
X130700000Y-59325000D03*
X135700000Y-63325000D03*
X135700000Y-61325000D03*
X135700000Y-59325000D03*
%TD*%
D15*
%TO.C,REF\u002A\u002A*%
X150368000Y-69088000D03*
X147828000Y-69088000D03*
X145288000Y-69088000D03*
X142748000Y-69088000D03*
X140208000Y-69088000D03*
X137668000Y-69088000D03*
X135128000Y-69088000D03*
D16*
X132588000Y-69088000D03*
D17*
X155956000Y-69088000D03*
X127000000Y-98552000D03*
X155956000Y-98552000D03*
X127000000Y-69088000D03*
%TD*%
D16*
%TO.C,J1*%
X138176000Y-69088000D03*
D18*
X140716000Y-69088000D03*
X143256000Y-69088000D03*
X145796000Y-69088000D03*
%TD*%
D19*
%TO.C,LS1*%
X146408000Y-102108000D03*
D20*
X152908000Y-102108000D03*
%TD*%
%TO.C,R1*%
G36*
G01*
X151774997Y-118625000D02*
X153025003Y-118625000D01*
G75*
G02*
X153275000Y-118874997I0J-249997D01*
G01*
X153275000Y-119500003D01*
G75*
G02*
X153025003Y-119750000I-249997J0D01*
G01*
X151774997Y-119750000D01*
G75*
G02*
X151525000Y-119500003I0J249997D01*
G01*
X151525000Y-118874997D01*
G75*
G02*
X151774997Y-118625000I249997J0D01*
G01*
G37*
G36*
G01*
X151774997Y-121550000D02*
X153025003Y-121550000D01*
G75*
G02*
X153275000Y-121799997I0J-249997D01*
G01*
X153275000Y-122425003D01*
G75*
G02*
X153025003Y-122675000I-249997J0D01*
G01*
X151774997Y-122675000D01*
G75*
G02*
X151525000Y-122425003I0J249997D01*
G01*
X151525000Y-121799997D01*
G75*
G02*
X151774997Y-121550000I249997J0D01*
G01*
G37*
%TD*%
D14*
%TO.C,SW2*%
X153480000Y-59325000D03*
X153480000Y-61325000D03*
X153480000Y-63325000D03*
X148480000Y-59325000D03*
X148480000Y-61325000D03*
X148480000Y-63325000D03*
%TD*%
%TO.C,R2*%
G36*
G01*
X131435003Y-122675000D02*
X130184997Y-122675000D01*
G75*
G02*
X129935000Y-122425003I0J249997D01*
G01*
X129935000Y-121799997D01*
G75*
G02*
X130184997Y-121550000I249997J0D01*
G01*
X131435003Y-121550000D01*
G75*
G02*
X131685000Y-121799997I0J-249997D01*
G01*
X131685000Y-122425003D01*
G75*
G02*
X131435003Y-122675000I-249997J0D01*
G01*
G37*
G36*
G01*
X131435003Y-119750000D02*
X130184997Y-119750000D01*
G75*
G02*
X129935000Y-119500003I0J249997D01*
G01*
X129935000Y-118874997D01*
G75*
G02*
X130184997Y-118625000I249997J0D01*
G01*
X131435003Y-118625000D01*
G75*
G02*
X131685000Y-118874997I0J-249997D01*
G01*
X131685000Y-119500003D01*
G75*
G02*
X131435003Y-119750000I-249997J0D01*
G01*
G37*
%TD*%
%TO.C,R3*%
G36*
G01*
X153025003Y-113400000D02*
X151774997Y-113400000D01*
G75*
G02*
X151525000Y-113150003I0J249997D01*
G01*
X151525000Y-112524997D01*
G75*
G02*
X151774997Y-112275000I249997J0D01*
G01*
X153025003Y-112275000D01*
G75*
G02*
X153275000Y-112524997I0J-249997D01*
G01*
X153275000Y-113150003D01*
G75*
G02*
X153025003Y-113400000I-249997J0D01*
G01*
G37*
G36*
G01*
X153025003Y-116325000D02*
X151774997Y-116325000D01*
G75*
G02*
X151525000Y-116075003I0J249997D01*
G01*
X151525000Y-115449997D01*
G75*
G02*
X151774997Y-115200000I249997J0D01*
G01*
X153025003Y-115200000D01*
G75*
G02*
X153275000Y-115449997I0J-249997D01*
G01*
X153275000Y-116075003D01*
G75*
G02*
X153025003Y-116325000I-249997J0D01*
G01*
G37*
%TD*%
%TO.C,R4*%
G36*
G01*
X130184997Y-115200000D02*
X131435003Y-115200000D01*
G75*
G02*
X131685000Y-115449997I0J-249997D01*
G01*
X131685000Y-116075003D01*
G75*
G02*
X131435003Y-116325000I-249997J0D01*
G01*
X130184997Y-116325000D01*
G75*
G02*
X129935000Y-116075003I0J249997D01*
G01*
X129935000Y-115449997D01*
G75*
G02*
X130184997Y-115200000I249997J0D01*
G01*
G37*
G36*
G01*
X130184997Y-112275000D02*
X131435003Y-112275000D01*
G75*
G02*
X131685000Y-112524997I0J-249997D01*
G01*
X131685000Y-113150003D01*
G75*
G02*
X131435003Y-113400000I-249997J0D01*
G01*
X130184997Y-113400000D01*
G75*
G02*
X129935000Y-113150003I0J249997D01*
G01*
X129935000Y-112524997D01*
G75*
G02*
X130184997Y-112275000I249997J0D01*
G01*
G37*
%TD*%
%TO.C,R5*%
G36*
G01*
X141106997Y-114815000D02*
X142357003Y-114815000D01*
G75*
G02*
X142607000Y-115064997I0J-249997D01*
G01*
X142607000Y-115690003D01*
G75*
G02*
X142357003Y-115940000I-249997J0D01*
G01*
X141106997Y-115940000D01*
G75*
G02*
X140857000Y-115690003I0J249997D01*
G01*
X140857000Y-115064997D01*
G75*
G02*
X141106997Y-114815000I249997J0D01*
G01*
G37*
G36*
G01*
X141106997Y-117740000D02*
X142357003Y-117740000D01*
G75*
G02*
X142607000Y-117989997I0J-249997D01*
G01*
X142607000Y-118615003D01*
G75*
G02*
X142357003Y-118865000I-249997J0D01*
G01*
X141106997Y-118865000D01*
G75*
G02*
X140857000Y-118615003I0J249997D01*
G01*
X140857000Y-117989997D01*
G75*
G02*
X141106997Y-117740000I249997J0D01*
G01*
G37*
%TD*%
D21*
%TO.C,U1*%
X131064000Y-97536000D03*
D22*
X138684000Y-105156000D03*
X131064000Y-100076000D03*
X138684000Y-102616000D03*
X131064000Y-102616000D03*
X138684000Y-100076000D03*
X131064000Y-105156000D03*
X138684000Y-97536000D03*
%TD*%
%TO.C,R6*%
G36*
G01*
X142865001Y-60506500D02*
X141614999Y-60506500D01*
G75*
G02*
X141365000Y-60256501I0J249999D01*
G01*
X141365000Y-59631499D01*
G75*
G02*
X141614999Y-59381500I249999J0D01*
G01*
X142865001Y-59381500D01*
G75*
G02*
X143115000Y-59631499I0J-249999D01*
G01*
X143115000Y-60256501D01*
G75*
G02*
X142865001Y-60506500I-249999J0D01*
G01*
G37*
G36*
G01*
X142865001Y-57581500D02*
X141614999Y-57581500D01*
G75*
G02*
X141365000Y-57331501I0J249999D01*
G01*
X141365000Y-56706499D01*
G75*
G02*
X141614999Y-56456500I249999J0D01*
G01*
X142865001Y-56456500D01*
G75*
G02*
X143115000Y-56706499I0J-249999D01*
G01*
X143115000Y-57331501D01*
G75*
G02*
X142865001Y-57581500I-249999J0D01*
G01*
G37*
%TD*%
D16*
%TO.C,J2*%
X133096000Y-75184000D03*
D18*
X130556000Y-75184000D03*
X133096000Y-72644000D03*
X130556000Y-72644000D03*
X133096000Y-70104000D03*
X130556000Y-70104000D03*
%TD*%
M02*
