M48
; DRILL file {KiCad 6.0.9} date Wed 22 Feb 2023 15:13:04 CET
; FORMAT={-:-/ absolute / inch / decimal}
; #@! TF.CreationDate,2023-02-22T15:13:04+01:00
; #@! TF.GenerationSoftware,Kicad,Pcbnew,6.0.9
; #@! TF.FileFunction,Plated,1,2,PTH
FMAT,2
INCH
; #@! TA.AperFunction,Plated,PTH,ViaDrill
T1C0.0157
; #@! TA.AperFunction,Plated,PTH,ComponentDrill
T2C0.0300
; #@! TA.AperFunction,Plated,PTH,ComponentDrill
T3C0.0315
; #@! TA.AperFunction,Plated,PTH,ComponentDrill
T4C0.0394
; #@! TA.AperFunction,Plated,PTH,ComponentDrill
T5C0.0472
; #@! TA.AperFunction,Plated,PTH,ComponentDrill
T6C0.0866
%
G90
G05
T1
X5.12Y-2.66
X5.19Y-4.431
X5.227Y-3.781
X5.2844Y-3.7576
X5.378Y-3.432
X5.379Y-4.16
X5.3844Y-4.0114
X5.44Y-3.175
X5.456Y-4.252
X5.51Y-4.3
X5.52Y-2.23
X5.52Y-3.06
X5.54Y-2.86
X5.66Y-2.96
X5.67Y-2.23
X5.89Y-2.62
X5.896Y-3.936
X6.02Y-4.352
T2
X5.1557Y-2.3106
X5.1557Y-2.3894
X5.1557Y-2.4681
X5.3525Y-2.3106
X5.3525Y-2.3894
X5.3525Y-2.4681
X5.8557Y-2.3106
X5.8557Y-2.3894
X5.8557Y-2.4681
X6.0525Y-2.3106
X6.0525Y-2.3894
X6.0525Y-2.4681
T3
X5.16Y-3.84
X5.16Y-3.94
X5.16Y-4.04
X5.16Y-4.14
X5.46Y-3.84
X5.46Y-3.94
X5.46Y-4.04
X5.46Y-4.14
T4
X5.14Y-2.76
X5.14Y-2.86
X5.14Y-2.96
X5.2378Y-3.298
X5.24Y-2.76
X5.24Y-2.86
X5.24Y-2.96
X5.39Y-4.6357
X5.462Y-2.722
X5.562Y-2.722
X5.662Y-2.722
X5.762Y-2.722
X5.7641Y-4.02
X5.7955Y-4.6357
X6.02Y-4.02
X6.0252Y-3.298
T5
X5.39Y-4.49
X5.39Y-4.7459
X5.7955Y-4.49
X5.7955Y-4.7459
T6
X5.14Y-3.67
X6.07Y-3.67
T0
M30
