%TF.GenerationSoftware,KiCad,Pcbnew,5.1.7*%
%TF.CreationDate,2020-11-07T17:07:58+01:00*%
%TF.ProjectId,sygeco1,73796765-636f-4312-9e6b-696361645f70,0.1*%
%TF.SameCoordinates,Original*%
%TF.FileFunction,Legend,Top*%
%TF.FilePolarity,Positive*%
%FSLAX46Y46*%
G04 Gerber Fmt 4.6, Leading zero omitted, Abs format (unit mm)*
G04 Created by KiCad (PCBNEW 5.1.7) date 2020-11-07 17:07:58*
%MOMM*%
%LPD*%
G01*
G04 APERTURE LIST*
%ADD10C,0.120000*%
%ADD11C,0.150000*%
%ADD12C,0.100000*%
%ADD13C,0.254000*%
G04 APERTURE END LIST*
D10*
X155575000Y-55245000D02*
X146050000Y-55245000D01*
X155575000Y-66040000D02*
X155575000Y-55245000D01*
X146050000Y-66040000D02*
X155575000Y-66040000D01*
X146050000Y-55245000D02*
X146050000Y-66040000D01*
X128270000Y-55245000D02*
X128270000Y-66040000D01*
X137795000Y-55245000D02*
X128270000Y-55245000D01*
X137795000Y-66040000D02*
X137795000Y-55245000D01*
X128270000Y-66040000D02*
X137795000Y-66040000D01*
D11*
X139398952Y-84034380D02*
X139398952Y-84748666D01*
X139351333Y-84891523D01*
X139256095Y-84986761D01*
X139113238Y-85034380D01*
X139018000Y-85034380D01*
X140351333Y-85034380D02*
X139875142Y-85034380D01*
X139875142Y-84034380D01*
X141256095Y-84939142D02*
X141208476Y-84986761D01*
X141065619Y-85034380D01*
X140970380Y-85034380D01*
X140827523Y-84986761D01*
X140732285Y-84891523D01*
X140684666Y-84796285D01*
X140637047Y-84605809D01*
X140637047Y-84462952D01*
X140684666Y-84272476D01*
X140732285Y-84177238D01*
X140827523Y-84082000D01*
X140970380Y-84034380D01*
X141065619Y-84034380D01*
X141208476Y-84082000D01*
X141256095Y-84129619D01*
X141970380Y-84034380D02*
X141970380Y-84748666D01*
X141922761Y-84891523D01*
X141827523Y-84986761D01*
X141684666Y-85034380D01*
X141589428Y-85034380D01*
X142922761Y-85034380D02*
X142446571Y-85034380D01*
X142446571Y-84034380D01*
X143827523Y-84939142D02*
X143779904Y-84986761D01*
X143637047Y-85034380D01*
X143541809Y-85034380D01*
X143398952Y-84986761D01*
X143303714Y-84891523D01*
X143256095Y-84796285D01*
X143208476Y-84605809D01*
X143208476Y-84462952D01*
X143256095Y-84272476D01*
X143303714Y-84177238D01*
X143398952Y-84082000D01*
X143541809Y-84034380D01*
X143637047Y-84034380D01*
X143779904Y-84082000D01*
X143827523Y-84129619D01*
X144541809Y-84034380D02*
X144541809Y-84748666D01*
X144494190Y-84891523D01*
X144398952Y-84986761D01*
X144256095Y-85034380D01*
X144160857Y-85034380D01*
X145494190Y-85034380D02*
X145018000Y-85034380D01*
X145018000Y-84034380D01*
X146398952Y-84939142D02*
X146351333Y-84986761D01*
X146208476Y-85034380D01*
X146113238Y-85034380D01*
X145970380Y-84986761D01*
X145875142Y-84891523D01*
X145827523Y-84796285D01*
X145779904Y-84605809D01*
X145779904Y-84462952D01*
X145827523Y-84272476D01*
X145875142Y-84177238D01*
X145970380Y-84082000D01*
X146113238Y-84034380D01*
X146208476Y-84034380D01*
X146351333Y-84082000D01*
X146398952Y-84129619D01*
X147113238Y-84034380D02*
X147113238Y-84748666D01*
X147065619Y-84891523D01*
X146970380Y-84986761D01*
X146827523Y-85034380D01*
X146732285Y-85034380D01*
X148065619Y-85034380D02*
X147589428Y-85034380D01*
X147589428Y-84034380D01*
X148970380Y-84939142D02*
X148922761Y-84986761D01*
X148779904Y-85034380D01*
X148684666Y-85034380D01*
X148541809Y-84986761D01*
X148446571Y-84891523D01*
X148398952Y-84796285D01*
X148351333Y-84605809D01*
X148351333Y-84462952D01*
X148398952Y-84272476D01*
X148446571Y-84177238D01*
X148541809Y-84082000D01*
X148684666Y-84034380D01*
X148779904Y-84034380D01*
X148922761Y-84082000D01*
X148970380Y-84129619D01*
X139787619Y-66492380D02*
X139787619Y-65492380D01*
X140025714Y-65492380D01*
X140168571Y-65540000D01*
X140263809Y-65635238D01*
X140311428Y-65730476D01*
X140359047Y-65920952D01*
X140359047Y-66063809D01*
X140311428Y-66254285D01*
X140263809Y-66349523D01*
X140168571Y-66444761D01*
X140025714Y-66492380D01*
X139787619Y-66492380D01*
X140787619Y-66492380D02*
X140787619Y-65825714D01*
X140787619Y-65492380D02*
X140740000Y-65540000D01*
X140787619Y-65587619D01*
X140835238Y-65540000D01*
X140787619Y-65492380D01*
X140787619Y-65587619D01*
X141216190Y-66444761D02*
X141311428Y-66492380D01*
X141501904Y-66492380D01*
X141597142Y-66444761D01*
X141644761Y-66349523D01*
X141644761Y-66301904D01*
X141597142Y-66206666D01*
X141501904Y-66159047D01*
X141359047Y-66159047D01*
X141263809Y-66111428D01*
X141216190Y-66016190D01*
X141216190Y-65968571D01*
X141263809Y-65873333D01*
X141359047Y-65825714D01*
X141501904Y-65825714D01*
X141597142Y-65873333D01*
X142073333Y-65825714D02*
X142073333Y-66825714D01*
X142073333Y-65873333D02*
X142168571Y-65825714D01*
X142359047Y-65825714D01*
X142454285Y-65873333D01*
X142501904Y-65920952D01*
X142549523Y-66016190D01*
X142549523Y-66301904D01*
X142501904Y-66397142D01*
X142454285Y-66444761D01*
X142359047Y-66492380D01*
X142168571Y-66492380D01*
X142073333Y-66444761D01*
X143120952Y-66492380D02*
X143025714Y-66444761D01*
X142978095Y-66349523D01*
X142978095Y-65492380D01*
X143930476Y-66492380D02*
X143930476Y-65968571D01*
X143882857Y-65873333D01*
X143787619Y-65825714D01*
X143597142Y-65825714D01*
X143501904Y-65873333D01*
X143930476Y-66444761D02*
X143835238Y-66492380D01*
X143597142Y-66492380D01*
X143501904Y-66444761D01*
X143454285Y-66349523D01*
X143454285Y-66254285D01*
X143501904Y-66159047D01*
X143597142Y-66111428D01*
X143835238Y-66111428D01*
X143930476Y-66063809D01*
X144311428Y-65825714D02*
X144549523Y-66492380D01*
X144787619Y-65825714D02*
X144549523Y-66492380D01*
X144454285Y-66730476D01*
X144406666Y-66778095D01*
X144311428Y-66825714D01*
X149034761Y-56919761D02*
X149177619Y-56967380D01*
X149415714Y-56967380D01*
X149510952Y-56919761D01*
X149558571Y-56872142D01*
X149606190Y-56776904D01*
X149606190Y-56681666D01*
X149558571Y-56586428D01*
X149510952Y-56538809D01*
X149415714Y-56491190D01*
X149225238Y-56443571D01*
X149130000Y-56395952D01*
X149082380Y-56348333D01*
X149034761Y-56253095D01*
X149034761Y-56157857D01*
X149082380Y-56062619D01*
X149130000Y-56015000D01*
X149225238Y-55967380D01*
X149463333Y-55967380D01*
X149606190Y-56015000D01*
X150177619Y-56967380D02*
X150082380Y-56919761D01*
X150034761Y-56872142D01*
X149987142Y-56776904D01*
X149987142Y-56491190D01*
X150034761Y-56395952D01*
X150082380Y-56348333D01*
X150177619Y-56300714D01*
X150320476Y-56300714D01*
X150415714Y-56348333D01*
X150463333Y-56395952D01*
X150510952Y-56491190D01*
X150510952Y-56776904D01*
X150463333Y-56872142D01*
X150415714Y-56919761D01*
X150320476Y-56967380D01*
X150177619Y-56967380D01*
X151368095Y-56300714D02*
X151368095Y-56967380D01*
X150939523Y-56300714D02*
X150939523Y-56824523D01*
X150987142Y-56919761D01*
X151082380Y-56967380D01*
X151225238Y-56967380D01*
X151320476Y-56919761D01*
X151368095Y-56872142D01*
X151844285Y-56300714D02*
X151844285Y-56967380D01*
X151844285Y-56395952D02*
X151891904Y-56348333D01*
X151987142Y-56300714D01*
X152130000Y-56300714D01*
X152225238Y-56348333D01*
X152272857Y-56443571D01*
X152272857Y-56967380D01*
X153177619Y-56967380D02*
X153177619Y-55967380D01*
X153177619Y-56919761D02*
X153082380Y-56967380D01*
X152891904Y-56967380D01*
X152796666Y-56919761D01*
X152749047Y-56872142D01*
X152701428Y-56776904D01*
X152701428Y-56491190D01*
X152749047Y-56395952D01*
X152796666Y-56348333D01*
X152891904Y-56300714D01*
X153082380Y-56300714D01*
X153177619Y-56348333D01*
X130865809Y-56967380D02*
X130865809Y-55967380D01*
X131246761Y-55967380D01*
X131342000Y-56015000D01*
X131389619Y-56062619D01*
X131437238Y-56157857D01*
X131437238Y-56300714D01*
X131389619Y-56395952D01*
X131342000Y-56443571D01*
X131246761Y-56491190D01*
X130865809Y-56491190D01*
X132008666Y-56967380D02*
X131913428Y-56919761D01*
X131865809Y-56872142D01*
X131818190Y-56776904D01*
X131818190Y-56491190D01*
X131865809Y-56395952D01*
X131913428Y-56348333D01*
X132008666Y-56300714D01*
X132151523Y-56300714D01*
X132246761Y-56348333D01*
X132294380Y-56395952D01*
X132342000Y-56491190D01*
X132342000Y-56776904D01*
X132294380Y-56872142D01*
X132246761Y-56919761D01*
X132151523Y-56967380D01*
X132008666Y-56967380D01*
X132675333Y-56300714D02*
X132865809Y-56967380D01*
X133056285Y-56491190D01*
X133246761Y-56967380D01*
X133437238Y-56300714D01*
X134199142Y-56919761D02*
X134103904Y-56967380D01*
X133913428Y-56967380D01*
X133818190Y-56919761D01*
X133770571Y-56824523D01*
X133770571Y-56443571D01*
X133818190Y-56348333D01*
X133913428Y-56300714D01*
X134103904Y-56300714D01*
X134199142Y-56348333D01*
X134246761Y-56443571D01*
X134246761Y-56538809D01*
X133770571Y-56634047D01*
X134675333Y-56967380D02*
X134675333Y-56300714D01*
X134675333Y-56491190D02*
X134722952Y-56395952D01*
X134770571Y-56348333D01*
X134865809Y-56300714D01*
X134961047Y-56300714D01*
D10*
%TO.C,BT1*%
X130590000Y-86820000D02*
X133490000Y-86820000D01*
X130490000Y-86920000D02*
X130490000Y-80920000D01*
X130490000Y-80820000D02*
X133490000Y-80820000D01*
X155854470Y-83820000D02*
G75*
G03*
X155854470Y-83820000I-11064470J0D01*
G01*
X134241754Y-80293616D02*
G75*
G02*
X133490000Y-80820000I-751754J273616D01*
G01*
X134241754Y-87346384D02*
G75*
G03*
X133490000Y-86820000I-751754J-273616D01*
G01*
D12*
%TO.C,S1*%
X137856000Y-122296000D02*
X145356000Y-122296000D01*
X135056000Y-113996000D02*
X135056000Y-113996000D01*
X135156000Y-113996000D02*
X135156000Y-113996000D01*
X138156000Y-112296000D02*
X145056000Y-112296000D01*
X135056000Y-113996000D02*
G75*
G02*
X135156000Y-113996000I50000J0D01*
G01*
X135156000Y-113996000D02*
G75*
G02*
X135056000Y-113996000I-50000J0D01*
G01*
D10*
%TO.C,SW1*%
X129700000Y-64325000D02*
X129700000Y-58325000D01*
X129700000Y-58325000D02*
X136700000Y-58325000D01*
X136700000Y-58325000D02*
X136700000Y-64325000D01*
X136700000Y-64325000D02*
X129700000Y-64325000D01*
%TO.C,REF\u002A\u002A*%
X126890000Y-74566000D02*
X156066000Y-74566000D01*
X156066000Y-74566000D02*
X156066000Y-89264000D01*
X126890000Y-74566000D02*
X126890000Y-89264000D01*
X130158000Y-95614000D02*
X130158000Y-99902000D01*
X128350000Y-101710000D02*
X126998000Y-101710000D01*
X123842000Y-69088000D02*
X123842000Y-98552000D01*
X155956000Y-65930000D02*
X127000000Y-65930000D01*
X152798000Y-95614000D02*
X152798000Y-99902000D01*
X159114000Y-69088000D02*
X159114000Y-98552000D01*
X130158000Y-95614000D02*
X152798000Y-95614000D01*
X154606000Y-101710000D02*
X155958000Y-101710000D01*
X126890000Y-89264000D02*
X156066000Y-89264000D01*
X128352000Y-101710000D02*
G75*
G03*
X130158000Y-99900000I-2000J1808000D01*
G01*
X127000000Y-101710000D02*
G75*
G02*
X123842000Y-98552000I0J3158000D01*
G01*
X123842000Y-69088000D02*
G75*
G02*
X127000000Y-65930000I3158000J0D01*
G01*
X159114000Y-69088000D02*
G75*
G03*
X155956000Y-65930000I-3158000J0D01*
G01*
X154604000Y-101710000D02*
G75*
G02*
X152798000Y-99900000I2000J1808000D01*
G01*
X155956000Y-101710000D02*
G75*
G03*
X159114000Y-98552000I0J3158000D01*
G01*
%TO.C,J1*%
X136846000Y-69088000D02*
X136846000Y-67758000D01*
X136846000Y-67758000D02*
X138176000Y-67758000D01*
X139446000Y-67758000D02*
X147126000Y-67758000D01*
X147126000Y-70418000D02*
X147126000Y-67758000D01*
X139446000Y-70418000D02*
X147126000Y-70418000D01*
X139446000Y-70418000D02*
X139446000Y-67758000D01*
%TO.C,LS1*%
X155758000Y-102108000D02*
G75*
G03*
X155758000Y-102108000I-6100000J0D01*
G01*
%TO.C,SW2*%
X154480000Y-64325000D02*
X147480000Y-64325000D01*
X154480000Y-58325000D02*
X154480000Y-64325000D01*
X147480000Y-58325000D02*
X154480000Y-58325000D01*
X147480000Y-64325000D02*
X147480000Y-58325000D01*
%TO.C,U1*%
X140124000Y-96146000D02*
X129624000Y-96146000D01*
X140124000Y-106546000D02*
X140124000Y-96146000D01*
X129624000Y-106546000D02*
X140124000Y-106546000D01*
X129624000Y-96146000D02*
X129624000Y-106546000D01*
X137124000Y-96206000D02*
X135874000Y-96206000D01*
X137124000Y-106486000D02*
X137124000Y-96206000D01*
X132624000Y-106486000D02*
X137124000Y-106486000D01*
X132624000Y-96206000D02*
X132624000Y-106486000D01*
X133874000Y-96206000D02*
X132624000Y-96206000D01*
X135874000Y-96206000D02*
G75*
G02*
X133874000Y-96206000I-1000000J0D01*
G01*
%TO.C,D1*%
X143970000Y-60460000D02*
X140085000Y-60460000D01*
X140085000Y-60460000D02*
X140085000Y-62730000D01*
X140085000Y-62730000D02*
X143970000Y-62730000D01*
%TO.C,J2*%
X134426000Y-68774000D02*
X129226000Y-68774000D01*
X134426000Y-73914000D02*
X134426000Y-68774000D01*
X129226000Y-76514000D02*
X129226000Y-68774000D01*
X134426000Y-73914000D02*
X131826000Y-73914000D01*
X131826000Y-73914000D02*
X131826000Y-76514000D01*
X131826000Y-76514000D02*
X129226000Y-76514000D01*
X134426000Y-75184000D02*
X134426000Y-76514000D01*
X134426000Y-76514000D02*
X133096000Y-76514000D01*
%TO.C,BT1*%
D11*
X131654285Y-79148571D02*
X131797142Y-79196190D01*
X131844761Y-79243809D01*
X131892380Y-79339047D01*
X131892380Y-79481904D01*
X131844761Y-79577142D01*
X131797142Y-79624761D01*
X131701904Y-79672380D01*
X131320952Y-79672380D01*
X131320952Y-78672380D01*
X131654285Y-78672380D01*
X131749523Y-78720000D01*
X131797142Y-78767619D01*
X131844761Y-78862857D01*
X131844761Y-78958095D01*
X131797142Y-79053333D01*
X131749523Y-79100952D01*
X131654285Y-79148571D01*
X131320952Y-79148571D01*
X132178095Y-78672380D02*
X132749523Y-78672380D01*
X132463809Y-79672380D02*
X132463809Y-78672380D01*
X133606666Y-79672380D02*
X133035238Y-79672380D01*
X133320952Y-79672380D02*
X133320952Y-78672380D01*
X133225714Y-78815238D01*
X133130476Y-78910476D01*
X133035238Y-78958095D01*
X132168571Y-83927142D02*
X133311428Y-83927142D01*
X132740000Y-84498571D02*
X132740000Y-83355714D01*
%TO.C,S1*%
D13*
X140613380Y-117810047D02*
X140794809Y-117870523D01*
X141097190Y-117870523D01*
X141218142Y-117810047D01*
X141278619Y-117749571D01*
X141339095Y-117628619D01*
X141339095Y-117507666D01*
X141278619Y-117386714D01*
X141218142Y-117326238D01*
X141097190Y-117265761D01*
X140855285Y-117205285D01*
X140734333Y-117144809D01*
X140673857Y-117084333D01*
X140613380Y-116963380D01*
X140613380Y-116842428D01*
X140673857Y-116721476D01*
X140734333Y-116661000D01*
X140855285Y-116600523D01*
X141157666Y-116600523D01*
X141339095Y-116661000D01*
X142548619Y-117870523D02*
X141822904Y-117870523D01*
X142185761Y-117870523D02*
X142185761Y-116600523D01*
X142064809Y-116781952D01*
X141943857Y-116902904D01*
X141822904Y-116963380D01*
%TO.C,SW1*%
D11*
X129104761Y-62658333D02*
X129152380Y-62515476D01*
X129152380Y-62277380D01*
X129104761Y-62182142D01*
X129057142Y-62134523D01*
X128961904Y-62086904D01*
X128866666Y-62086904D01*
X128771428Y-62134523D01*
X128723809Y-62182142D01*
X128676190Y-62277380D01*
X128628571Y-62467857D01*
X128580952Y-62563095D01*
X128533333Y-62610714D01*
X128438095Y-62658333D01*
X128342857Y-62658333D01*
X128247619Y-62610714D01*
X128200000Y-62563095D01*
X128152380Y-62467857D01*
X128152380Y-62229761D01*
X128200000Y-62086904D01*
X128152380Y-61753571D02*
X129152380Y-61515476D01*
X128438095Y-61325000D01*
X129152380Y-61134523D01*
X128152380Y-60896428D01*
X129152380Y-59991666D02*
X129152380Y-60563095D01*
X129152380Y-60277380D02*
X128152380Y-60277380D01*
X128295238Y-60372619D01*
X128390476Y-60467857D01*
X128438095Y-60563095D01*
%TO.C,REF\u002A\u002A*%
X140144666Y-64540380D02*
X139811333Y-64064190D01*
X139573238Y-64540380D02*
X139573238Y-63540380D01*
X139954190Y-63540380D01*
X140049428Y-63588000D01*
X140097047Y-63635619D01*
X140144666Y-63730857D01*
X140144666Y-63873714D01*
X140097047Y-63968952D01*
X140049428Y-64016571D01*
X139954190Y-64064190D01*
X139573238Y-64064190D01*
X140573238Y-64016571D02*
X140906571Y-64016571D01*
X141049428Y-64540380D02*
X140573238Y-64540380D01*
X140573238Y-63540380D01*
X141049428Y-63540380D01*
X141811333Y-64016571D02*
X141478000Y-64016571D01*
X141478000Y-64540380D02*
X141478000Y-63540380D01*
X141954190Y-63540380D01*
X142478000Y-63540380D02*
X142478000Y-63778476D01*
X142239904Y-63683238D02*
X142478000Y-63778476D01*
X142716095Y-63683238D01*
X142335142Y-63968952D02*
X142478000Y-63778476D01*
X142620857Y-63968952D01*
X143239904Y-63540380D02*
X143239904Y-63778476D01*
X143001809Y-63683238D02*
X143239904Y-63778476D01*
X143478000Y-63683238D01*
X143097047Y-63968952D02*
X143239904Y-63778476D01*
X143382761Y-63968952D01*
%TO.C,LS1*%
X149015142Y-109560380D02*
X148538952Y-109560380D01*
X148538952Y-108560380D01*
X149300857Y-109512761D02*
X149443714Y-109560380D01*
X149681809Y-109560380D01*
X149777047Y-109512761D01*
X149824666Y-109465142D01*
X149872285Y-109369904D01*
X149872285Y-109274666D01*
X149824666Y-109179428D01*
X149777047Y-109131809D01*
X149681809Y-109084190D01*
X149491333Y-109036571D01*
X149396095Y-108988952D01*
X149348476Y-108941333D01*
X149300857Y-108846095D01*
X149300857Y-108750857D01*
X149348476Y-108655619D01*
X149396095Y-108608000D01*
X149491333Y-108560380D01*
X149729428Y-108560380D01*
X149872285Y-108608000D01*
X150824666Y-109560380D02*
X150253238Y-109560380D01*
X150538952Y-109560380D02*
X150538952Y-108560380D01*
X150443714Y-108703238D01*
X150348476Y-108798476D01*
X150253238Y-108846095D01*
X152527047Y-103979428D02*
X153288952Y-103979428D01*
X152908000Y-104360380D02*
X152908000Y-103598476D01*
%TO.C,SW2*%
X146884761Y-62658333D02*
X146932380Y-62515476D01*
X146932380Y-62277380D01*
X146884761Y-62182142D01*
X146837142Y-62134523D01*
X146741904Y-62086904D01*
X146646666Y-62086904D01*
X146551428Y-62134523D01*
X146503809Y-62182142D01*
X146456190Y-62277380D01*
X146408571Y-62467857D01*
X146360952Y-62563095D01*
X146313333Y-62610714D01*
X146218095Y-62658333D01*
X146122857Y-62658333D01*
X146027619Y-62610714D01*
X145980000Y-62563095D01*
X145932380Y-62467857D01*
X145932380Y-62229761D01*
X145980000Y-62086904D01*
X145932380Y-61753571D02*
X146932380Y-61515476D01*
X146218095Y-61325000D01*
X146932380Y-61134523D01*
X145932380Y-60896428D01*
X146027619Y-60563095D02*
X145980000Y-60515476D01*
X145932380Y-60420238D01*
X145932380Y-60182142D01*
X145980000Y-60086904D01*
X146027619Y-60039285D01*
X146122857Y-59991666D01*
X146218095Y-59991666D01*
X146360952Y-60039285D01*
X146932380Y-60610714D01*
X146932380Y-59991666D01*
%TO.C,U1*%
X134112095Y-94658380D02*
X134112095Y-95467904D01*
X134159714Y-95563142D01*
X134207333Y-95610761D01*
X134302571Y-95658380D01*
X134493047Y-95658380D01*
X134588285Y-95610761D01*
X134635904Y-95563142D01*
X134683523Y-95467904D01*
X134683523Y-94658380D01*
X135683523Y-95658380D02*
X135112095Y-95658380D01*
X135397809Y-95658380D02*
X135397809Y-94658380D01*
X135302571Y-94801238D01*
X135207333Y-94896476D01*
X135112095Y-94944095D01*
%TO.C,D1*%
X141631904Y-60227380D02*
X141631904Y-59227380D01*
X141870000Y-59227380D01*
X142012857Y-59275000D01*
X142108095Y-59370238D01*
X142155714Y-59465476D01*
X142203333Y-59655952D01*
X142203333Y-59798809D01*
X142155714Y-59989285D01*
X142108095Y-60084523D01*
X142012857Y-60179761D01*
X141870000Y-60227380D01*
X141631904Y-60227380D01*
X143155714Y-60227380D02*
X142584285Y-60227380D01*
X142870000Y-60227380D02*
X142870000Y-59227380D01*
X142774761Y-59370238D01*
X142679523Y-59465476D01*
X142584285Y-59513095D01*
%TO.C,J2*%
X131492666Y-76966380D02*
X131492666Y-77680666D01*
X131445047Y-77823523D01*
X131349809Y-77918761D01*
X131206952Y-77966380D01*
X131111714Y-77966380D01*
X131921238Y-77061619D02*
X131968857Y-77014000D01*
X132064095Y-76966380D01*
X132302190Y-76966380D01*
X132397428Y-77014000D01*
X132445047Y-77061619D01*
X132492666Y-77156857D01*
X132492666Y-77252095D01*
X132445047Y-77394952D01*
X131873619Y-77966380D01*
X132492666Y-77966380D01*
%TD*%
M02*
