%TF.GenerationSoftware,KiCad,Pcbnew,5.1.7*%
%TF.CreationDate,2020-12-14T21:59:14+01:00*%
%TF.ProjectId,sygeco1,73796765-636f-4312-9e6b-696361645f70,0.2*%
%TF.SameCoordinates,Original*%
%TF.FileFunction,Soldermask,Top*%
%TF.FilePolarity,Negative*%
%FSLAX46Y46*%
G04 Gerber Fmt 4.6, Leading zero omitted, Abs format (unit mm)*
G04 Created by KiCad (PCBNEW 5.1.7) date 2020-12-14 21:59:14*
%MOMM*%
%LPD*%
G01*
G04 APERTURE LIST*
%ADD10C,1.800000*%
%ADD11C,1.500000*%
%ADD12R,2.500000X2.500000*%
%ADD13C,1.524000*%
%ADD14O,1.700000X1.700000*%
%ADD15R,1.700000X1.700000*%
%ADD16C,1.600000*%
%ADD17R,1.600000X1.600000*%
%ADD18O,2.400000X1.600000*%
%ADD19R,2.400000X1.600000*%
%ADD20C,3.500000*%
G04 APERTURE END LIST*
D10*
%TO.C,S1*%
X136906000Y-114046000D03*
D11*
X136906000Y-117746000D03*
D10*
X136906000Y-120546000D03*
X147206000Y-120546000D03*
D11*
X147206000Y-117746000D03*
D10*
X147206000Y-114046000D03*
%TD*%
%TO.C,BT1*%
G36*
G01*
X151940000Y-84320000D02*
X151940000Y-83220000D01*
G75*
G02*
X152490000Y-82670000I550000J0D01*
G01*
X153590000Y-82670000D01*
G75*
G02*
X154140000Y-83220000I0J-550000D01*
G01*
X154140000Y-84320000D01*
G75*
G02*
X153590000Y-84870000I-550000J0D01*
G01*
X152490000Y-84870000D01*
G75*
G02*
X151940000Y-84320000I0J550000D01*
G01*
G37*
D12*
X133040000Y-83770000D03*
%TD*%
D13*
%TO.C,SW1*%
X135700000Y-59325000D03*
X135700000Y-61325000D03*
X135700000Y-63325000D03*
X130700000Y-59325000D03*
X130700000Y-61325000D03*
X130700000Y-63325000D03*
%TD*%
D14*
%TO.C,J1*%
X138734800Y-69138800D03*
X141274800Y-69138800D03*
X143814800Y-69138800D03*
D15*
X146354800Y-69138800D03*
%TD*%
D16*
%TO.C,LS1*%
X146408000Y-102108000D03*
D17*
X152908000Y-102108000D03*
%TD*%
D13*
%TO.C,SW2*%
X153480000Y-59325000D03*
X153480000Y-61325000D03*
X153480000Y-63325000D03*
X148480000Y-59325000D03*
X148480000Y-61325000D03*
X148480000Y-63325000D03*
%TD*%
D18*
%TO.C,U1*%
X138684000Y-97536000D03*
X131064000Y-105156000D03*
X138684000Y-100076000D03*
X131064000Y-102616000D03*
X138684000Y-102616000D03*
X131064000Y-100076000D03*
X138684000Y-105156000D03*
D19*
X131064000Y-97536000D03*
%TD*%
%TO.C,D1*%
G36*
G01*
X140833000Y-60439000D02*
X139583000Y-60439000D01*
G75*
G02*
X139333000Y-60189000I0J250000D01*
G01*
X139333000Y-59439000D01*
G75*
G02*
X139583000Y-59189000I250000J0D01*
G01*
X140833000Y-59189000D01*
G75*
G02*
X141083000Y-59439000I0J-250000D01*
G01*
X141083000Y-60189000D01*
G75*
G02*
X140833000Y-60439000I-250000J0D01*
G01*
G37*
G36*
G01*
X140833000Y-63239000D02*
X139583000Y-63239000D01*
G75*
G02*
X139333000Y-62989000I0J250000D01*
G01*
X139333000Y-62239000D01*
G75*
G02*
X139583000Y-61989000I250000J0D01*
G01*
X140833000Y-61989000D01*
G75*
G02*
X141083000Y-62239000I0J-250000D01*
G01*
X141083000Y-62989000D01*
G75*
G02*
X140833000Y-63239000I-250000J0D01*
G01*
G37*
%TD*%
D14*
%TO.C,J2*%
X130556000Y-70104000D03*
X133096000Y-70104000D03*
X130556000Y-72644000D03*
X133096000Y-72644000D03*
X130556000Y-75184000D03*
D15*
X133096000Y-75184000D03*
%TD*%
D20*
%TO.C,H1*%
X130556000Y-93218000D03*
%TD*%
%TO.C,H2*%
X154178000Y-93218000D03*
%TD*%
%TO.C,D2*%
G36*
G01*
X144643000Y-63239000D02*
X143393000Y-63239000D01*
G75*
G02*
X143143000Y-62989000I0J250000D01*
G01*
X143143000Y-62239000D01*
G75*
G02*
X143393000Y-61989000I250000J0D01*
G01*
X144643000Y-61989000D01*
G75*
G02*
X144893000Y-62239000I0J-250000D01*
G01*
X144893000Y-62989000D01*
G75*
G02*
X144643000Y-63239000I-250000J0D01*
G01*
G37*
G36*
G01*
X144643000Y-60439000D02*
X143393000Y-60439000D01*
G75*
G02*
X143143000Y-60189000I0J250000D01*
G01*
X143143000Y-59439000D01*
G75*
G02*
X143393000Y-59189000I250000J0D01*
G01*
X144643000Y-59189000D01*
G75*
G02*
X144893000Y-59439000I0J-250000D01*
G01*
X144893000Y-60189000D01*
G75*
G02*
X144643000Y-60439000I-250000J0D01*
G01*
G37*
%TD*%
M02*
