%TF.GenerationSoftware,KiCad,Pcbnew,5.1.7*%
%TF.CreationDate,2020-11-07T17:07:58+01:00*%
%TF.ProjectId,sygeco1,73796765-636f-4312-9e6b-696361645f70,0.1*%
%TF.SameCoordinates,Original*%
%TF.FileFunction,Paste,Bot*%
%TF.FilePolarity,Positive*%
%FSLAX46Y46*%
G04 Gerber Fmt 4.6, Leading zero omitted, Abs format (unit mm)*
G04 Created by KiCad (PCBNEW 5.1.7) date 2020-11-07 17:07:58*
%MOMM*%
%LPD*%
G01*
G04 APERTURE LIST*
G04 APERTURE END LIST*
%TO.C,R1*%
G36*
G01*
X151774997Y-118625000D02*
X153025003Y-118625000D01*
G75*
G02*
X153275000Y-118874997I0J-249997D01*
G01*
X153275000Y-119500003D01*
G75*
G02*
X153025003Y-119750000I-249997J0D01*
G01*
X151774997Y-119750000D01*
G75*
G02*
X151525000Y-119500003I0J249997D01*
G01*
X151525000Y-118874997D01*
G75*
G02*
X151774997Y-118625000I249997J0D01*
G01*
G37*
G36*
G01*
X151774997Y-121550000D02*
X153025003Y-121550000D01*
G75*
G02*
X153275000Y-121799997I0J-249997D01*
G01*
X153275000Y-122425003D01*
G75*
G02*
X153025003Y-122675000I-249997J0D01*
G01*
X151774997Y-122675000D01*
G75*
G02*
X151525000Y-122425003I0J249997D01*
G01*
X151525000Y-121799997D01*
G75*
G02*
X151774997Y-121550000I249997J0D01*
G01*
G37*
%TD*%
%TO.C,R2*%
G36*
G01*
X131435003Y-122675000D02*
X130184997Y-122675000D01*
G75*
G02*
X129935000Y-122425003I0J249997D01*
G01*
X129935000Y-121799997D01*
G75*
G02*
X130184997Y-121550000I249997J0D01*
G01*
X131435003Y-121550000D01*
G75*
G02*
X131685000Y-121799997I0J-249997D01*
G01*
X131685000Y-122425003D01*
G75*
G02*
X131435003Y-122675000I-249997J0D01*
G01*
G37*
G36*
G01*
X131435003Y-119750000D02*
X130184997Y-119750000D01*
G75*
G02*
X129935000Y-119500003I0J249997D01*
G01*
X129935000Y-118874997D01*
G75*
G02*
X130184997Y-118625000I249997J0D01*
G01*
X131435003Y-118625000D01*
G75*
G02*
X131685000Y-118874997I0J-249997D01*
G01*
X131685000Y-119500003D01*
G75*
G02*
X131435003Y-119750000I-249997J0D01*
G01*
G37*
%TD*%
%TO.C,R3*%
G36*
G01*
X153025003Y-113400000D02*
X151774997Y-113400000D01*
G75*
G02*
X151525000Y-113150003I0J249997D01*
G01*
X151525000Y-112524997D01*
G75*
G02*
X151774997Y-112275000I249997J0D01*
G01*
X153025003Y-112275000D01*
G75*
G02*
X153275000Y-112524997I0J-249997D01*
G01*
X153275000Y-113150003D01*
G75*
G02*
X153025003Y-113400000I-249997J0D01*
G01*
G37*
G36*
G01*
X153025003Y-116325000D02*
X151774997Y-116325000D01*
G75*
G02*
X151525000Y-116075003I0J249997D01*
G01*
X151525000Y-115449997D01*
G75*
G02*
X151774997Y-115200000I249997J0D01*
G01*
X153025003Y-115200000D01*
G75*
G02*
X153275000Y-115449997I0J-249997D01*
G01*
X153275000Y-116075003D01*
G75*
G02*
X153025003Y-116325000I-249997J0D01*
G01*
G37*
%TD*%
%TO.C,R4*%
G36*
G01*
X130184997Y-115200000D02*
X131435003Y-115200000D01*
G75*
G02*
X131685000Y-115449997I0J-249997D01*
G01*
X131685000Y-116075003D01*
G75*
G02*
X131435003Y-116325000I-249997J0D01*
G01*
X130184997Y-116325000D01*
G75*
G02*
X129935000Y-116075003I0J249997D01*
G01*
X129935000Y-115449997D01*
G75*
G02*
X130184997Y-115200000I249997J0D01*
G01*
G37*
G36*
G01*
X130184997Y-112275000D02*
X131435003Y-112275000D01*
G75*
G02*
X131685000Y-112524997I0J-249997D01*
G01*
X131685000Y-113150003D01*
G75*
G02*
X131435003Y-113400000I-249997J0D01*
G01*
X130184997Y-113400000D01*
G75*
G02*
X129935000Y-113150003I0J249997D01*
G01*
X129935000Y-112524997D01*
G75*
G02*
X130184997Y-112275000I249997J0D01*
G01*
G37*
%TD*%
%TO.C,R5*%
G36*
G01*
X141106997Y-114815000D02*
X142357003Y-114815000D01*
G75*
G02*
X142607000Y-115064997I0J-249997D01*
G01*
X142607000Y-115690003D01*
G75*
G02*
X142357003Y-115940000I-249997J0D01*
G01*
X141106997Y-115940000D01*
G75*
G02*
X140857000Y-115690003I0J249997D01*
G01*
X140857000Y-115064997D01*
G75*
G02*
X141106997Y-114815000I249997J0D01*
G01*
G37*
G36*
G01*
X141106997Y-117740000D02*
X142357003Y-117740000D01*
G75*
G02*
X142607000Y-117989997I0J-249997D01*
G01*
X142607000Y-118615003D01*
G75*
G02*
X142357003Y-118865000I-249997J0D01*
G01*
X141106997Y-118865000D01*
G75*
G02*
X140857000Y-118615003I0J249997D01*
G01*
X140857000Y-117989997D01*
G75*
G02*
X141106997Y-117740000I249997J0D01*
G01*
G37*
%TD*%
%TO.C,R6*%
G36*
G01*
X142865001Y-60506500D02*
X141614999Y-60506500D01*
G75*
G02*
X141365000Y-60256501I0J249999D01*
G01*
X141365000Y-59631499D01*
G75*
G02*
X141614999Y-59381500I249999J0D01*
G01*
X142865001Y-59381500D01*
G75*
G02*
X143115000Y-59631499I0J-249999D01*
G01*
X143115000Y-60256501D01*
G75*
G02*
X142865001Y-60506500I-249999J0D01*
G01*
G37*
G36*
G01*
X142865001Y-57581500D02*
X141614999Y-57581500D01*
G75*
G02*
X141365000Y-57331501I0J249999D01*
G01*
X141365000Y-56706499D01*
G75*
G02*
X141614999Y-56456500I249999J0D01*
G01*
X142865001Y-56456500D01*
G75*
G02*
X143115000Y-56706499I0J-249999D01*
G01*
X143115000Y-57331501D01*
G75*
G02*
X142865001Y-57581500I-249999J0D01*
G01*
G37*
%TD*%
M02*
