%TF.GenerationSoftware,KiCad,Pcbnew,5.1.7*%
%TF.CreationDate,2020-11-07T17:07:58+01:00*%
%TF.ProjectId,sygeco1,73796765-636f-4312-9e6b-696361645f70,0.1*%
%TF.SameCoordinates,Original*%
%TF.FileFunction,Other,User*%
%FSLAX46Y46*%
G04 Gerber Fmt 4.6, Leading zero omitted, Abs format (unit mm)*
G04 Created by KiCad (PCBNEW 5.1.7) date 2020-11-07 17:07:58*
%MOMM*%
%LPD*%
G01*
G04 APERTURE LIST*
%ADD10C,0.050000*%
G04 APERTURE END LIST*
D10*
%TO.C,R1*%
X153520000Y-118370000D02*
X151280000Y-118370000D01*
X151280000Y-118370000D02*
X151280000Y-122930000D01*
X151280000Y-122930000D02*
X153520000Y-122930000D01*
X153520000Y-122930000D02*
X153520000Y-118370000D01*
%TO.C,R2*%
X129690000Y-122930000D02*
X131930000Y-122930000D01*
X131930000Y-122930000D02*
X131930000Y-118370000D01*
X131930000Y-118370000D02*
X129690000Y-118370000D01*
X129690000Y-118370000D02*
X129690000Y-122930000D01*
%TO.C,R3*%
X151280000Y-112020000D02*
X151280000Y-116580000D01*
X153520000Y-112020000D02*
X151280000Y-112020000D01*
X153520000Y-116580000D02*
X153520000Y-112020000D01*
X151280000Y-116580000D02*
X153520000Y-116580000D01*
%TO.C,R4*%
X131930000Y-116580000D02*
X131930000Y-112020000D01*
X129690000Y-116580000D02*
X131930000Y-116580000D01*
X129690000Y-112020000D02*
X129690000Y-116580000D01*
X131930000Y-112020000D02*
X129690000Y-112020000D01*
%TO.C,R5*%
X142852000Y-114560000D02*
X140612000Y-114560000D01*
X140612000Y-114560000D02*
X140612000Y-119120000D01*
X140612000Y-119120000D02*
X142852000Y-119120000D01*
X142852000Y-119120000D02*
X142852000Y-114560000D01*
%TO.C,R6*%
X141120000Y-60761500D02*
X143360000Y-60761500D01*
X143360000Y-60761500D02*
X143360000Y-56201500D01*
X143360000Y-56201500D02*
X141120000Y-56201500D01*
X141120000Y-56201500D02*
X141120000Y-60761500D01*
%TD*%
M02*
