M48
; DRILL file {KiCad 5.1.7} date Sat Nov  7 17:07:54 2020
; FORMAT={-:-/ absolute / inch / decimal}
; #@! TF.CreationDate,2020-11-07T17:07:54+01:00
; #@! TF.GenerationSoftware,Kicad,Pcbnew,5.1.7
; #@! TF.FileFunction,Plated,1,2,PTH
FMAT,2
INCH
T1C0.0157
T2C0.0300
T3C0.0315
T4C0.0394
T5C0.0472
T6C0.0709
%
G90
G05
T1
X5.06Y-3.7
X5.12Y-2.66
X5.16Y-3.6
X5.26Y-3.56
X5.34Y-3.12
X5.52Y-3.06
X5.54Y-2.86
X5.58Y-4.86
X5.66Y-2.96
X5.68Y-4.44
X5.7Y-2.28
X5.7Y-2.52
X6.0Y-4.26
T2
X5.1457Y-2.3356
X5.1457Y-2.4144
X5.1457Y-2.4931
X5.3425Y-2.3356
X5.3425Y-2.4144
X5.3425Y-2.4931
X5.8457Y-2.3356
X5.8457Y-2.4144
X5.8457Y-2.4931
X6.0425Y-2.3356
X6.0425Y-2.4144
X6.0425Y-2.4931
T3
X5.16Y-3.84
X5.16Y-3.94
X5.16Y-4.04
X5.16Y-4.14
X5.46Y-3.84
X5.46Y-3.94
X5.46Y-4.04
X5.46Y-4.14
T4
X5.39Y-4.6357
X5.7955Y-4.6357
X5.44Y-2.72
X5.54Y-2.72
X5.64Y-2.72
X5.74Y-2.72
X5.14Y-2.76
X5.14Y-2.86
X5.14Y-2.96
X5.24Y-2.76
X5.24Y-2.86
X5.24Y-2.96
X5.7641Y-4.02
X6.02Y-4.02
X5.22Y-2.72
X5.32Y-2.72
X5.42Y-2.72
X5.52Y-2.72
X5.62Y-2.72
X5.72Y-2.72
X5.82Y-2.72
X5.92Y-2.72
T5
X5.39Y-4.49
X5.39Y-4.7459
X5.7955Y-4.49
X5.7955Y-4.7459
T6
X5.226Y-3.2941
X6.0154Y-3.298
T0
M30
