%TF.GenerationSoftware,KiCad,Pcbnew,5.1.7*%
%TF.CreationDate,2020-11-07T17:07:58+01:00*%
%TF.ProjectId,sygeco1,73796765-636f-4312-9e6b-696361645f70,0.1*%
%TF.SameCoordinates,Original*%
%TF.FileFunction,Copper,L2,Bot*%
%TF.FilePolarity,Positive*%
%FSLAX46Y46*%
G04 Gerber Fmt 4.6, Leading zero omitted, Abs format (unit mm)*
G04 Created by KiCad (PCBNEW 5.1.7) date 2020-11-07 17:07:58*
%MOMM*%
%LPD*%
G01*
G04 APERTURE LIST*
%TA.AperFunction,ComponentPad*%
%ADD10R,3.000000X3.000000*%
%TD*%
%TA.AperFunction,ComponentPad*%
%ADD11C,3.000000*%
%TD*%
%TA.AperFunction,ComponentPad*%
%ADD12C,1.800000*%
%TD*%
%TA.AperFunction,ComponentPad*%
%ADD13C,1.500000*%
%TD*%
%TA.AperFunction,ComponentPad*%
%ADD14C,1.524000*%
%TD*%
%TA.AperFunction,ComponentPad*%
%ADD15C,1.700000*%
%TD*%
%TA.AperFunction,ComponentPad*%
%ADD16R,1.700000X1.700000*%
%TD*%
%TA.AperFunction,ComponentPad*%
%ADD17O,1.700000X1.700000*%
%TD*%
%TA.AperFunction,ComponentPad*%
%ADD18C,1.600000*%
%TD*%
%TA.AperFunction,ComponentPad*%
%ADD19R,1.600000X1.600000*%
%TD*%
%TA.AperFunction,ComponentPad*%
%ADD20R,2.400000X1.600000*%
%TD*%
%TA.AperFunction,ComponentPad*%
%ADD21O,2.400000X1.600000*%
%TD*%
%TA.AperFunction,ViaPad*%
%ADD22C,0.800000*%
%TD*%
%TA.AperFunction,Conductor*%
%ADD23C,0.250000*%
%TD*%
G04 APERTURE END LIST*
D10*
%TO.P,BT1,1*%
%TO.N,Net-(BT1-Pad1)*%
X132740000Y-83670000D03*
D11*
%TO.P,BT1,2*%
%TO.N,GND*%
X152790000Y-83770000D03*
%TD*%
D12*
%TO.P,S1,1*%
%TO.N,PAD_AXE_2*%
X136906000Y-114046000D03*
D13*
%TO.P,S1,2*%
%TO.N,Net-(R2-Pad2)*%
X136906000Y-117746000D03*
D12*
%TO.P,S1,3*%
%TO.N,Net-(R5-Pad2)*%
X136906000Y-120546000D03*
%TO.P,S1,4*%
%TO.N,GND*%
X147206000Y-120546000D03*
D13*
%TO.P,S1,5*%
%TO.N,PAD_AXE_1*%
X147206000Y-117746000D03*
D12*
%TO.P,S1,6*%
%TO.N,Button*%
X147206000Y-114046000D03*
%TD*%
D14*
%TO.P,SW1,1*%
%TO.N,Net-(SW1-Pad1)*%
X130700000Y-63325000D03*
%TO.P,SW1,2*%
%TO.N,Net-(BT1-Pad1)*%
X130700000Y-61325000D03*
%TO.P,SW1,3*%
%TO.N,VCC*%
X130700000Y-59325000D03*
%TO.P,SW1,4*%
%TO.N,Net-(SW1-Pad4)*%
X135700000Y-63325000D03*
%TO.P,SW1,5*%
%TO.N,Net-(BT1-Pad1)*%
X135700000Y-61325000D03*
%TO.P,SW1,6*%
%TO.N,VCC*%
X135700000Y-59325000D03*
%TD*%
D15*
%TO.P,REF\u002A\u002A,8*%
%TO.N,N/C*%
X150368000Y-69088000D03*
%TO.P,REF\u002A\u002A,7*%
X147828000Y-69088000D03*
%TO.P,REF\u002A\u002A,6*%
X145288000Y-69088000D03*
%TO.P,REF\u002A\u002A,5*%
X142748000Y-69088000D03*
%TO.P,REF\u002A\u002A,4*%
X140208000Y-69088000D03*
%TO.P,REF\u002A\u002A,3*%
X137668000Y-69088000D03*
%TO.P,REF\u002A\u002A,2*%
X135128000Y-69088000D03*
D16*
%TO.P,REF\u002A\u002A,1*%
X132588000Y-69088000D03*
%TD*%
%TO.P,J1,1*%
%TO.N,SDA*%
X138176000Y-69088000D03*
D17*
%TO.P,J1,2*%
%TO.N,SCL*%
X140716000Y-69088000D03*
%TO.P,J1,3*%
%TO.N,VCC*%
X143256000Y-69088000D03*
%TO.P,J1,4*%
%TO.N,GND*%
X145796000Y-69088000D03*
%TD*%
D18*
%TO.P,LS1,2*%
%TO.N,GND*%
X146408000Y-102108000D03*
D19*
%TO.P,LS1,1*%
%TO.N,Net-(LS1-Pad1)*%
X152908000Y-102108000D03*
%TD*%
%TO.P,R1,1*%
%TO.N,VCC*%
%TA.AperFunction,SMDPad,CuDef*%
G36*
G01*
X151774997Y-118625000D02*
X153025003Y-118625000D01*
G75*
G02*
X153275000Y-118874997I0J-249997D01*
G01*
X153275000Y-119500003D01*
G75*
G02*
X153025003Y-119750000I-249997J0D01*
G01*
X151774997Y-119750000D01*
G75*
G02*
X151525000Y-119500003I0J249997D01*
G01*
X151525000Y-118874997D01*
G75*
G02*
X151774997Y-118625000I249997J0D01*
G01*
G37*
%TD.AperFunction*%
%TO.P,R1,2*%
%TO.N,PAD_AXE_1*%
%TA.AperFunction,SMDPad,CuDef*%
G36*
G01*
X151774997Y-121550000D02*
X153025003Y-121550000D01*
G75*
G02*
X153275000Y-121799997I0J-249997D01*
G01*
X153275000Y-122425003D01*
G75*
G02*
X153025003Y-122675000I-249997J0D01*
G01*
X151774997Y-122675000D01*
G75*
G02*
X151525000Y-122425003I0J249997D01*
G01*
X151525000Y-121799997D01*
G75*
G02*
X151774997Y-121550000I249997J0D01*
G01*
G37*
%TD.AperFunction*%
%TD*%
D14*
%TO.P,SW2,6*%
%TO.N,Net-(SW2-Pad6)*%
X153480000Y-59325000D03*
%TO.P,SW2,5*%
%TO.N,Net-(SW2-Pad5)*%
X153480000Y-61325000D03*
%TO.P,SW2,4*%
%TO.N,Net-(SW2-Pad4)*%
X153480000Y-63325000D03*
%TO.P,SW2,3*%
%TO.N,Net-(LS1-Pad1)*%
X148480000Y-59325000D03*
%TO.P,SW2,2*%
%TO.N,Net-(SW2-Pad2)*%
X148480000Y-61325000D03*
%TO.P,SW2,1*%
%TO.N,Net-(SW2-Pad1)*%
X148480000Y-63325000D03*
%TD*%
%TO.P,R2,1*%
%TO.N,PAD_AXE_1*%
%TA.AperFunction,SMDPad,CuDef*%
G36*
G01*
X131435003Y-122675000D02*
X130184997Y-122675000D01*
G75*
G02*
X129935000Y-122425003I0J249997D01*
G01*
X129935000Y-121799997D01*
G75*
G02*
X130184997Y-121550000I249997J0D01*
G01*
X131435003Y-121550000D01*
G75*
G02*
X131685000Y-121799997I0J-249997D01*
G01*
X131685000Y-122425003D01*
G75*
G02*
X131435003Y-122675000I-249997J0D01*
G01*
G37*
%TD.AperFunction*%
%TO.P,R2,2*%
%TO.N,Net-(R2-Pad2)*%
%TA.AperFunction,SMDPad,CuDef*%
G36*
G01*
X131435003Y-119750000D02*
X130184997Y-119750000D01*
G75*
G02*
X129935000Y-119500003I0J249997D01*
G01*
X129935000Y-118874997D01*
G75*
G02*
X130184997Y-118625000I249997J0D01*
G01*
X131435003Y-118625000D01*
G75*
G02*
X131685000Y-118874997I0J-249997D01*
G01*
X131685000Y-119500003D01*
G75*
G02*
X131435003Y-119750000I-249997J0D01*
G01*
G37*
%TD.AperFunction*%
%TD*%
%TO.P,R3,2*%
%TO.N,Button*%
%TA.AperFunction,SMDPad,CuDef*%
G36*
G01*
X153025003Y-113400000D02*
X151774997Y-113400000D01*
G75*
G02*
X151525000Y-113150003I0J249997D01*
G01*
X151525000Y-112524997D01*
G75*
G02*
X151774997Y-112275000I249997J0D01*
G01*
X153025003Y-112275000D01*
G75*
G02*
X153275000Y-112524997I0J-249997D01*
G01*
X153275000Y-113150003D01*
G75*
G02*
X153025003Y-113400000I-249997J0D01*
G01*
G37*
%TD.AperFunction*%
%TO.P,R3,1*%
%TO.N,VCC*%
%TA.AperFunction,SMDPad,CuDef*%
G36*
G01*
X153025003Y-116325000D02*
X151774997Y-116325000D01*
G75*
G02*
X151525000Y-116075003I0J249997D01*
G01*
X151525000Y-115449997D01*
G75*
G02*
X151774997Y-115200000I249997J0D01*
G01*
X153025003Y-115200000D01*
G75*
G02*
X153275000Y-115449997I0J-249997D01*
G01*
X153275000Y-116075003D01*
G75*
G02*
X153025003Y-116325000I-249997J0D01*
G01*
G37*
%TD.AperFunction*%
%TD*%
%TO.P,R4,2*%
%TO.N,PAD_AXE_2*%
%TA.AperFunction,SMDPad,CuDef*%
G36*
G01*
X130184997Y-115200000D02*
X131435003Y-115200000D01*
G75*
G02*
X131685000Y-115449997I0J-249997D01*
G01*
X131685000Y-116075003D01*
G75*
G02*
X131435003Y-116325000I-249997J0D01*
G01*
X130184997Y-116325000D01*
G75*
G02*
X129935000Y-116075003I0J249997D01*
G01*
X129935000Y-115449997D01*
G75*
G02*
X130184997Y-115200000I249997J0D01*
G01*
G37*
%TD.AperFunction*%
%TO.P,R4,1*%
%TO.N,VCC*%
%TA.AperFunction,SMDPad,CuDef*%
G36*
G01*
X130184997Y-112275000D02*
X131435003Y-112275000D01*
G75*
G02*
X131685000Y-112524997I0J-249997D01*
G01*
X131685000Y-113150003D01*
G75*
G02*
X131435003Y-113400000I-249997J0D01*
G01*
X130184997Y-113400000D01*
G75*
G02*
X129935000Y-113150003I0J249997D01*
G01*
X129935000Y-112524997D01*
G75*
G02*
X130184997Y-112275000I249997J0D01*
G01*
G37*
%TD.AperFunction*%
%TD*%
%TO.P,R5,1*%
%TO.N,PAD_AXE_2*%
%TA.AperFunction,SMDPad,CuDef*%
G36*
G01*
X141106997Y-114815000D02*
X142357003Y-114815000D01*
G75*
G02*
X142607000Y-115064997I0J-249997D01*
G01*
X142607000Y-115690003D01*
G75*
G02*
X142357003Y-115940000I-249997J0D01*
G01*
X141106997Y-115940000D01*
G75*
G02*
X140857000Y-115690003I0J249997D01*
G01*
X140857000Y-115064997D01*
G75*
G02*
X141106997Y-114815000I249997J0D01*
G01*
G37*
%TD.AperFunction*%
%TO.P,R5,2*%
%TO.N,Net-(R5-Pad2)*%
%TA.AperFunction,SMDPad,CuDef*%
G36*
G01*
X141106997Y-117740000D02*
X142357003Y-117740000D01*
G75*
G02*
X142607000Y-117989997I0J-249997D01*
G01*
X142607000Y-118615003D01*
G75*
G02*
X142357003Y-118865000I-249997J0D01*
G01*
X141106997Y-118865000D01*
G75*
G02*
X140857000Y-118615003I0J249997D01*
G01*
X140857000Y-117989997D01*
G75*
G02*
X141106997Y-117740000I249997J0D01*
G01*
G37*
%TD.AperFunction*%
%TD*%
D20*
%TO.P,U1,1*%
%TO.N,PAD_AXE_1*%
X131064000Y-97536000D03*
D21*
%TO.P,U1,5*%
%TO.N,SDA*%
X138684000Y-105156000D03*
%TO.P,U1,2*%
%TO.N,PAD_AXE_2*%
X131064000Y-100076000D03*
%TO.P,U1,6*%
%TO.N,Button*%
X138684000Y-102616000D03*
%TO.P,U1,3*%
%TO.N,Net-(SW2-Pad2)*%
X131064000Y-102616000D03*
%TO.P,U1,7*%
%TO.N,SCL*%
X138684000Y-100076000D03*
%TO.P,U1,4*%
%TO.N,GND*%
X131064000Y-105156000D03*
%TO.P,U1,8*%
%TO.N,VCC*%
X138684000Y-97536000D03*
%TD*%
%TO.P,R6,1*%
%TO.N,VCC*%
%TA.AperFunction,SMDPad,CuDef*%
G36*
G01*
X142865001Y-60506500D02*
X141614999Y-60506500D01*
G75*
G02*
X141365000Y-60256501I0J249999D01*
G01*
X141365000Y-59631499D01*
G75*
G02*
X141614999Y-59381500I249999J0D01*
G01*
X142865001Y-59381500D01*
G75*
G02*
X143115000Y-59631499I0J-249999D01*
G01*
X143115000Y-60256501D01*
G75*
G02*
X142865001Y-60506500I-249999J0D01*
G01*
G37*
%TD.AperFunction*%
%TO.P,R6,2*%
%TO.N,Net-(D1-Pad2)*%
%TA.AperFunction,SMDPad,CuDef*%
G36*
G01*
X142865001Y-57581500D02*
X141614999Y-57581500D01*
G75*
G02*
X141365000Y-57331501I0J249999D01*
G01*
X141365000Y-56706499D01*
G75*
G02*
X141614999Y-56456500I249999J0D01*
G01*
X142865001Y-56456500D01*
G75*
G02*
X143115000Y-56706499I0J-249999D01*
G01*
X143115000Y-57331501D01*
G75*
G02*
X142865001Y-57581500I-249999J0D01*
G01*
G37*
%TD.AperFunction*%
%TD*%
D16*
%TO.P,J2,1*%
%TO.N,Button*%
X133096000Y-75184000D03*
D17*
%TO.P,J2,2*%
%TO.N,VCC*%
X130556000Y-75184000D03*
%TO.P,J2,3*%
%TO.N,SCL*%
X133096000Y-72644000D03*
%TO.P,J2,4*%
%TO.N,SDA*%
X130556000Y-72644000D03*
%TO.P,J2,5*%
%TO.N,PAD_AXE_1*%
X133096000Y-70104000D03*
%TO.P,J2,6*%
%TO.N,GND*%
X130556000Y-70104000D03*
%TD*%
D22*
%TO.N,Net-(BT1-Pad1)*%
X135636000Y-79248000D03*
%TO.N,GND*%
X144780000Y-64008000D03*
X144272000Y-112776000D03*
%TO.N,SCL*%
X140716000Y-72644000D03*
%TO.N,VCC*%
X152400000Y-108204000D03*
X128524000Y-93980000D03*
X140208000Y-77724000D03*
%TO.N,PAD_AXE_1*%
X141732000Y-123444000D03*
X130048000Y-67564000D03*
X131064000Y-91440000D03*
%TO.N,Button*%
X143764000Y-75184000D03*
%TO.N,Net-(SW2-Pad2)*%
X133604000Y-90424000D03*
%TO.N,Net-(D1-Pad2)*%
X144780000Y-57912000D03*
%TD*%
D23*
%TO.N,Net-(BT1-Pad1)*%
X132985000Y-83552000D02*
X132105000Y-84432000D01*
X130700000Y-61325000D02*
X132985000Y-61325000D01*
X133239000Y-61325000D02*
X133239000Y-64659000D01*
X132985000Y-61325000D02*
X133239000Y-61325000D01*
X133239000Y-61325000D02*
X135700000Y-61325000D01*
X133239000Y-64659000D02*
X135636000Y-67056000D01*
X135636000Y-67056000D02*
X135636000Y-78232000D01*
X135636000Y-78232000D02*
X135636000Y-79248000D01*
X135636000Y-79248000D02*
X135636000Y-79248000D01*
%TO.N,GND*%
X152790000Y-76082000D02*
X145796000Y-69088000D01*
X152790000Y-83770000D02*
X152790000Y-76082000D01*
X145796000Y-69088000D02*
X145796000Y-65024000D01*
X145796000Y-65024000D02*
X144780000Y-64008000D01*
X144780000Y-64008000D02*
X144780000Y-64008000D01*
X144272000Y-112776000D02*
X144272000Y-112776000D01*
X144272000Y-119380000D02*
X145438000Y-120546000D01*
X140716000Y-112776000D02*
X144272000Y-112776000D01*
X145438000Y-120546000D02*
X147206000Y-120546000D01*
X133096000Y-105156000D02*
X140716000Y-112776000D01*
X131064000Y-105156000D02*
X133096000Y-105156000D01*
X144272000Y-112776000D02*
X144272000Y-119380000D01*
X146408000Y-87780000D02*
X146408000Y-102108000D01*
X150418000Y-83770000D02*
X146408000Y-87780000D01*
X152790000Y-83770000D02*
X150418000Y-83770000D01*
%TO.N,SDA*%
X138684000Y-105156000D02*
X137668000Y-105156000D01*
X137668000Y-105156000D02*
X135636000Y-103124000D01*
X135636000Y-103124000D02*
X135636000Y-93472000D01*
X135636000Y-93472000D02*
X137668000Y-91440000D01*
X137668000Y-91440000D02*
X137668000Y-80772000D01*
X130556000Y-72644000D02*
X128524000Y-72644000D01*
X128524000Y-72644000D02*
X128524000Y-79248000D01*
X138176000Y-80264000D02*
X137668000Y-80772000D01*
X138176000Y-69088000D02*
X138176000Y-80264000D01*
X130048000Y-80772000D02*
X128524000Y-79248000D01*
X137668000Y-80772000D02*
X130048000Y-80772000D01*
%TO.N,SCL*%
X141732000Y-98552000D02*
X140208000Y-100076000D01*
X140208000Y-100076000D02*
X138684000Y-100076000D01*
X141732000Y-73660000D02*
X141732000Y-98552000D01*
X140716000Y-72644000D02*
X141732000Y-73660000D01*
%TO.N,VCC*%
X135700000Y-59325000D02*
X130700000Y-59325000D01*
X141621000Y-59325000D02*
X142240000Y-59944000D01*
X138684000Y-59436000D02*
X138795000Y-59325000D01*
X138684000Y-65024000D02*
X138684000Y-59436000D01*
X140716000Y-65024000D02*
X138684000Y-65024000D01*
X143256000Y-67564000D02*
X140716000Y-65024000D01*
X138795000Y-59325000D02*
X141621000Y-59325000D01*
X143256000Y-69088000D02*
X143256000Y-67564000D01*
X135700000Y-59325000D02*
X138795000Y-59325000D01*
X128524000Y-108204000D02*
X128524000Y-93980000D01*
X128524000Y-93980000D02*
X128524000Y-93980000D01*
X140208000Y-80772000D02*
X140208000Y-77724000D01*
X140208000Y-94996000D02*
X140208000Y-80772000D01*
X138684000Y-96520000D02*
X140208000Y-94996000D01*
X138684000Y-97536000D02*
X138684000Y-96520000D01*
X154747500Y-115762500D02*
X152400000Y-115762500D01*
X155448000Y-115062000D02*
X154747500Y-115762500D01*
X155448000Y-110236000D02*
X155448000Y-115062000D01*
X153416000Y-108204000D02*
X155448000Y-110236000D01*
X152400000Y-108204000D02*
X153416000Y-108204000D01*
X130810000Y-110490000D02*
X128524000Y-108204000D01*
X130810000Y-112837500D02*
X130810000Y-110490000D01*
X152400000Y-115762500D02*
X152400000Y-119187500D01*
%TO.N,Net-(LS1-Pad1)*%
X152908000Y-89408000D02*
X152908000Y-102108000D01*
X155702000Y-86614000D02*
X152908000Y-89408000D01*
X155702000Y-70104000D02*
X155702000Y-86614000D01*
X150622000Y-65024000D02*
X155702000Y-70104000D01*
X150622000Y-60198000D02*
X150622000Y-65024000D01*
X149749000Y-59325000D02*
X150622000Y-60198000D01*
X148480000Y-59325000D02*
X149749000Y-59325000D01*
%TO.N,PAD_AXE_1*%
X152338500Y-120904000D02*
X152400000Y-120842500D01*
X131572000Y-120273000D02*
X131572000Y-121412000D01*
X141732000Y-123444000D02*
X141732000Y-123444000D01*
X133096000Y-70104000D02*
X133096000Y-68072000D01*
X133096000Y-68072000D02*
X132588000Y-67564000D01*
X132588000Y-67564000D02*
X130048000Y-67564000D01*
X130048000Y-67564000D02*
X130048000Y-67564000D01*
X131064000Y-97536000D02*
X131064000Y-91440000D01*
X151572500Y-122112500D02*
X152400000Y-122112500D01*
X147206000Y-117746000D02*
X151572500Y-122112500D01*
X132141500Y-123444000D02*
X130810000Y-122112500D01*
X141732000Y-123444000D02*
X132141500Y-123444000D01*
%TO.N,Net-(R2-Pad2)*%
X136508000Y-117348000D02*
X136906000Y-117746000D01*
X132251500Y-117746000D02*
X130810000Y-119187500D01*
X136906000Y-117746000D02*
X132251500Y-117746000D01*
%TO.N,Button*%
X150560500Y-112075500D02*
X152400000Y-112075500D01*
X148590000Y-114046000D02*
X150560500Y-112075500D01*
X147206000Y-114046000D02*
X148590000Y-114046000D01*
X143764000Y-75184000D02*
X143764000Y-75184000D01*
X141224000Y-102616000D02*
X138684000Y-102616000D01*
X142432500Y-109272500D02*
X142432500Y-102677500D01*
X147206000Y-114046000D02*
X142432500Y-109272500D01*
X142494000Y-102616000D02*
X141224000Y-102616000D01*
X142432500Y-102677500D02*
X142494000Y-102616000D01*
X143764000Y-101346000D02*
X142494000Y-102616000D01*
X143764000Y-75184000D02*
X143764000Y-101346000D01*
%TO.N,PAD_AXE_2*%
X141732000Y-115377500D02*
X140523500Y-115377500D01*
X139192000Y-114046000D02*
X136906000Y-114046000D01*
X140523500Y-115377500D02*
X139192000Y-114046000D01*
X135189500Y-115762500D02*
X135953500Y-114998500D01*
X130810000Y-115762500D02*
X135189500Y-115762500D01*
X135953500Y-114998500D02*
X135382000Y-115570000D01*
X136906000Y-114046000D02*
X135953500Y-114998500D01*
%TO.N,Net-(R5-Pad2)*%
X141732000Y-118302500D02*
X141732000Y-118872000D01*
X140058000Y-120546000D02*
X136906000Y-120546000D01*
X141732000Y-118872000D02*
X140058000Y-120546000D01*
%TO.N,Net-(SW2-Pad2)*%
X131064000Y-102616000D02*
X133096000Y-102616000D01*
X133096000Y-102616000D02*
X133604000Y-102108000D01*
X133604000Y-102108000D02*
X133604000Y-90424000D01*
%TO.N,Net-(D1-Pad2)*%
X142240000Y-57019000D02*
X143887000Y-57019000D01*
X143887000Y-57019000D02*
X144780000Y-57912000D01*
X144780000Y-57912000D02*
X144780000Y-57912000D01*
%TD*%
M02*
