M48
; DRILL file {KiCad 5.1.7} date Mon Dec 14 21:59:12 2020
; FORMAT={-:-/ absolute / inch / decimal}
; #@! TF.CreationDate,2020-12-14T21:59:12+01:00
; #@! TF.GenerationSoftware,Kicad,Pcbnew,5.1.7
; #@! TF.FileFunction,Plated,1,2,PTH
FMAT,2
INCH
T1C0.0157
T2C0.0300
T3C0.0315
T4C0.0394
T5C0.0472
T6C0.0866
%
G90
G05
T1
X5.06Y-3.445
X5.06Y-3.88
X5.12Y-2.66
X5.36Y-4.4
X5.378Y-3.432
X5.44Y-3.175
X5.51Y-4.3
X5.52Y-2.23
X5.52Y-3.06
X5.54Y-2.86
X5.66Y-2.96
X5.67Y-2.23
X5.89Y-2.62
X5.89Y-4.36
X5.9Y-4.2
T2
X5.8457Y-2.3356
X5.8457Y-2.4144
X5.8457Y-2.4931
X6.0425Y-2.3356
X6.0425Y-2.4144
X6.0425Y-2.4931
X5.1457Y-2.3356
X5.1457Y-2.4144
X5.1457Y-2.4931
X5.3425Y-2.3356
X5.3425Y-2.4144
X5.3425Y-2.4931
T3
X5.16Y-3.84
X5.16Y-3.94
X5.16Y-4.04
X5.16Y-4.14
X5.46Y-3.84
X5.46Y-3.94
X5.46Y-4.04
X5.46Y-4.14
X5.2378Y-3.298
X6.0252Y-3.298
T4
X5.462Y-2.722
X5.562Y-2.722
X5.662Y-2.722
X5.762Y-2.722
X5.39Y-4.6357
X5.7955Y-4.6357
X5.14Y-2.76
X5.14Y-2.86
X5.14Y-2.96
X5.24Y-2.76
X5.24Y-2.86
X5.24Y-2.96
X5.7641Y-4.02
X6.02Y-4.02
T5
X5.39Y-4.49
X5.39Y-4.7459
X5.7955Y-4.49
X5.7955Y-4.7459
T6
X5.14Y-3.67
X6.07Y-3.67
T0
M30
