%TF.GenerationSoftware,KiCad,Pcbnew,5.1.7*%
%TF.CreationDate,2020-12-14T21:59:14+01:00*%
%TF.ProjectId,sygeco1,73796765-636f-4312-9e6b-696361645f70,0.2*%
%TF.SameCoordinates,Original*%
%TF.FileFunction,Legend,Bot*%
%TF.FilePolarity,Positive*%
%FSLAX46Y46*%
G04 Gerber Fmt 4.6, Leading zero omitted, Abs format (unit mm)*
G04 Created by KiCad (PCBNEW 5.1.7) date 2020-12-14 21:59:14*
%MOMM*%
%LPD*%
G01*
G04 APERTURE LIST*
%ADD10C,0.150000*%
%ADD11C,0.250000*%
%ADD12C,0.120000*%
G04 APERTURE END LIST*
D10*
X155043214Y-98894690D02*
X155709880Y-99085166D01*
X155233690Y-99275642D01*
X155709880Y-99466119D01*
X155043214Y-99656595D01*
X155043214Y-99942309D02*
X155709880Y-100132785D01*
X155233690Y-100323261D01*
X155709880Y-100513738D01*
X155043214Y-100704214D01*
X155043214Y-100989928D02*
X155709880Y-101180404D01*
X155233690Y-101370880D01*
X155709880Y-101561357D01*
X155043214Y-101751833D01*
X155614642Y-102132785D02*
X155662261Y-102180404D01*
X155709880Y-102132785D01*
X155662261Y-102085166D01*
X155614642Y-102132785D01*
X155709880Y-102132785D01*
X155662261Y-102561357D02*
X155709880Y-102656595D01*
X155709880Y-102847071D01*
X155662261Y-102942309D01*
X155567023Y-102989928D01*
X155519404Y-102989928D01*
X155424166Y-102942309D01*
X155376547Y-102847071D01*
X155376547Y-102704214D01*
X155328928Y-102608976D01*
X155233690Y-102561357D01*
X155186071Y-102561357D01*
X155090833Y-102608976D01*
X155043214Y-102704214D01*
X155043214Y-102847071D01*
X155090833Y-102942309D01*
X155043214Y-103323261D02*
X155709880Y-103561357D01*
X155043214Y-103799452D02*
X155709880Y-103561357D01*
X155947976Y-103466119D01*
X155995595Y-103418500D01*
X156043214Y-103323261D01*
X155709880Y-104323261D02*
X155662261Y-104228023D01*
X155567023Y-104180404D01*
X154709880Y-104180404D01*
X155043214Y-104704214D02*
X156043214Y-104704214D01*
X155090833Y-104704214D02*
X155043214Y-104799452D01*
X155043214Y-104989928D01*
X155090833Y-105085166D01*
X155138452Y-105132785D01*
X155233690Y-105180404D01*
X155519404Y-105180404D01*
X155614642Y-105132785D01*
X155662261Y-105085166D01*
X155709880Y-104989928D01*
X155709880Y-104799452D01*
X155662261Y-104704214D01*
X155709880Y-105608976D02*
X154709880Y-105608976D01*
X155709880Y-106037547D02*
X155186071Y-106037547D01*
X155090833Y-105989928D01*
X155043214Y-105894690D01*
X155043214Y-105751833D01*
X155090833Y-105656595D01*
X155138452Y-105608976D01*
X155709880Y-106513738D02*
X155043214Y-106513738D01*
X154709880Y-106513738D02*
X154757500Y-106466119D01*
X154805119Y-106513738D01*
X154757500Y-106561357D01*
X154709880Y-106513738D01*
X154805119Y-106513738D01*
X155709880Y-107418500D02*
X154709880Y-107418500D01*
X155662261Y-107418500D02*
X155709880Y-107323261D01*
X155709880Y-107132785D01*
X155662261Y-107037547D01*
X155614642Y-106989928D01*
X155519404Y-106942309D01*
X155233690Y-106942309D01*
X155138452Y-106989928D01*
X155090833Y-107037547D01*
X155043214Y-107132785D01*
X155043214Y-107323261D01*
X155090833Y-107418500D01*
X155662261Y-108275642D02*
X155709880Y-108180404D01*
X155709880Y-107989928D01*
X155662261Y-107894690D01*
X155567023Y-107847071D01*
X155186071Y-107847071D01*
X155090833Y-107894690D01*
X155043214Y-107989928D01*
X155043214Y-108180404D01*
X155090833Y-108275642D01*
X155186071Y-108323261D01*
X155281309Y-108323261D01*
X155376547Y-107847071D01*
X155328928Y-108751833D02*
X155328928Y-109513738D01*
X155662261Y-110418500D02*
X155709880Y-110323261D01*
X155709880Y-110132785D01*
X155662261Y-110037547D01*
X155614642Y-109989928D01*
X155519404Y-109942309D01*
X155233690Y-109942309D01*
X155138452Y-109989928D01*
X155090833Y-110037547D01*
X155043214Y-110132785D01*
X155043214Y-110323261D01*
X155090833Y-110418500D01*
X155709880Y-110989928D02*
X155662261Y-110894690D01*
X155614642Y-110847071D01*
X155519404Y-110799452D01*
X155233690Y-110799452D01*
X155138452Y-110847071D01*
X155090833Y-110894690D01*
X155043214Y-110989928D01*
X155043214Y-111132785D01*
X155090833Y-111228023D01*
X155138452Y-111275642D01*
X155233690Y-111323261D01*
X155519404Y-111323261D01*
X155614642Y-111275642D01*
X155662261Y-111228023D01*
X155709880Y-111132785D01*
X155709880Y-110989928D01*
X155043214Y-111751833D02*
X155709880Y-111751833D01*
X155138452Y-111751833D02*
X155090833Y-111799452D01*
X155043214Y-111894690D01*
X155043214Y-112037547D01*
X155090833Y-112132785D01*
X155186071Y-112180404D01*
X155709880Y-112180404D01*
X155662261Y-112608976D02*
X155709880Y-112704214D01*
X155709880Y-112894690D01*
X155662261Y-112989928D01*
X155567023Y-113037547D01*
X155519404Y-113037547D01*
X155424166Y-112989928D01*
X155376547Y-112894690D01*
X155376547Y-112751833D01*
X155328928Y-112656595D01*
X155233690Y-112608976D01*
X155186071Y-112608976D01*
X155090833Y-112656595D01*
X155043214Y-112751833D01*
X155043214Y-112894690D01*
X155090833Y-112989928D01*
X155043214Y-113894690D02*
X155709880Y-113894690D01*
X155043214Y-113466119D02*
X155567023Y-113466119D01*
X155662261Y-113513738D01*
X155709880Y-113608976D01*
X155709880Y-113751833D01*
X155662261Y-113847071D01*
X155614642Y-113894690D01*
X155709880Y-114513738D02*
X155662261Y-114418500D01*
X155567023Y-114370880D01*
X154709880Y-114370880D01*
X155043214Y-114751833D02*
X155043214Y-115132785D01*
X154709880Y-114894690D02*
X155567023Y-114894690D01*
X155662261Y-114942309D01*
X155709880Y-115037547D01*
X155709880Y-115132785D01*
X155709880Y-115466119D02*
X155043214Y-115466119D01*
X154709880Y-115466119D02*
X154757500Y-115418500D01*
X154805119Y-115466119D01*
X154757500Y-115513738D01*
X154709880Y-115466119D01*
X154805119Y-115466119D01*
X155043214Y-115942309D02*
X155709880Y-115942309D01*
X155138452Y-115942309D02*
X155090833Y-115989928D01*
X155043214Y-116085166D01*
X155043214Y-116228023D01*
X155090833Y-116323261D01*
X155186071Y-116370880D01*
X155709880Y-116370880D01*
X155043214Y-117275642D02*
X155852738Y-117275642D01*
X155947976Y-117228023D01*
X155995595Y-117180404D01*
X156043214Y-117085166D01*
X156043214Y-116942309D01*
X155995595Y-116847071D01*
X155662261Y-117275642D02*
X155709880Y-117180404D01*
X155709880Y-116989928D01*
X155662261Y-116894690D01*
X155614642Y-116847071D01*
X155519404Y-116799452D01*
X155233690Y-116799452D01*
X155138452Y-116847071D01*
X155090833Y-116894690D01*
X155043214Y-116989928D01*
X155043214Y-117180404D01*
X155090833Y-117275642D01*
X155614642Y-117751833D02*
X155662261Y-117799452D01*
X155709880Y-117751833D01*
X155662261Y-117704214D01*
X155614642Y-117751833D01*
X155709880Y-117751833D01*
X155662261Y-118656595D02*
X155709880Y-118561357D01*
X155709880Y-118370880D01*
X155662261Y-118275642D01*
X155614642Y-118228023D01*
X155519404Y-118180404D01*
X155233690Y-118180404D01*
X155138452Y-118228023D01*
X155090833Y-118275642D01*
X155043214Y-118370880D01*
X155043214Y-118561357D01*
X155090833Y-118656595D01*
X155709880Y-119228023D02*
X155662261Y-119132785D01*
X155614642Y-119085166D01*
X155519404Y-119037547D01*
X155233690Y-119037547D01*
X155138452Y-119085166D01*
X155090833Y-119132785D01*
X155043214Y-119228023D01*
X155043214Y-119370880D01*
X155090833Y-119466119D01*
X155138452Y-119513738D01*
X155233690Y-119561357D01*
X155519404Y-119561357D01*
X155614642Y-119513738D01*
X155662261Y-119466119D01*
X155709880Y-119370880D01*
X155709880Y-119228023D01*
X155709880Y-119989928D02*
X155043214Y-119989928D01*
X155138452Y-119989928D02*
X155090833Y-120037547D01*
X155043214Y-120132785D01*
X155043214Y-120275642D01*
X155090833Y-120370880D01*
X155186071Y-120418500D01*
X155709880Y-120418500D01*
X155186071Y-120418500D02*
X155090833Y-120466119D01*
X155043214Y-120561357D01*
X155043214Y-120704214D01*
X155090833Y-120799452D01*
X155186071Y-120847071D01*
X155709880Y-120847071D01*
X154138380Y-68961523D02*
X155138380Y-69294857D01*
X154138380Y-69628190D01*
X155090761Y-70342476D02*
X155138380Y-70247238D01*
X155138380Y-70056761D01*
X155090761Y-69961523D01*
X154995523Y-69913904D01*
X154614571Y-69913904D01*
X154519333Y-69961523D01*
X154471714Y-70056761D01*
X154471714Y-70247238D01*
X154519333Y-70342476D01*
X154614571Y-70390095D01*
X154709809Y-70390095D01*
X154805047Y-69913904D01*
X155138380Y-70818666D02*
X154471714Y-70818666D01*
X154662190Y-70818666D02*
X154566952Y-70866285D01*
X154519333Y-70913904D01*
X154471714Y-71009142D01*
X154471714Y-71104380D01*
X155090761Y-71390095D02*
X155138380Y-71485333D01*
X155138380Y-71675809D01*
X155090761Y-71771047D01*
X154995523Y-71818666D01*
X154947904Y-71818666D01*
X154852666Y-71771047D01*
X154805047Y-71675809D01*
X154805047Y-71532952D01*
X154757428Y-71437714D01*
X154662190Y-71390095D01*
X154614571Y-71390095D01*
X154519333Y-71437714D01*
X154471714Y-71532952D01*
X154471714Y-71675809D01*
X154519333Y-71771047D01*
X155138380Y-72247238D02*
X154471714Y-72247238D01*
X154138380Y-72247238D02*
X154186000Y-72199619D01*
X154233619Y-72247238D01*
X154186000Y-72294857D01*
X154138380Y-72247238D01*
X154233619Y-72247238D01*
X155138380Y-72866285D02*
X155090761Y-72771047D01*
X155043142Y-72723428D01*
X154947904Y-72675809D01*
X154662190Y-72675809D01*
X154566952Y-72723428D01*
X154519333Y-72771047D01*
X154471714Y-72866285D01*
X154471714Y-73009142D01*
X154519333Y-73104380D01*
X154566952Y-73152000D01*
X154662190Y-73199619D01*
X154947904Y-73199619D01*
X155043142Y-73152000D01*
X155090761Y-73104380D01*
X155138380Y-73009142D01*
X155138380Y-72866285D01*
X154471714Y-73628190D02*
X155138380Y-73628190D01*
X154566952Y-73628190D02*
X154519333Y-73675809D01*
X154471714Y-73771047D01*
X154471714Y-73913904D01*
X154519333Y-74009142D01*
X154614571Y-74056761D01*
X155138380Y-74056761D01*
X154138380Y-75485333D02*
X154138380Y-75580571D01*
X154186000Y-75675809D01*
X154233619Y-75723428D01*
X154328857Y-75771047D01*
X154519333Y-75818666D01*
X154757428Y-75818666D01*
X154947904Y-75771047D01*
X155043142Y-75723428D01*
X155090761Y-75675809D01*
X155138380Y-75580571D01*
X155138380Y-75485333D01*
X155090761Y-75390095D01*
X155043142Y-75342476D01*
X154947904Y-75294857D01*
X154757428Y-75247238D01*
X154519333Y-75247238D01*
X154328857Y-75294857D01*
X154233619Y-75342476D01*
X154186000Y-75390095D01*
X154138380Y-75485333D01*
X155043142Y-76247238D02*
X155090761Y-76294857D01*
X155138380Y-76247238D01*
X155090761Y-76199619D01*
X155043142Y-76247238D01*
X155138380Y-76247238D01*
X154233619Y-76675809D02*
X154186000Y-76723428D01*
X154138380Y-76818666D01*
X154138380Y-77056761D01*
X154186000Y-77152000D01*
X154233619Y-77199619D01*
X154328857Y-77247238D01*
X154424095Y-77247238D01*
X154566952Y-77199619D01*
X155138380Y-76628190D01*
X155138380Y-77247238D01*
D11*
X147113523Y-72295571D02*
X147208761Y-72581285D01*
X147208761Y-73057476D01*
X147113523Y-73247952D01*
X147018285Y-73343190D01*
X146827809Y-73438428D01*
X146637333Y-73438428D01*
X146446857Y-73343190D01*
X146351619Y-73247952D01*
X146256380Y-73057476D01*
X146161142Y-72676523D01*
X146065904Y-72486047D01*
X145970666Y-72390809D01*
X145780190Y-72295571D01*
X145589714Y-72295571D01*
X145399238Y-72390809D01*
X145304000Y-72486047D01*
X145208761Y-72676523D01*
X145208761Y-73152714D01*
X145304000Y-73438428D01*
X145875428Y-74105095D02*
X147208761Y-74581285D01*
X145875428Y-75057476D02*
X147208761Y-74581285D01*
X147684952Y-74390809D01*
X147780190Y-74295571D01*
X147875428Y-74105095D01*
X145875428Y-76676523D02*
X147494476Y-76676523D01*
X147684952Y-76581285D01*
X147780190Y-76486047D01*
X147875428Y-76295571D01*
X147875428Y-76009857D01*
X147780190Y-75819380D01*
X147113523Y-76676523D02*
X147208761Y-76486047D01*
X147208761Y-76105095D01*
X147113523Y-75914619D01*
X147018285Y-75819380D01*
X146827809Y-75724142D01*
X146256380Y-75724142D01*
X146065904Y-75819380D01*
X145970666Y-75914619D01*
X145875428Y-76105095D01*
X145875428Y-76486047D01*
X145970666Y-76676523D01*
X147113523Y-78390809D02*
X147208761Y-78200333D01*
X147208761Y-77819380D01*
X147113523Y-77628904D01*
X146923047Y-77533666D01*
X146161142Y-77533666D01*
X145970666Y-77628904D01*
X145875428Y-77819380D01*
X145875428Y-78200333D01*
X145970666Y-78390809D01*
X146161142Y-78486047D01*
X146351619Y-78486047D01*
X146542095Y-77533666D01*
X147113523Y-80200333D02*
X147208761Y-80009857D01*
X147208761Y-79628904D01*
X147113523Y-79438428D01*
X147018285Y-79343190D01*
X146827809Y-79247952D01*
X146256380Y-79247952D01*
X146065904Y-79343190D01*
X145970666Y-79438428D01*
X145875428Y-79628904D01*
X145875428Y-80009857D01*
X145970666Y-80200333D01*
X147208761Y-81343190D02*
X147113523Y-81152714D01*
X147018285Y-81057476D01*
X146827809Y-80962238D01*
X146256380Y-80962238D01*
X146065904Y-81057476D01*
X145970666Y-81152714D01*
X145875428Y-81343190D01*
X145875428Y-81628904D01*
X145970666Y-81819380D01*
X146065904Y-81914619D01*
X146256380Y-82009857D01*
X146827809Y-82009857D01*
X147018285Y-81914619D01*
X147113523Y-81819380D01*
X147208761Y-81628904D01*
X147208761Y-81343190D01*
X147208761Y-85438428D02*
X147208761Y-84295571D01*
X147208761Y-84867000D02*
X145208761Y-84867000D01*
X145494476Y-84676523D01*
X145684952Y-84486047D01*
X145780190Y-84295571D01*
D12*
%TO.C,R2*%
X153818000Y-113344936D02*
X153818000Y-114799064D01*
X151998000Y-113344936D02*
X151998000Y-114799064D01*
%TO.C,R1*%
X131720000Y-121192936D02*
X131720000Y-122647064D01*
X129900000Y-121192936D02*
X129900000Y-122647064D01*
%TO.C,C1*%
X134455248Y-108310000D02*
X135877752Y-108310000D01*
X134455248Y-110130000D02*
X135877752Y-110130000D01*
%TO.C,R3*%
X146549064Y-105770000D02*
X145094936Y-105770000D01*
X146549064Y-107590000D02*
X145094936Y-107590000D01*
%TO.C,R4*%
X131720000Y-113572936D02*
X131720000Y-115027064D01*
X129900000Y-113572936D02*
X129900000Y-115027064D01*
%TO.C,R5*%
X142642000Y-116340936D02*
X142642000Y-117795064D01*
X140822000Y-116340936D02*
X140822000Y-117795064D01*
%TO.C,R6*%
X141118000Y-61941064D02*
X141118000Y-60486936D01*
X139298000Y-61941064D02*
X139298000Y-60486936D01*
%TO.C,R7*%
X153818000Y-106434936D02*
X153818000Y-107889064D01*
X151998000Y-106434936D02*
X151998000Y-107889064D01*
%TO.C,R8*%
X151998000Y-121192936D02*
X151998000Y-122647064D01*
X153818000Y-121192936D02*
X153818000Y-122647064D01*
%TO.C,R9*%
X144928000Y-61941064D02*
X144928000Y-60486936D01*
X143108000Y-61941064D02*
X143108000Y-60486936D01*
%TO.C,R10*%
X148378500Y-93399564D02*
X148378500Y-91945436D01*
X150198500Y-93399564D02*
X150198500Y-91945436D01*
%TO.C,R2*%
D10*
X151540380Y-113905333D02*
X151064190Y-113572000D01*
X151540380Y-113333904D02*
X150540380Y-113333904D01*
X150540380Y-113714857D01*
X150588000Y-113810095D01*
X150635619Y-113857714D01*
X150730857Y-113905333D01*
X150873714Y-113905333D01*
X150968952Y-113857714D01*
X151016571Y-113810095D01*
X151064190Y-113714857D01*
X151064190Y-113333904D01*
X150635619Y-114286285D02*
X150588000Y-114333904D01*
X150540380Y-114429142D01*
X150540380Y-114667238D01*
X150588000Y-114762476D01*
X150635619Y-114810095D01*
X150730857Y-114857714D01*
X150826095Y-114857714D01*
X150968952Y-114810095D01*
X151540380Y-114238666D01*
X151540380Y-114857714D01*
%TO.C,R1*%
X129442380Y-121753333D02*
X128966190Y-121420000D01*
X129442380Y-121181904D02*
X128442380Y-121181904D01*
X128442380Y-121562857D01*
X128490000Y-121658095D01*
X128537619Y-121705714D01*
X128632857Y-121753333D01*
X128775714Y-121753333D01*
X128870952Y-121705714D01*
X128918571Y-121658095D01*
X128966190Y-121562857D01*
X128966190Y-121181904D01*
X129442380Y-122705714D02*
X129442380Y-122134285D01*
X129442380Y-122420000D02*
X128442380Y-122420000D01*
X128585238Y-122324761D01*
X128680476Y-122229523D01*
X128728095Y-122134285D01*
%TO.C,C1*%
X135333166Y-111427142D02*
X135380785Y-111474761D01*
X135523642Y-111522380D01*
X135618880Y-111522380D01*
X135761738Y-111474761D01*
X135856976Y-111379523D01*
X135904595Y-111284285D01*
X135952214Y-111093809D01*
X135952214Y-110950952D01*
X135904595Y-110760476D01*
X135856976Y-110665238D01*
X135761738Y-110570000D01*
X135618880Y-110522380D01*
X135523642Y-110522380D01*
X135380785Y-110570000D01*
X135333166Y-110617619D01*
X134380785Y-111522380D02*
X134952214Y-111522380D01*
X134666500Y-111522380D02*
X134666500Y-110522380D01*
X134761738Y-110665238D01*
X134856976Y-110760476D01*
X134952214Y-110808095D01*
%TO.C,R3*%
X145988666Y-105312380D02*
X146322000Y-104836190D01*
X146560095Y-105312380D02*
X146560095Y-104312380D01*
X146179142Y-104312380D01*
X146083904Y-104360000D01*
X146036285Y-104407619D01*
X145988666Y-104502857D01*
X145988666Y-104645714D01*
X146036285Y-104740952D01*
X146083904Y-104788571D01*
X146179142Y-104836190D01*
X146560095Y-104836190D01*
X145655333Y-104312380D02*
X145036285Y-104312380D01*
X145369619Y-104693333D01*
X145226761Y-104693333D01*
X145131523Y-104740952D01*
X145083904Y-104788571D01*
X145036285Y-104883809D01*
X145036285Y-105121904D01*
X145083904Y-105217142D01*
X145131523Y-105264761D01*
X145226761Y-105312380D01*
X145512476Y-105312380D01*
X145607714Y-105264761D01*
X145655333Y-105217142D01*
%TO.C,R4*%
X129442380Y-114133333D02*
X128966190Y-113800000D01*
X129442380Y-113561904D02*
X128442380Y-113561904D01*
X128442380Y-113942857D01*
X128490000Y-114038095D01*
X128537619Y-114085714D01*
X128632857Y-114133333D01*
X128775714Y-114133333D01*
X128870952Y-114085714D01*
X128918571Y-114038095D01*
X128966190Y-113942857D01*
X128966190Y-113561904D01*
X128775714Y-114990476D02*
X129442380Y-114990476D01*
X128394761Y-114752380D02*
X129109047Y-114514285D01*
X129109047Y-115133333D01*
%TO.C,R5*%
X140364380Y-116901333D02*
X139888190Y-116568000D01*
X140364380Y-116329904D02*
X139364380Y-116329904D01*
X139364380Y-116710857D01*
X139412000Y-116806095D01*
X139459619Y-116853714D01*
X139554857Y-116901333D01*
X139697714Y-116901333D01*
X139792952Y-116853714D01*
X139840571Y-116806095D01*
X139888190Y-116710857D01*
X139888190Y-116329904D01*
X139364380Y-117806095D02*
X139364380Y-117329904D01*
X139840571Y-117282285D01*
X139792952Y-117329904D01*
X139745333Y-117425142D01*
X139745333Y-117663238D01*
X139792952Y-117758476D01*
X139840571Y-117806095D01*
X139935809Y-117853714D01*
X140173904Y-117853714D01*
X140269142Y-117806095D01*
X140316761Y-117758476D01*
X140364380Y-117663238D01*
X140364380Y-117425142D01*
X140316761Y-117329904D01*
X140269142Y-117282285D01*
%TO.C,R6*%
X142480380Y-61047333D02*
X142004190Y-60714000D01*
X142480380Y-60475904D02*
X141480380Y-60475904D01*
X141480380Y-60856857D01*
X141528000Y-60952095D01*
X141575619Y-60999714D01*
X141670857Y-61047333D01*
X141813714Y-61047333D01*
X141908952Y-60999714D01*
X141956571Y-60952095D01*
X142004190Y-60856857D01*
X142004190Y-60475904D01*
X141480380Y-61904476D02*
X141480380Y-61714000D01*
X141528000Y-61618761D01*
X141575619Y-61571142D01*
X141718476Y-61475904D01*
X141908952Y-61428285D01*
X142289904Y-61428285D01*
X142385142Y-61475904D01*
X142432761Y-61523523D01*
X142480380Y-61618761D01*
X142480380Y-61809238D01*
X142432761Y-61904476D01*
X142385142Y-61952095D01*
X142289904Y-61999714D01*
X142051809Y-61999714D01*
X141956571Y-61952095D01*
X141908952Y-61904476D01*
X141861333Y-61809238D01*
X141861333Y-61618761D01*
X141908952Y-61523523D01*
X141956571Y-61475904D01*
X142051809Y-61428285D01*
%TO.C,R7*%
X151540380Y-106995333D02*
X151064190Y-106662000D01*
X151540380Y-106423904D02*
X150540380Y-106423904D01*
X150540380Y-106804857D01*
X150588000Y-106900095D01*
X150635619Y-106947714D01*
X150730857Y-106995333D01*
X150873714Y-106995333D01*
X150968952Y-106947714D01*
X151016571Y-106900095D01*
X151064190Y-106804857D01*
X151064190Y-106423904D01*
X150540380Y-107328666D02*
X150540380Y-107995333D01*
X151540380Y-107566761D01*
%TO.C,R8*%
X151540380Y-121753333D02*
X151064190Y-121420000D01*
X151540380Y-121181904D02*
X150540380Y-121181904D01*
X150540380Y-121562857D01*
X150588000Y-121658095D01*
X150635619Y-121705714D01*
X150730857Y-121753333D01*
X150873714Y-121753333D01*
X150968952Y-121705714D01*
X151016571Y-121658095D01*
X151064190Y-121562857D01*
X151064190Y-121181904D01*
X150968952Y-122324761D02*
X150921333Y-122229523D01*
X150873714Y-122181904D01*
X150778476Y-122134285D01*
X150730857Y-122134285D01*
X150635619Y-122181904D01*
X150588000Y-122229523D01*
X150540380Y-122324761D01*
X150540380Y-122515238D01*
X150588000Y-122610476D01*
X150635619Y-122658095D01*
X150730857Y-122705714D01*
X150778476Y-122705714D01*
X150873714Y-122658095D01*
X150921333Y-122610476D01*
X150968952Y-122515238D01*
X150968952Y-122324761D01*
X151016571Y-122229523D01*
X151064190Y-122181904D01*
X151159428Y-122134285D01*
X151349904Y-122134285D01*
X151445142Y-122181904D01*
X151492761Y-122229523D01*
X151540380Y-122324761D01*
X151540380Y-122515238D01*
X151492761Y-122610476D01*
X151445142Y-122658095D01*
X151349904Y-122705714D01*
X151159428Y-122705714D01*
X151064190Y-122658095D01*
X151016571Y-122610476D01*
X150968952Y-122515238D01*
%TO.C,R9*%
X146290380Y-61047333D02*
X145814190Y-60714000D01*
X146290380Y-60475904D02*
X145290380Y-60475904D01*
X145290380Y-60856857D01*
X145338000Y-60952095D01*
X145385619Y-60999714D01*
X145480857Y-61047333D01*
X145623714Y-61047333D01*
X145718952Y-60999714D01*
X145766571Y-60952095D01*
X145814190Y-60856857D01*
X145814190Y-60475904D01*
X146290380Y-61523523D02*
X146290380Y-61714000D01*
X146242761Y-61809238D01*
X146195142Y-61856857D01*
X146052285Y-61952095D01*
X145861809Y-61999714D01*
X145480857Y-61999714D01*
X145385619Y-61952095D01*
X145338000Y-61904476D01*
X145290380Y-61809238D01*
X145290380Y-61618761D01*
X145338000Y-61523523D01*
X145385619Y-61475904D01*
X145480857Y-61428285D01*
X145718952Y-61428285D01*
X145814190Y-61475904D01*
X145861809Y-61523523D01*
X145909428Y-61618761D01*
X145909428Y-61809238D01*
X145861809Y-61904476D01*
X145814190Y-61952095D01*
X145718952Y-61999714D01*
%TO.C,R10*%
X151560880Y-92029642D02*
X151084690Y-91696309D01*
X151560880Y-91458214D02*
X150560880Y-91458214D01*
X150560880Y-91839166D01*
X150608500Y-91934404D01*
X150656119Y-91982023D01*
X150751357Y-92029642D01*
X150894214Y-92029642D01*
X150989452Y-91982023D01*
X151037071Y-91934404D01*
X151084690Y-91839166D01*
X151084690Y-91458214D01*
X151560880Y-92982023D02*
X151560880Y-92410595D01*
X151560880Y-92696309D02*
X150560880Y-92696309D01*
X150703738Y-92601071D01*
X150798976Y-92505833D01*
X150846595Y-92410595D01*
X150560880Y-93601071D02*
X150560880Y-93696309D01*
X150608500Y-93791547D01*
X150656119Y-93839166D01*
X150751357Y-93886785D01*
X150941833Y-93934404D01*
X151179928Y-93934404D01*
X151370404Y-93886785D01*
X151465642Y-93839166D01*
X151513261Y-93791547D01*
X151560880Y-93696309D01*
X151560880Y-93601071D01*
X151513261Y-93505833D01*
X151465642Y-93458214D01*
X151370404Y-93410595D01*
X151179928Y-93362976D01*
X150941833Y-93362976D01*
X150751357Y-93410595D01*
X150656119Y-93458214D01*
X150608500Y-93505833D01*
X150560880Y-93601071D01*
%TD*%
M02*
