%TF.GenerationSoftware,KiCad,Pcbnew,6.0.9*%
%TF.CreationDate,2023-02-22T15:13:05+01:00*%
%TF.ProjectId,sygeco1,73796765-636f-4312-9e6b-696361645f70,1.0*%
%TF.SameCoordinates,Original*%
%TF.FileFunction,Copper,L2,Bot*%
%TF.FilePolarity,Positive*%
%FSLAX46Y46*%
G04 Gerber Fmt 4.6, Leading zero omitted, Abs format (unit mm)*
G04 Created by KiCad (PCBNEW 6.0.9) date 2023-02-22 15:13:05*
%MOMM*%
%LPD*%
G01*
G04 APERTURE LIST*
G04 Aperture macros list*
%AMRoundRect*
0 Rectangle with rounded corners*
0 $1 Rounding radius*
0 $2 $3 $4 $5 $6 $7 $8 $9 X,Y pos of 4 corners*
0 Add a 4 corners polygon primitive as box body*
4,1,4,$2,$3,$4,$5,$6,$7,$8,$9,$2,$3,0*
0 Add four circle primitives for the rounded corners*
1,1,$1+$1,$2,$3*
1,1,$1+$1,$4,$5*
1,1,$1+$1,$6,$7*
1,1,$1+$1,$8,$9*
0 Add four rect primitives between the rounded corners*
20,1,$1+$1,$2,$3,$4,$5,0*
20,1,$1+$1,$4,$5,$6,$7,0*
20,1,$1+$1,$6,$7,$8,$9,0*
20,1,$1+$1,$8,$9,$2,$3,0*%
G04 Aperture macros list end*
%TA.AperFunction,ComponentPad*%
%ADD10C,1.524000*%
%TD*%
%TA.AperFunction,ComponentPad*%
%ADD11R,1.700000X1.700000*%
%TD*%
%TA.AperFunction,ComponentPad*%
%ADD12O,1.700000X1.700000*%
%TD*%
%TA.AperFunction,ComponentPad*%
%ADD13R,1.600000X1.600000*%
%TD*%
%TA.AperFunction,ComponentPad*%
%ADD14C,1.600000*%
%TD*%
%TA.AperFunction,ComponentPad*%
%ADD15C,1.800000*%
%TD*%
%TA.AperFunction,ComponentPad*%
%ADD16C,1.500000*%
%TD*%
%TA.AperFunction,ComponentPad*%
%ADD17C,3.500000*%
%TD*%
%TA.AperFunction,ComponentPad*%
%ADD18R,2.500000X2.500000*%
%TD*%
%TA.AperFunction,ComponentPad*%
%ADD19RoundRect,0.550000X-0.550000X-0.550000X0.550000X-0.550000X0.550000X0.550000X-0.550000X0.550000X0*%
%TD*%
%TA.AperFunction,ComponentPad*%
%ADD20O,1.600000X1.600000*%
%TD*%
%TA.AperFunction,SMDPad,CuDef*%
%ADD21RoundRect,0.249999X0.400001X0.625001X-0.400001X0.625001X-0.400001X-0.625001X0.400001X-0.625001X0*%
%TD*%
%TA.AperFunction,SMDPad,CuDef*%
%ADD22RoundRect,0.249999X-0.625001X0.400001X-0.625001X-0.400001X0.625001X-0.400001X0.625001X0.400001X0*%
%TD*%
%TA.AperFunction,SMDPad,CuDef*%
%ADD23RoundRect,0.249997X-0.412503X-0.650003X0.412503X-0.650003X0.412503X0.650003X-0.412503X0.650003X0*%
%TD*%
%TA.AperFunction,SMDPad,CuDef*%
%ADD24RoundRect,0.249999X0.625001X-0.400001X0.625001X0.400001X-0.625001X0.400001X-0.625001X-0.400001X0*%
%TD*%
%TA.AperFunction,SMDPad,CuDef*%
%ADD25RoundRect,0.249999X-0.400001X-0.625001X0.400001X-0.625001X0.400001X0.625001X-0.400001X0.625001X0*%
%TD*%
%TA.AperFunction,ViaPad*%
%ADD26C,0.800000*%
%TD*%
%TA.AperFunction,Conductor*%
%ADD27C,0.250000*%
%TD*%
G04 APERTURE END LIST*
D10*
%TO.P,SW1,1,A*%
%TO.N,unconnected-(SW1-Pad1)*%
X130954000Y-62690000D03*
%TO.P,SW1,2,B*%
%TO.N,Net-(BT1-Pad1)*%
X130954000Y-60690000D03*
%TO.P,SW1,3,C*%
%TO.N,VCC*%
X130954000Y-58690000D03*
%TO.P,SW1,4,A*%
%TO.N,unconnected-(SW1-Pad4)*%
X135954000Y-62690000D03*
%TO.P,SW1,5,B*%
%TO.N,Net-(BT1-Pad1)*%
X135954000Y-60690000D03*
%TO.P,SW1,6,C*%
%TO.N,VCC*%
X135954000Y-58690000D03*
%TD*%
%TO.P,SW2,1,A*%
%TO.N,unconnected-(SW2-Pad1)*%
X148734000Y-62690000D03*
%TO.P,SW2,2,B*%
%TO.N,VCC*%
X148734000Y-60690000D03*
%TO.P,SW2,3,C*%
%TO.N,Net-(R9-Pad1)*%
X148734000Y-58690000D03*
%TO.P,SW2,4,A*%
%TO.N,unconnected-(SW2-Pad4)*%
X153734000Y-62690000D03*
%TO.P,SW2,5,B*%
%TO.N,Net-(SW2-Pad5)*%
X153734000Y-60690000D03*
%TO.P,SW2,6,C*%
%TO.N,Net-(R10-Pad2)*%
X153734000Y-58690000D03*
%TD*%
D11*
%TO.P,J1,1,SDA*%
%TO.N,SDA*%
X146354800Y-69138800D03*
D12*
%TO.P,J1,2,SCL*%
%TO.N,SCL*%
X143814800Y-69138800D03*
%TO.P,J1,3,Vcc*%
%TO.N,VCC*%
X141274800Y-69138800D03*
%TO.P,J1,4,GND*%
%TO.N,GND*%
X138734800Y-69138800D03*
%TD*%
D13*
%TO.P,LS1,1,1*%
%TO.N,Net-(LS1-Pad1)*%
X152908000Y-102108000D03*
D14*
%TO.P,LS1,2,2*%
%TO.N,GND*%
X146408000Y-102108000D03*
%TD*%
D15*
%TO.P,S1,1,A*%
%TO.N,Net-(R1-Pad2)*%
X136906000Y-114046000D03*
D16*
%TO.P,S1,2,B*%
%TO.N,Net-(R8-Pad2)*%
X136906000Y-117746000D03*
D15*
%TO.P,S1,3,C*%
%TO.N,Net-(R5-Pad2)*%
X136906000Y-120546000D03*
%TO.P,S1,4,Com*%
%TO.N,GND*%
X147206000Y-120546000D03*
D16*
%TO.P,S1,5,D*%
%TO.N,Net-(R2-Pad2)*%
X147206000Y-117746000D03*
D15*
%TO.P,S1,6,Center*%
%TO.N,Button*%
X147206000Y-114046000D03*
%TD*%
D11*
%TO.P,J2,1,MISO*%
%TO.N,Button*%
X133096000Y-75184000D03*
D12*
%TO.P,J2,2,VCC*%
%TO.N,VCC*%
X130556000Y-75184000D03*
%TO.P,J2,3,SCK*%
%TO.N,SCL*%
X133096000Y-72644000D03*
%TO.P,J2,4,MOSI*%
%TO.N,SDA*%
X130556000Y-72644000D03*
%TO.P,J2,5,~{RST}*%
%TO.N,PAD_AXIS_1*%
X133096000Y-70104000D03*
%TO.P,J2,6,GND*%
%TO.N,GND*%
X130556000Y-70104000D03*
%TD*%
D17*
%TO.P,H1,1*%
%TO.N,N/C*%
X130556000Y-93218000D03*
%TD*%
%TO.P,H2,1*%
%TO.N,N/C*%
X154178000Y-93218000D03*
%TD*%
D18*
%TO.P,BT1,1,+*%
%TO.N,Net-(BT1-Pad1)*%
X133040000Y-83770000D03*
D19*
%TO.P,BT1,2,-*%
%TO.N,GND*%
X153040000Y-83770000D03*
%TD*%
D13*
%TO.P,U1,1,~{RESET}/PB5*%
%TO.N,PAD_AXIS_1*%
X131064000Y-97536000D03*
D20*
%TO.P,U1,2,XTAL1/PB3*%
%TO.N,PAD_AXIS_2*%
X131064000Y-100076000D03*
%TO.P,U1,3,XTAL2/PB4*%
%TO.N,Net-(SW2-Pad5)*%
X131064000Y-102616000D03*
%TO.P,U1,4,GND*%
%TO.N,GND*%
X131064000Y-105156000D03*
%TO.P,U1,5,AREF/PB0*%
%TO.N,SDA*%
X138684000Y-105156000D03*
%TO.P,U1,6,PB1*%
%TO.N,Button*%
X138684000Y-102616000D03*
%TO.P,U1,7,PB2*%
%TO.N,SCL*%
X138684000Y-100076000D03*
%TO.P,U1,8,VCC*%
%TO.N,VCC*%
X138684000Y-97536000D03*
%TD*%
D21*
%TO.P,R3,1*%
%TO.N,VCC*%
X147372000Y-106680000D03*
%TO.P,R3,2*%
%TO.N,Button*%
X144272000Y-106680000D03*
%TD*%
D22*
%TO.P,R4,1*%
%TO.N,VCC*%
X129794000Y-109448000D03*
%TO.P,R4,2*%
%TO.N,PAD_AXIS_2*%
X129794000Y-112548000D03*
%TD*%
%TO.P,R5,1*%
%TO.N,PAD_AXIS_2*%
X141732000Y-115518000D03*
%TO.P,R5,2*%
%TO.N,Net-(R5-Pad2)*%
X141732000Y-118618000D03*
%TD*%
D23*
%TO.P,C1,1*%
%TO.N,VCC*%
X133604000Y-109220000D03*
%TO.P,C1,2*%
%TO.N,GND*%
X136729000Y-109220000D03*
%TD*%
D24*
%TO.P,R6,1*%
%TO.N,VCC*%
X140208000Y-62764000D03*
%TO.P,R6,2*%
%TO.N,Net-(D1-Pad2)*%
X140208000Y-59664000D03*
%TD*%
D21*
%TO.P,R8,1*%
%TO.N,PAD_AXIS_1*%
X145060000Y-124460000D03*
%TO.P,R8,2*%
%TO.N,Net-(R8-Pad2)*%
X141960000Y-124460000D03*
%TD*%
D25*
%TO.P,R1,1*%
%TO.N,PAD_AXIS_2*%
X129006000Y-116586000D03*
%TO.P,R1,2*%
%TO.N,Net-(R1-Pad2)*%
X132106000Y-116586000D03*
%TD*%
D22*
%TO.P,R7,1*%
%TO.N,VCC*%
X152908000Y-105612000D03*
%TO.P,R7,2*%
%TO.N,PAD_AXIS_1*%
X152908000Y-108712000D03*
%TD*%
%TO.P,R2,1*%
%TO.N,PAD_AXIS_1*%
X152908000Y-112522000D03*
%TO.P,R2,2*%
%TO.N,Net-(R2-Pad2)*%
X152908000Y-115622000D03*
%TD*%
D24*
%TO.P,R9,1*%
%TO.N,Net-(R9-Pad1)*%
X144018000Y-62764000D03*
%TO.P,R9,2*%
%TO.N,Net-(D2-Pad2)*%
X144018000Y-59664000D03*
%TD*%
%TO.P,R10,1*%
%TO.N,Net-(LS1-Pad1)*%
X149288500Y-94222500D03*
%TO.P,R10,2*%
%TO.N,Net-(R10-Pad2)*%
X149288500Y-91122500D03*
%TD*%
D26*
%TO.N,GND*%
X149606000Y-66548000D03*
X139954000Y-109220000D03*
X132765800Y-96037400D03*
%TO.N,SDA*%
X138176000Y-80645000D03*
X138582400Y-108000800D03*
%TO.N,SCL*%
X140716000Y-72644000D03*
%TO.N,VCC*%
X136626600Y-105664000D03*
X140208000Y-77724000D03*
X136762800Y-101888600D03*
X149758400Y-99974400D03*
%TO.N,Button*%
X143764000Y-75184000D03*
%TO.N,Net-(D1-Pad2)*%
X140208000Y-56642000D03*
%TO.N,PAD_AXIS_1*%
X130048000Y-67564000D03*
X152908000Y-110540800D03*
%TO.N,PAD_AXIS_2*%
X131825400Y-112548000D03*
%TO.N,Net-(SW2-Pad5)*%
X136601200Y-87172800D03*
X134222800Y-95444000D03*
%TO.N,Net-(D2-Pad2)*%
X144018000Y-56642000D03*
%TD*%
D27*
%TO.N,Net-(BT1-Pad1)*%
X133239000Y-60817000D02*
X133112000Y-60690000D01*
X133239000Y-61611000D02*
X133239000Y-60817000D01*
X135636000Y-67056000D02*
X133239000Y-64659000D01*
X135636000Y-79248000D02*
X135636000Y-67056000D01*
X133040000Y-83770000D02*
X133040000Y-81844000D01*
X135954000Y-60690000D02*
X133112000Y-60690000D01*
X133112000Y-60690000D02*
X130954000Y-60690000D01*
X133239000Y-64659000D02*
X133239000Y-61611000D01*
X133040000Y-81844000D02*
X135636000Y-79248000D01*
%TO.N,GND*%
X139954000Y-109220000D02*
X144272000Y-113538000D01*
X136729000Y-109220000D02*
X139954000Y-109220000D01*
X149606000Y-81407000D02*
X149606000Y-83820000D01*
X149656000Y-83770000D02*
X149606000Y-83820000D01*
X144272000Y-113538000D02*
X144272000Y-119380000D01*
X129286000Y-105156000D02*
X131064000Y-105156000D01*
X128320800Y-104190800D02*
X129286000Y-105156000D01*
X146408000Y-87780000D02*
X146408000Y-102108000D01*
X149606000Y-84582000D02*
X149606000Y-81407000D01*
X152790000Y-83770000D02*
X149656000Y-83770000D01*
X128828800Y-95707200D02*
X128320800Y-96215200D01*
X146939000Y-87249000D02*
X146408000Y-87780000D01*
X145438000Y-120546000D02*
X147206000Y-120546000D01*
X149606000Y-66548000D02*
X149606000Y-80336000D01*
X149606000Y-80336000D02*
X149606000Y-81407000D01*
X132765800Y-96037400D02*
X132435600Y-95707200D01*
X146431000Y-87757000D02*
X146939000Y-87249000D01*
X132435600Y-95707200D02*
X128828800Y-95707200D01*
X144272000Y-119380000D02*
X145438000Y-120546000D01*
X146939000Y-87249000D02*
X149606000Y-84582000D01*
X128320800Y-96215200D02*
X128320800Y-104190800D01*
X149606000Y-83820000D02*
X149606000Y-84455000D01*
%TO.N,SDA*%
X135255000Y-86233000D02*
X130746500Y-86233000D01*
X135636000Y-103124000D02*
X137668000Y-105156000D01*
X130746500Y-86233000D02*
X129921000Y-85407500D01*
X138176000Y-80645000D02*
X138176000Y-85280500D01*
X138176000Y-85280500D02*
X136207500Y-85280500D01*
X138176000Y-94589600D02*
X135636000Y-97129600D01*
X129921000Y-85407500D02*
X129921000Y-80645000D01*
X137668000Y-105156000D02*
X138684000Y-105156000D01*
X135636000Y-97129600D02*
X135636000Y-103124000D01*
X128016000Y-72644000D02*
X128016000Y-78740000D01*
X136207500Y-85280500D02*
X135255000Y-86233000D01*
X128016000Y-78740000D02*
X129921000Y-80645000D01*
X130556000Y-72644000D02*
X128016000Y-72644000D01*
X138684000Y-107899200D02*
X138684000Y-105156000D01*
X138176000Y-85280500D02*
X138176000Y-94589600D01*
X138582400Y-108000800D02*
X138684000Y-107899200D01*
%TO.N,SCL*%
X141732000Y-73660000D02*
X141732000Y-98552000D01*
X140208000Y-100076000D02*
X138684000Y-100076000D01*
X140716000Y-72644000D02*
X141732000Y-73660000D01*
X141732000Y-98552000D02*
X140208000Y-100076000D01*
%TO.N,VCC*%
X149860000Y-106680000D02*
X151840000Y-106680000D01*
X149580600Y-106680000D02*
X149860000Y-106680000D01*
X140716000Y-67056000D02*
X138811000Y-65151000D01*
X145288000Y-64770000D02*
X146558000Y-63500000D01*
X138366500Y-74168000D02*
X138366500Y-72707500D01*
X137668000Y-62738000D02*
X137668000Y-64008000D01*
X140208000Y-77724000D02*
X140208000Y-76009500D01*
X137668000Y-64008000D02*
X138811000Y-65151000D01*
X141274800Y-67614800D02*
X140716000Y-67056000D01*
X129794000Y-109448000D02*
X133376000Y-109448000D01*
X140208000Y-62764000D02*
X140208000Y-62992000D01*
X133604000Y-109220000D02*
X133604000Y-108686600D01*
X138366500Y-72707500D02*
X141274800Y-69799200D01*
X137430000Y-58690000D02*
X137668000Y-58928000D01*
X149758400Y-99974400D02*
X149758400Y-106502200D01*
X137668000Y-58928000D02*
X137668000Y-60706000D01*
X136762800Y-98111000D02*
X137337800Y-97536000D01*
X141274800Y-69138800D02*
X141274800Y-67614800D01*
X136762800Y-101888600D02*
X136762800Y-98111000D01*
X141986000Y-64770000D02*
X145288000Y-64770000D01*
X141274800Y-69799200D02*
X141274800Y-69138800D01*
X130954000Y-58690000D02*
X135954000Y-58690000D01*
X138684000Y-96520000D02*
X140208000Y-94996000D01*
X140208000Y-94996000D02*
X140208000Y-80772000D01*
X140208000Y-76009500D02*
X138366500Y-74168000D01*
X135954000Y-58690000D02*
X137430000Y-58690000D01*
X146558000Y-63500000D02*
X146558000Y-62484000D01*
X148352000Y-60690000D02*
X148734000Y-60690000D01*
X137668000Y-60706000D02*
X137668000Y-62738000D01*
X151840000Y-106680000D02*
X152908000Y-105612000D01*
X140208000Y-62764000D02*
X137694000Y-62764000D01*
X149758400Y-106502200D02*
X149580600Y-106680000D01*
X133604000Y-108686600D02*
X136626600Y-105664000D01*
X138684000Y-97536000D02*
X138684000Y-96520000D01*
X146558000Y-62484000D02*
X148352000Y-60690000D01*
X137337800Y-97536000D02*
X138684000Y-97536000D01*
X137694000Y-62764000D02*
X137668000Y-62738000D01*
X140208000Y-62992000D02*
X141986000Y-64770000D01*
X133376000Y-109448000D02*
X133604000Y-109220000D01*
X147372000Y-106680000D02*
X149580600Y-106680000D01*
X140208000Y-80772000D02*
X140208000Y-77724000D01*
%TO.N,Net-(LS1-Pad1)*%
X152908000Y-102108000D02*
X152908000Y-99631500D01*
X152908000Y-99631500D02*
X149288500Y-96012000D01*
X149288500Y-96012000D02*
X149288500Y-94222500D01*
%TO.N,Net-(R2-Pad2)*%
X152908000Y-115622000D02*
X149330000Y-115622000D01*
X149330000Y-115622000D02*
X147206000Y-117746000D01*
%TO.N,Button*%
X142432500Y-102677500D02*
X142494000Y-102616000D01*
X142432500Y-109272500D02*
X142432500Y-106741500D01*
X147206000Y-114046000D02*
X142432500Y-109272500D01*
X143764000Y-101346000D02*
X142494000Y-102616000D01*
X142494000Y-106680000D02*
X142432500Y-106741500D01*
X143764000Y-75184000D02*
X143764000Y-101346000D01*
X144272000Y-106680000D02*
X142494000Y-106680000D01*
X141224000Y-102616000D02*
X138684000Y-102616000D01*
X142432500Y-106741500D02*
X142432500Y-106589100D01*
X142432500Y-106589100D02*
X142432500Y-102677500D01*
X142494000Y-102616000D02*
X141224000Y-102616000D01*
%TO.N,Net-(R5-Pad2)*%
X136906000Y-120546000D02*
X139804000Y-120546000D01*
X139804000Y-120546000D02*
X141732000Y-118618000D01*
%TO.N,Net-(D1-Pad2)*%
X140208000Y-59690000D02*
X141224000Y-58674000D01*
X141224000Y-57658000D02*
X140208000Y-56642000D01*
X141224000Y-58674000D02*
X141224000Y-57658000D01*
%TO.N,PAD_AXIS_1*%
X133096000Y-70104000D02*
X133096000Y-68072000D01*
X152908000Y-112522000D02*
X153924000Y-112522000D01*
X152908000Y-108712000D02*
X152908000Y-110540800D01*
X132588000Y-67564000D02*
X130048000Y-67564000D01*
X152908000Y-110540800D02*
X152908000Y-112522000D01*
X155702000Y-118618000D02*
X155702000Y-116205000D01*
X133096000Y-68072000D02*
X132588000Y-67564000D01*
X145060000Y-124460000D02*
X149860000Y-124460000D01*
X153924000Y-112522000D02*
X155702000Y-114300000D01*
X149860000Y-124460000D02*
X155702000Y-118618000D01*
X155702000Y-116205000D02*
X155702000Y-114300000D01*
%TO.N,PAD_AXIS_2*%
X129794000Y-112548000D02*
X131825400Y-112548000D01*
X129006000Y-113336000D02*
X129794000Y-112548000D01*
X136144000Y-111760000D02*
X139192000Y-111760000D01*
X139192000Y-111760000D02*
X141732000Y-114300000D01*
X131825400Y-112548000D02*
X135356000Y-112548000D01*
X129006000Y-116586000D02*
X129006000Y-113336000D01*
X141732000Y-114300000D02*
X141732000Y-115518000D01*
X135356000Y-112548000D02*
X136144000Y-111760000D01*
%TO.N,Net-(R1-Pad2)*%
X134366000Y-116586000D02*
X135763000Y-115189000D01*
X135763000Y-115189000D02*
X136906000Y-114046000D01*
X132106000Y-116586000D02*
X134366000Y-116586000D01*
%TO.N,Net-(R8-Pad2)*%
X136906000Y-117746000D02*
X135238000Y-117746000D01*
X141960000Y-124460000D02*
X136017000Y-124460000D01*
X136017000Y-124460000D02*
X134874000Y-123317000D01*
X135238000Y-117746000D02*
X134874000Y-118110000D01*
X134874000Y-118110000D02*
X134874000Y-123317000D01*
%TO.N,Net-(SW2-Pad5)*%
X134222800Y-101489200D02*
X134222800Y-95444000D01*
X133096000Y-102616000D02*
X134222800Y-101489200D01*
X136601200Y-93065600D02*
X136601200Y-92760800D01*
X134222800Y-95444000D02*
X136601200Y-93065600D01*
X131064000Y-102616000D02*
X133096000Y-102616000D01*
X136601200Y-87172800D02*
X136601200Y-92760800D01*
%TO.N,Net-(D2-Pad2)*%
X143764000Y-59690000D02*
X143002000Y-58928000D01*
X143002000Y-58928000D02*
X143002000Y-57658000D01*
X143002000Y-57658000D02*
X144018000Y-56642000D01*
X144018000Y-59690000D02*
X143764000Y-59690000D01*
%TO.N,Net-(R9-Pad1)*%
X144018000Y-62764000D02*
X144018000Y-62738000D01*
X148066000Y-58690000D02*
X148734000Y-58690000D01*
X144018000Y-62738000D02*
X148066000Y-58690000D01*
%TO.N,Net-(R10-Pad2)*%
X149288500Y-91122500D02*
X149288500Y-90106500D01*
X152654000Y-67183000D02*
X150495000Y-65024000D01*
X149288500Y-90106500D02*
X152781000Y-86614000D01*
X155702000Y-85598000D02*
X155702000Y-81788000D01*
X152654000Y-80264000D02*
X152654000Y-67183000D01*
X155702000Y-81788000D02*
X155067000Y-81153000D01*
X155067000Y-81153000D02*
X153543000Y-81153000D01*
X152781000Y-86614000D02*
X154686000Y-86614000D01*
X153543000Y-81153000D02*
X152654000Y-80264000D01*
X150495000Y-65024000D02*
X150495000Y-61087000D01*
X150495000Y-61087000D02*
X152892000Y-58690000D01*
X154686000Y-86614000D02*
X155702000Y-85598000D01*
X152892000Y-58690000D02*
X153734000Y-58690000D01*
%TD*%
M02*
