%TF.GenerationSoftware,KiCad,Pcbnew,5.1.9*%
%TF.CreationDate,2021-02-18T20:56:02+01:00*%
%TF.ProjectId,sygeco1,73796765-636f-4312-9e6b-696361645f70,0.2*%
%TF.SameCoordinates,Original*%
%TF.FileFunction,Copper,L1,Top*%
%TF.FilePolarity,Positive*%
%FSLAX46Y46*%
G04 Gerber Fmt 4.6, Leading zero omitted, Abs format (unit mm)*
G04 Created by KiCad (PCBNEW 5.1.9) date 2021-02-18 20:56:02*
%MOMM*%
%LPD*%
G01*
G04 APERTURE LIST*
%TA.AperFunction,ComponentPad*%
%ADD10R,2.500000X2.500000*%
%TD*%
%TA.AperFunction,ComponentPad*%
%ADD11C,1.800000*%
%TD*%
%TA.AperFunction,ComponentPad*%
%ADD12C,1.500000*%
%TD*%
%TA.AperFunction,ComponentPad*%
%ADD13C,1.524000*%
%TD*%
%TA.AperFunction,ComponentPad*%
%ADD14O,1.700000X1.700000*%
%TD*%
%TA.AperFunction,ComponentPad*%
%ADD15R,1.700000X1.700000*%
%TD*%
%TA.AperFunction,ComponentPad*%
%ADD16C,1.600000*%
%TD*%
%TA.AperFunction,ComponentPad*%
%ADD17R,1.600000X1.600000*%
%TD*%
%TA.AperFunction,ComponentPad*%
%ADD18O,2.400000X1.600000*%
%TD*%
%TA.AperFunction,ComponentPad*%
%ADD19R,2.400000X1.600000*%
%TD*%
%TA.AperFunction,ComponentPad*%
%ADD20C,3.500000*%
%TD*%
%TA.AperFunction,ViaPad*%
%ADD21C,0.800000*%
%TD*%
%TA.AperFunction,Conductor*%
%ADD22C,0.250000*%
%TD*%
G04 APERTURE END LIST*
%TO.P,BT1,2*%
%TO.N,GND*%
%TA.AperFunction,ComponentPad*%
G36*
G01*
X151940000Y-84320000D02*
X151940000Y-83220000D01*
G75*
G02*
X152490000Y-82670000I550000J0D01*
G01*
X153590000Y-82670000D01*
G75*
G02*
X154140000Y-83220000I0J-550000D01*
G01*
X154140000Y-84320000D01*
G75*
G02*
X153590000Y-84870000I-550000J0D01*
G01*
X152490000Y-84870000D01*
G75*
G02*
X151940000Y-84320000I0J550000D01*
G01*
G37*
%TD.AperFunction*%
D10*
%TO.P,BT1,1*%
%TO.N,Net-(BT1-Pad1)*%
X133040000Y-83770000D03*
%TD*%
D11*
%TO.P,S1,1*%
%TO.N,Net-(R1-Pad2)*%
X136906000Y-114046000D03*
D12*
%TO.P,S1,2*%
%TO.N,Net-(R8-Pad2)*%
X136906000Y-117746000D03*
D11*
%TO.P,S1,3*%
%TO.N,Net-(R5-Pad2)*%
X136906000Y-120546000D03*
%TO.P,S1,4*%
%TO.N,GND*%
X147206000Y-120546000D03*
D12*
%TO.P,S1,5*%
%TO.N,Net-(R2-Pad2)*%
X147206000Y-117746000D03*
D11*
%TO.P,S1,6*%
%TO.N,Button*%
X147206000Y-114046000D03*
%TD*%
D13*
%TO.P,SW1,6*%
%TO.N,VCC*%
X135700000Y-59325000D03*
%TO.P,SW1,5*%
%TO.N,Net-(BT1-Pad1)*%
X135700000Y-61325000D03*
%TO.P,SW1,4*%
%TO.N,Net-(SW1-Pad4)*%
X135700000Y-63325000D03*
%TO.P,SW1,3*%
%TO.N,VCC*%
X130700000Y-59325000D03*
%TO.P,SW1,2*%
%TO.N,Net-(BT1-Pad1)*%
X130700000Y-61325000D03*
%TO.P,SW1,1*%
%TO.N,Net-(SW1-Pad1)*%
X130700000Y-63325000D03*
%TD*%
D14*
%TO.P,J1,4*%
%TO.N,GND*%
X138734800Y-69138800D03*
%TO.P,J1,3*%
%TO.N,VCC*%
X141274800Y-69138800D03*
%TO.P,J1,2*%
%TO.N,SCL*%
X143814800Y-69138800D03*
D15*
%TO.P,J1,1*%
%TO.N,SDA*%
X146354800Y-69138800D03*
%TD*%
D16*
%TO.P,LS1,2*%
%TO.N,GND*%
X146408000Y-102108000D03*
D17*
%TO.P,LS1,1*%
%TO.N,Net-(LS1-Pad1)*%
X152908000Y-102108000D03*
%TD*%
D13*
%TO.P,SW2,6*%
%TO.N,Net-(R10-Pad2)*%
X153480000Y-59325000D03*
%TO.P,SW2,5*%
%TO.N,Net-(SW2-Pad5)*%
X153480000Y-61325000D03*
%TO.P,SW2,4*%
%TO.N,Net-(SW2-Pad4)*%
X153480000Y-63325000D03*
%TO.P,SW2,3*%
%TO.N,Net-(R9-Pad1)*%
X148480000Y-59325000D03*
%TO.P,SW2,2*%
%TO.N,VCC*%
X148480000Y-61325000D03*
%TO.P,SW2,1*%
%TO.N,Net-(SW2-Pad1)*%
X148480000Y-63325000D03*
%TD*%
D18*
%TO.P,U1,8*%
%TO.N,VCC*%
X138684000Y-97536000D03*
%TO.P,U1,4*%
%TO.N,GND*%
X131064000Y-105156000D03*
%TO.P,U1,7*%
%TO.N,SCL*%
X138684000Y-100076000D03*
%TO.P,U1,3*%
%TO.N,Net-(SW2-Pad5)*%
X131064000Y-102616000D03*
%TO.P,U1,6*%
%TO.N,Button*%
X138684000Y-102616000D03*
%TO.P,U1,2*%
%TO.N,PAD_AXIS_2*%
X131064000Y-100076000D03*
%TO.P,U1,5*%
%TO.N,SDA*%
X138684000Y-105156000D03*
D19*
%TO.P,U1,1*%
%TO.N,PAD_AXIS_1*%
X131064000Y-97536000D03*
%TD*%
%TO.P,D1,2*%
%TO.N,Net-(D1-Pad2)*%
%TA.AperFunction,SMDPad,CuDef*%
G36*
G01*
X140833000Y-60439000D02*
X139583000Y-60439000D01*
G75*
G02*
X139333000Y-60189000I0J250000D01*
G01*
X139333000Y-59439000D01*
G75*
G02*
X139583000Y-59189000I250000J0D01*
G01*
X140833000Y-59189000D01*
G75*
G02*
X141083000Y-59439000I0J-250000D01*
G01*
X141083000Y-60189000D01*
G75*
G02*
X140833000Y-60439000I-250000J0D01*
G01*
G37*
%TD.AperFunction*%
%TO.P,D1,1*%
%TO.N,GND*%
%TA.AperFunction,SMDPad,CuDef*%
G36*
G01*
X140833000Y-63239000D02*
X139583000Y-63239000D01*
G75*
G02*
X139333000Y-62989000I0J250000D01*
G01*
X139333000Y-62239000D01*
G75*
G02*
X139583000Y-61989000I250000J0D01*
G01*
X140833000Y-61989000D01*
G75*
G02*
X141083000Y-62239000I0J-250000D01*
G01*
X141083000Y-62989000D01*
G75*
G02*
X140833000Y-63239000I-250000J0D01*
G01*
G37*
%TD.AperFunction*%
%TD*%
D14*
%TO.P,J2,6*%
%TO.N,GND*%
X130556000Y-70104000D03*
%TO.P,J2,5*%
%TO.N,PAD_AXIS_1*%
X133096000Y-70104000D03*
%TO.P,J2,4*%
%TO.N,SDA*%
X130556000Y-72644000D03*
%TO.P,J2,3*%
%TO.N,SCL*%
X133096000Y-72644000D03*
%TO.P,J2,2*%
%TO.N,VCC*%
X130556000Y-75184000D03*
D15*
%TO.P,J2,1*%
%TO.N,Button*%
X133096000Y-75184000D03*
%TD*%
D20*
%TO.P,H1,1*%
%TO.N,N/C*%
X130556000Y-93218000D03*
%TD*%
%TO.P,H2,1*%
%TO.N,N/C*%
X154178000Y-93218000D03*
%TD*%
%TO.P,D2,1*%
%TO.N,GND*%
%TA.AperFunction,SMDPad,CuDef*%
G36*
G01*
X144643000Y-63239000D02*
X143393000Y-63239000D01*
G75*
G02*
X143143000Y-62989000I0J250000D01*
G01*
X143143000Y-62239000D01*
G75*
G02*
X143393000Y-61989000I250000J0D01*
G01*
X144643000Y-61989000D01*
G75*
G02*
X144893000Y-62239000I0J-250000D01*
G01*
X144893000Y-62989000D01*
G75*
G02*
X144643000Y-63239000I-250000J0D01*
G01*
G37*
%TD.AperFunction*%
%TO.P,D2,2*%
%TO.N,Net-(D2-Pad2)*%
%TA.AperFunction,SMDPad,CuDef*%
G36*
G01*
X144643000Y-60439000D02*
X143393000Y-60439000D01*
G75*
G02*
X143143000Y-60189000I0J250000D01*
G01*
X143143000Y-59439000D01*
G75*
G02*
X143393000Y-59189000I250000J0D01*
G01*
X144643000Y-59189000D01*
G75*
G02*
X144893000Y-59439000I0J-250000D01*
G01*
X144893000Y-60189000D01*
G75*
G02*
X144643000Y-60439000I-250000J0D01*
G01*
G37*
%TD.AperFunction*%
%TD*%
D21*
%TO.N,GND*%
X139954000Y-109220000D03*
X149606000Y-66548000D03*
%TO.N,SDA*%
X138176000Y-80645000D03*
%TO.N,SCL*%
X140716000Y-72644000D03*
%TO.N,VCC*%
X140208000Y-77724000D03*
X128524000Y-98552000D03*
X149860000Y-106680000D03*
%TO.N,Button*%
X143764000Y-75184000D03*
%TO.N,Net-(D1-Pad2)*%
X140208000Y-56642000D03*
%TO.N,PAD_AXIS_1*%
X130048000Y-67564000D03*
X128524000Y-87503000D03*
X149606000Y-110744000D03*
%TO.N,PAD_AXIS_2*%
X136144000Y-111760000D03*
%TO.N,Net-(SW2-Pad5)*%
X136601200Y-87172800D03*
%TO.N,Net-(D2-Pad2)*%
X144018000Y-56642000D03*
%TD*%
D22*
%TO.N,GND*%
X131572000Y-69088000D02*
X131572000Y-67564000D01*
X130556000Y-70104000D02*
X131572000Y-69088000D01*
X149606000Y-66548000D02*
X149606000Y-66548000D01*
X144018000Y-62614000D02*
X142116000Y-62614000D01*
X142116000Y-62614000D02*
X140208000Y-62614000D01*
X132588000Y-66548000D02*
X132334000Y-66802000D01*
X131572000Y-67564000D02*
X132334000Y-66802000D01*
X138734800Y-69138800D02*
X138734800Y-66598800D01*
X138684000Y-66548000D02*
X132588000Y-66548000D01*
X138734800Y-66598800D02*
X138684000Y-66548000D01*
X142116000Y-66545000D02*
X142113000Y-66548000D01*
X142116000Y-62614000D02*
X142116000Y-66545000D01*
X142113000Y-66548000D02*
X138684000Y-66548000D01*
X149606000Y-66548000D02*
X142113000Y-66548000D01*
X143637000Y-109220000D02*
X139954000Y-109220000D01*
X146408000Y-106449000D02*
X143637000Y-109220000D01*
X146408000Y-102108000D02*
X146408000Y-106449000D01*
%TO.N,SDA*%
X146354800Y-78498700D02*
X144208500Y-80645000D01*
X146354800Y-69138800D02*
X146354800Y-78498700D01*
X144208500Y-80645000D02*
X138176000Y-80645000D01*
%TO.N,SCL*%
X133096000Y-72644000D02*
X140716000Y-72644000D01*
X140716000Y-72644000D02*
X142748000Y-72644000D01*
X142748000Y-72644000D02*
X143814800Y-71577200D01*
X143814800Y-71577200D02*
X143814800Y-69138800D01*
%TO.N,VCC*%
X147320000Y-97536000D02*
X149860000Y-100076000D01*
X130556000Y-75184000D02*
X130556000Y-77216000D01*
X130556000Y-77216000D02*
X131064000Y-77724000D01*
X131064000Y-77724000D02*
X140208000Y-77724000D01*
X140208000Y-77724000D02*
X140208000Y-77724000D01*
X138684000Y-97536000D02*
X147320000Y-97536000D01*
X128524000Y-96520000D02*
X128524000Y-98552000D01*
X128524000Y-96266000D02*
X128524000Y-96520000D01*
X128016000Y-95758000D02*
X128524000Y-96266000D01*
X128016000Y-91186000D02*
X128016000Y-95758000D01*
X129794000Y-89408000D02*
X128016000Y-91186000D01*
X133096000Y-89408000D02*
X129794000Y-89408000D01*
X138684000Y-94996000D02*
X133096000Y-89408000D01*
X138684000Y-97536000D02*
X138684000Y-94996000D01*
X149860000Y-106680000D02*
X149860000Y-100076000D01*
%TO.N,Button*%
X133096000Y-75184000D02*
X143764000Y-75184000D01*
%TO.N,Net-(D1-Pad2)*%
X140208000Y-59814000D02*
X140208000Y-59436000D01*
X139192000Y-58798000D02*
X140208000Y-59814000D01*
X139192000Y-57658000D02*
X139192000Y-58798000D01*
X140208000Y-56642000D02*
X139192000Y-57658000D01*
%TO.N,PAD_AXIS_1*%
X135636000Y-106176000D02*
X135636000Y-105156000D01*
X135636000Y-105156000D02*
X135636000Y-102108000D01*
X131064000Y-97536000D02*
X134112000Y-97536000D01*
X134112000Y-97536000D02*
X135636000Y-99060000D01*
X135636000Y-99060000D02*
X135636000Y-102108000D01*
X130048000Y-67564000D02*
X128524000Y-69088000D01*
X128524000Y-69088000D02*
X128524000Y-69596000D01*
X135636000Y-106176000D02*
X135636000Y-106426000D01*
X135636000Y-106426000D02*
X139954000Y-110744000D01*
X139954000Y-110744000D02*
X149606000Y-110744000D01*
X149606000Y-110744000D02*
X149606000Y-110744000D01*
X128524000Y-84391500D02*
X128524000Y-84836000D01*
X128524000Y-87503000D02*
X128524000Y-84391500D01*
X128524000Y-69596000D02*
X128524000Y-84391500D01*
%TO.N,PAD_AXIS_2*%
X131064000Y-100076000D02*
X132080000Y-100076000D01*
X131064000Y-100076000D02*
X133096000Y-100076000D01*
X133096000Y-100076000D02*
X134112000Y-101092000D01*
X134112000Y-101092000D02*
X134112000Y-102616000D01*
X134112000Y-102616000D02*
X134112000Y-102108000D01*
X134112000Y-107696000D02*
X134112000Y-102616000D01*
X134112000Y-107950000D02*
X134112000Y-107696000D01*
X136144000Y-109982000D02*
X134112000Y-107950000D01*
X136144000Y-111760000D02*
X136144000Y-109982000D01*
%TO.N,Net-(SW2-Pad5)*%
X151384000Y-72644000D02*
X151384000Y-78232000D01*
X151384000Y-78232000D02*
X142748000Y-86868000D01*
X152035000Y-61325000D02*
X151384000Y-61976000D01*
X153480000Y-61325000D02*
X152035000Y-61325000D01*
X136601200Y-87172800D02*
X142443200Y-87172800D01*
X142748000Y-86868000D02*
X142443200Y-87172800D01*
X151384000Y-61976000D02*
X151384000Y-72644000D01*
%TO.N,Net-(D2-Pad2)*%
X144018000Y-59814000D02*
X144018000Y-59690000D01*
X144018000Y-59690000D02*
X145034000Y-58674000D01*
X145034000Y-57658000D02*
X144018000Y-56642000D01*
X145034000Y-58674000D02*
X145034000Y-57658000D01*
%TD*%
M02*
