%TF.GenerationSoftware,KiCad,Pcbnew,5.1.7*%
%TF.CreationDate,2020-12-14T21:59:14+01:00*%
%TF.ProjectId,sygeco1,73796765-636f-4312-9e6b-696361645f70,0.2*%
%TF.SameCoordinates,Original*%
%TF.FileFunction,Copper,L2,Bot*%
%TF.FilePolarity,Positive*%
%FSLAX46Y46*%
G04 Gerber Fmt 4.6, Leading zero omitted, Abs format (unit mm)*
G04 Created by KiCad (PCBNEW 5.1.7) date 2020-12-14 21:59:14*
%MOMM*%
%LPD*%
G01*
G04 APERTURE LIST*
%TA.AperFunction,ComponentPad*%
%ADD10C,1.800000*%
%TD*%
%TA.AperFunction,ComponentPad*%
%ADD11C,1.500000*%
%TD*%
%TA.AperFunction,ComponentPad*%
%ADD12R,2.500000X2.500000*%
%TD*%
%TA.AperFunction,ComponentPad*%
%ADD13C,1.524000*%
%TD*%
%TA.AperFunction,ComponentPad*%
%ADD14O,1.700000X1.700000*%
%TD*%
%TA.AperFunction,ComponentPad*%
%ADD15R,1.700000X1.700000*%
%TD*%
%TA.AperFunction,ComponentPad*%
%ADD16C,1.600000*%
%TD*%
%TA.AperFunction,ComponentPad*%
%ADD17R,1.600000X1.600000*%
%TD*%
%TA.AperFunction,ComponentPad*%
%ADD18O,2.400000X1.600000*%
%TD*%
%TA.AperFunction,ComponentPad*%
%ADD19R,2.400000X1.600000*%
%TD*%
%TA.AperFunction,ComponentPad*%
%ADD20C,3.500000*%
%TD*%
%TA.AperFunction,ViaPad*%
%ADD21C,0.800000*%
%TD*%
%TA.AperFunction,Conductor*%
%ADD22C,0.250000*%
%TD*%
G04 APERTURE END LIST*
D10*
%TO.P,S1,1*%
%TO.N,Net-(R1-Pad2)*%
X136906000Y-114046000D03*
D11*
%TO.P,S1,2*%
%TO.N,Net-(R8-Pad2)*%
X136906000Y-117746000D03*
D10*
%TO.P,S1,3*%
%TO.N,Net-(R5-Pad2)*%
X136906000Y-120546000D03*
%TO.P,S1,4*%
%TO.N,GND*%
X147206000Y-120546000D03*
D11*
%TO.P,S1,5*%
%TO.N,Net-(R2-Pad2)*%
X147206000Y-117746000D03*
D10*
%TO.P,S1,6*%
%TO.N,Button*%
X147206000Y-114046000D03*
%TD*%
%TO.P,R2,1*%
%TO.N,PAD_AXIS_1*%
%TA.AperFunction,SMDPad,CuDef*%
G36*
G01*
X152283000Y-111872000D02*
X153533000Y-111872000D01*
G75*
G02*
X153783000Y-112122000I0J-250000D01*
G01*
X153783000Y-112922000D01*
G75*
G02*
X153533000Y-113172000I-250000J0D01*
G01*
X152283000Y-113172000D01*
G75*
G02*
X152033000Y-112922000I0J250000D01*
G01*
X152033000Y-112122000D01*
G75*
G02*
X152283000Y-111872000I250000J0D01*
G01*
G37*
%TD.AperFunction*%
%TO.P,R2,2*%
%TO.N,Net-(R2-Pad2)*%
%TA.AperFunction,SMDPad,CuDef*%
G36*
G01*
X152283000Y-114972000D02*
X153533000Y-114972000D01*
G75*
G02*
X153783000Y-115222000I0J-250000D01*
G01*
X153783000Y-116022000D01*
G75*
G02*
X153533000Y-116272000I-250000J0D01*
G01*
X152283000Y-116272000D01*
G75*
G02*
X152033000Y-116022000I0J250000D01*
G01*
X152033000Y-115222000D01*
G75*
G02*
X152283000Y-114972000I250000J0D01*
G01*
G37*
%TD.AperFunction*%
%TD*%
%TO.P,R1,1*%
%TO.N,PAD_AXIS_2*%
%TA.AperFunction,SMDPad,CuDef*%
G36*
G01*
X130185000Y-119720000D02*
X131435000Y-119720000D01*
G75*
G02*
X131685000Y-119970000I0J-250000D01*
G01*
X131685000Y-120770000D01*
G75*
G02*
X131435000Y-121020000I-250000J0D01*
G01*
X130185000Y-121020000D01*
G75*
G02*
X129935000Y-120770000I0J250000D01*
G01*
X129935000Y-119970000D01*
G75*
G02*
X130185000Y-119720000I250000J0D01*
G01*
G37*
%TD.AperFunction*%
%TO.P,R1,2*%
%TO.N,Net-(R1-Pad2)*%
%TA.AperFunction,SMDPad,CuDef*%
G36*
G01*
X130185000Y-122820000D02*
X131435000Y-122820000D01*
G75*
G02*
X131685000Y-123070000I0J-250000D01*
G01*
X131685000Y-123870000D01*
G75*
G02*
X131435000Y-124120000I-250000J0D01*
G01*
X130185000Y-124120000D01*
G75*
G02*
X129935000Y-123870000I0J250000D01*
G01*
X129935000Y-123070000D01*
G75*
G02*
X130185000Y-122820000I250000J0D01*
G01*
G37*
%TD.AperFunction*%
%TD*%
%TO.P,BT1,2*%
%TO.N,GND*%
%TA.AperFunction,ComponentPad*%
G36*
G01*
X151940000Y-84320000D02*
X151940000Y-83220000D01*
G75*
G02*
X152490000Y-82670000I550000J0D01*
G01*
X153590000Y-82670000D01*
G75*
G02*
X154140000Y-83220000I0J-550000D01*
G01*
X154140000Y-84320000D01*
G75*
G02*
X153590000Y-84870000I-550000J0D01*
G01*
X152490000Y-84870000D01*
G75*
G02*
X151940000Y-84320000I0J550000D01*
G01*
G37*
%TD.AperFunction*%
D12*
%TO.P,BT1,1*%
%TO.N,Net-(BT1-Pad1)*%
X133040000Y-83770000D03*
%TD*%
D13*
%TO.P,SW1,6*%
%TO.N,VCC*%
X135700000Y-59325000D03*
%TO.P,SW1,5*%
%TO.N,Net-(BT1-Pad1)*%
X135700000Y-61325000D03*
%TO.P,SW1,4*%
%TO.N,Net-(SW1-Pad4)*%
X135700000Y-63325000D03*
%TO.P,SW1,3*%
%TO.N,VCC*%
X130700000Y-59325000D03*
%TO.P,SW1,2*%
%TO.N,Net-(BT1-Pad1)*%
X130700000Y-61325000D03*
%TO.P,SW1,1*%
%TO.N,Net-(SW1-Pad1)*%
X130700000Y-63325000D03*
%TD*%
D14*
%TO.P,J1,4*%
%TO.N,GND*%
X138734800Y-69138800D03*
%TO.P,J1,3*%
%TO.N,VCC*%
X141274800Y-69138800D03*
%TO.P,J1,2*%
%TO.N,SCL*%
X143814800Y-69138800D03*
D15*
%TO.P,J1,1*%
%TO.N,SDA*%
X146354800Y-69138800D03*
%TD*%
D16*
%TO.P,LS1,2*%
%TO.N,GND*%
X146408000Y-102108000D03*
D17*
%TO.P,LS1,1*%
%TO.N,Net-(LS1-Pad1)*%
X152908000Y-102108000D03*
%TD*%
D13*
%TO.P,SW2,6*%
%TO.N,Net-(R10-Pad2)*%
X153480000Y-59325000D03*
%TO.P,SW2,5*%
%TO.N,Net-(SW2-Pad5)*%
X153480000Y-61325000D03*
%TO.P,SW2,4*%
%TO.N,Net-(SW2-Pad4)*%
X153480000Y-63325000D03*
%TO.P,SW2,3*%
%TO.N,Net-(R9-Pad1)*%
X148480000Y-59325000D03*
%TO.P,SW2,2*%
%TO.N,VCC*%
X148480000Y-61325000D03*
%TO.P,SW2,1*%
%TO.N,Net-(SW2-Pad1)*%
X148480000Y-63325000D03*
%TD*%
D18*
%TO.P,U1,8*%
%TO.N,VCC*%
X138684000Y-97536000D03*
%TO.P,U1,4*%
%TO.N,GND*%
X131064000Y-105156000D03*
%TO.P,U1,7*%
%TO.N,SCL*%
X138684000Y-100076000D03*
%TO.P,U1,3*%
%TO.N,Net-(SW2-Pad5)*%
X131064000Y-102616000D03*
%TO.P,U1,6*%
%TO.N,Button*%
X138684000Y-102616000D03*
%TO.P,U1,2*%
%TO.N,PAD_AXIS_2*%
X131064000Y-100076000D03*
%TO.P,U1,5*%
%TO.N,SDA*%
X138684000Y-105156000D03*
D19*
%TO.P,U1,1*%
%TO.N,PAD_AXIS_1*%
X131064000Y-97536000D03*
%TD*%
D14*
%TO.P,J2,6*%
%TO.N,GND*%
X130556000Y-70104000D03*
%TO.P,J2,5*%
%TO.N,PAD_AXIS_1*%
X133096000Y-70104000D03*
%TO.P,J2,4*%
%TO.N,SDA*%
X130556000Y-72644000D03*
%TO.P,J2,3*%
%TO.N,SCL*%
X133096000Y-72644000D03*
%TO.P,J2,2*%
%TO.N,VCC*%
X130556000Y-75184000D03*
D15*
%TO.P,J2,1*%
%TO.N,Button*%
X133096000Y-75184000D03*
%TD*%
%TO.P,C1,2*%
%TO.N,GND*%
%TA.AperFunction,SMDPad,CuDef*%
G36*
G01*
X136066500Y-109870002D02*
X136066500Y-108569998D01*
G75*
G02*
X136316498Y-108320000I249998J0D01*
G01*
X137141502Y-108320000D01*
G75*
G02*
X137391500Y-108569998I0J-249998D01*
G01*
X137391500Y-109870002D01*
G75*
G02*
X137141502Y-110120000I-249998J0D01*
G01*
X136316498Y-110120000D01*
G75*
G02*
X136066500Y-109870002I0J249998D01*
G01*
G37*
%TD.AperFunction*%
%TO.P,C1,1*%
%TO.N,VCC*%
%TA.AperFunction,SMDPad,CuDef*%
G36*
G01*
X132941500Y-109870002D02*
X132941500Y-108569998D01*
G75*
G02*
X133191498Y-108320000I249998J0D01*
G01*
X134016502Y-108320000D01*
G75*
G02*
X134266500Y-108569998I0J-249998D01*
G01*
X134266500Y-109870002D01*
G75*
G02*
X134016502Y-110120000I-249998J0D01*
G01*
X133191498Y-110120000D01*
G75*
G02*
X132941500Y-109870002I0J249998D01*
G01*
G37*
%TD.AperFunction*%
%TD*%
%TO.P,R3,1*%
%TO.N,VCC*%
%TA.AperFunction,SMDPad,CuDef*%
G36*
G01*
X148022000Y-106054999D02*
X148022000Y-107305001D01*
G75*
G02*
X147772001Y-107555000I-249999J0D01*
G01*
X146971999Y-107555000D01*
G75*
G02*
X146722000Y-107305001I0J249999D01*
G01*
X146722000Y-106054999D01*
G75*
G02*
X146971999Y-105805000I249999J0D01*
G01*
X147772001Y-105805000D01*
G75*
G02*
X148022000Y-106054999I0J-249999D01*
G01*
G37*
%TD.AperFunction*%
%TO.P,R3,2*%
%TO.N,Button*%
%TA.AperFunction,SMDPad,CuDef*%
G36*
G01*
X144922000Y-106054999D02*
X144922000Y-107305001D01*
G75*
G02*
X144672001Y-107555000I-249999J0D01*
G01*
X143871999Y-107555000D01*
G75*
G02*
X143622000Y-107305001I0J249999D01*
G01*
X143622000Y-106054999D01*
G75*
G02*
X143871999Y-105805000I249999J0D01*
G01*
X144672001Y-105805000D01*
G75*
G02*
X144922000Y-106054999I0J-249999D01*
G01*
G37*
%TD.AperFunction*%
%TD*%
%TO.P,R4,2*%
%TO.N,PAD_AXIS_2*%
%TA.AperFunction,SMDPad,CuDef*%
G36*
G01*
X130184999Y-115200000D02*
X131435001Y-115200000D01*
G75*
G02*
X131685000Y-115449999I0J-249999D01*
G01*
X131685000Y-116250001D01*
G75*
G02*
X131435001Y-116500000I-249999J0D01*
G01*
X130184999Y-116500000D01*
G75*
G02*
X129935000Y-116250001I0J249999D01*
G01*
X129935000Y-115449999D01*
G75*
G02*
X130184999Y-115200000I249999J0D01*
G01*
G37*
%TD.AperFunction*%
%TO.P,R4,1*%
%TO.N,VCC*%
%TA.AperFunction,SMDPad,CuDef*%
G36*
G01*
X130184999Y-112100000D02*
X131435001Y-112100000D01*
G75*
G02*
X131685000Y-112349999I0J-249999D01*
G01*
X131685000Y-113150001D01*
G75*
G02*
X131435001Y-113400000I-249999J0D01*
G01*
X130184999Y-113400000D01*
G75*
G02*
X129935000Y-113150001I0J249999D01*
G01*
X129935000Y-112349999D01*
G75*
G02*
X130184999Y-112100000I249999J0D01*
G01*
G37*
%TD.AperFunction*%
%TD*%
%TO.P,R5,2*%
%TO.N,Net-(R5-Pad2)*%
%TA.AperFunction,SMDPad,CuDef*%
G36*
G01*
X141106999Y-117968000D02*
X142357001Y-117968000D01*
G75*
G02*
X142607000Y-118217999I0J-249999D01*
G01*
X142607000Y-119018001D01*
G75*
G02*
X142357001Y-119268000I-249999J0D01*
G01*
X141106999Y-119268000D01*
G75*
G02*
X140857000Y-119018001I0J249999D01*
G01*
X140857000Y-118217999D01*
G75*
G02*
X141106999Y-117968000I249999J0D01*
G01*
G37*
%TD.AperFunction*%
%TO.P,R5,1*%
%TO.N,PAD_AXIS_2*%
%TA.AperFunction,SMDPad,CuDef*%
G36*
G01*
X141106999Y-114868000D02*
X142357001Y-114868000D01*
G75*
G02*
X142607000Y-115117999I0J-249999D01*
G01*
X142607000Y-115918001D01*
G75*
G02*
X142357001Y-116168000I-249999J0D01*
G01*
X141106999Y-116168000D01*
G75*
G02*
X140857000Y-115918001I0J249999D01*
G01*
X140857000Y-115117999D01*
G75*
G02*
X141106999Y-114868000I249999J0D01*
G01*
G37*
%TD.AperFunction*%
%TD*%
D20*
%TO.P,H1,1*%
%TO.N,N/C*%
X130556000Y-93218000D03*
%TD*%
%TO.P,H2,1*%
%TO.N,N/C*%
X154178000Y-93218000D03*
%TD*%
%TO.P,R6,2*%
%TO.N,Net-(D1-Pad2)*%
%TA.AperFunction,SMDPad,CuDef*%
G36*
G01*
X140833000Y-60314000D02*
X139583000Y-60314000D01*
G75*
G02*
X139333000Y-60064000I0J250000D01*
G01*
X139333000Y-59264000D01*
G75*
G02*
X139583000Y-59014000I250000J0D01*
G01*
X140833000Y-59014000D01*
G75*
G02*
X141083000Y-59264000I0J-250000D01*
G01*
X141083000Y-60064000D01*
G75*
G02*
X140833000Y-60314000I-250000J0D01*
G01*
G37*
%TD.AperFunction*%
%TO.P,R6,1*%
%TO.N,VCC*%
%TA.AperFunction,SMDPad,CuDef*%
G36*
G01*
X140833000Y-63414000D02*
X139583000Y-63414000D01*
G75*
G02*
X139333000Y-63164000I0J250000D01*
G01*
X139333000Y-62364000D01*
G75*
G02*
X139583000Y-62114000I250000J0D01*
G01*
X140833000Y-62114000D01*
G75*
G02*
X141083000Y-62364000I0J-250000D01*
G01*
X141083000Y-63164000D01*
G75*
G02*
X140833000Y-63414000I-250000J0D01*
G01*
G37*
%TD.AperFunction*%
%TD*%
%TO.P,R7,1*%
%TO.N,VCC*%
%TA.AperFunction,SMDPad,CuDef*%
G36*
G01*
X152283000Y-104962000D02*
X153533000Y-104962000D01*
G75*
G02*
X153783000Y-105212000I0J-250000D01*
G01*
X153783000Y-106012000D01*
G75*
G02*
X153533000Y-106262000I-250000J0D01*
G01*
X152283000Y-106262000D01*
G75*
G02*
X152033000Y-106012000I0J250000D01*
G01*
X152033000Y-105212000D01*
G75*
G02*
X152283000Y-104962000I250000J0D01*
G01*
G37*
%TD.AperFunction*%
%TO.P,R7,2*%
%TO.N,PAD_AXIS_1*%
%TA.AperFunction,SMDPad,CuDef*%
G36*
G01*
X152283000Y-108062000D02*
X153533000Y-108062000D01*
G75*
G02*
X153783000Y-108312000I0J-250000D01*
G01*
X153783000Y-109112000D01*
G75*
G02*
X153533000Y-109362000I-250000J0D01*
G01*
X152283000Y-109362000D01*
G75*
G02*
X152033000Y-109112000I0J250000D01*
G01*
X152033000Y-108312000D01*
G75*
G02*
X152283000Y-108062000I250000J0D01*
G01*
G37*
%TD.AperFunction*%
%TD*%
%TO.P,R8,2*%
%TO.N,Net-(R8-Pad2)*%
%TA.AperFunction,SMDPad,CuDef*%
G36*
G01*
X152283000Y-122820000D02*
X153533000Y-122820000D01*
G75*
G02*
X153783000Y-123070000I0J-250000D01*
G01*
X153783000Y-123870000D01*
G75*
G02*
X153533000Y-124120000I-250000J0D01*
G01*
X152283000Y-124120000D01*
G75*
G02*
X152033000Y-123870000I0J250000D01*
G01*
X152033000Y-123070000D01*
G75*
G02*
X152283000Y-122820000I250000J0D01*
G01*
G37*
%TD.AperFunction*%
%TO.P,R8,1*%
%TO.N,PAD_AXIS_1*%
%TA.AperFunction,SMDPad,CuDef*%
G36*
G01*
X152283000Y-119720000D02*
X153533000Y-119720000D01*
G75*
G02*
X153783000Y-119970000I0J-250000D01*
G01*
X153783000Y-120770000D01*
G75*
G02*
X153533000Y-121020000I-250000J0D01*
G01*
X152283000Y-121020000D01*
G75*
G02*
X152033000Y-120770000I0J250000D01*
G01*
X152033000Y-119970000D01*
G75*
G02*
X152283000Y-119720000I250000J0D01*
G01*
G37*
%TD.AperFunction*%
%TD*%
%TO.P,R9,2*%
%TO.N,Net-(D2-Pad2)*%
%TA.AperFunction,SMDPad,CuDef*%
G36*
G01*
X144643000Y-60314000D02*
X143393000Y-60314000D01*
G75*
G02*
X143143000Y-60064000I0J250000D01*
G01*
X143143000Y-59264000D01*
G75*
G02*
X143393000Y-59014000I250000J0D01*
G01*
X144643000Y-59014000D01*
G75*
G02*
X144893000Y-59264000I0J-250000D01*
G01*
X144893000Y-60064000D01*
G75*
G02*
X144643000Y-60314000I-250000J0D01*
G01*
G37*
%TD.AperFunction*%
%TO.P,R9,1*%
%TO.N,Net-(R9-Pad1)*%
%TA.AperFunction,SMDPad,CuDef*%
G36*
G01*
X144643000Y-63414000D02*
X143393000Y-63414000D01*
G75*
G02*
X143143000Y-63164000I0J250000D01*
G01*
X143143000Y-62364000D01*
G75*
G02*
X143393000Y-62114000I250000J0D01*
G01*
X144643000Y-62114000D01*
G75*
G02*
X144893000Y-62364000I0J-250000D01*
G01*
X144893000Y-63164000D01*
G75*
G02*
X144643000Y-63414000I-250000J0D01*
G01*
G37*
%TD.AperFunction*%
%TD*%
%TO.P,R10,1*%
%TO.N,Net-(LS1-Pad1)*%
%TA.AperFunction,SMDPad,CuDef*%
G36*
G01*
X149913500Y-94872500D02*
X148663500Y-94872500D01*
G75*
G02*
X148413500Y-94622500I0J250000D01*
G01*
X148413500Y-93822500D01*
G75*
G02*
X148663500Y-93572500I250000J0D01*
G01*
X149913500Y-93572500D01*
G75*
G02*
X150163500Y-93822500I0J-250000D01*
G01*
X150163500Y-94622500D01*
G75*
G02*
X149913500Y-94872500I-250000J0D01*
G01*
G37*
%TD.AperFunction*%
%TO.P,R10,2*%
%TO.N,Net-(R10-Pad2)*%
%TA.AperFunction,SMDPad,CuDef*%
G36*
G01*
X149913500Y-91772500D02*
X148663500Y-91772500D01*
G75*
G02*
X148413500Y-91522500I0J250000D01*
G01*
X148413500Y-90722500D01*
G75*
G02*
X148663500Y-90472500I250000J0D01*
G01*
X149913500Y-90472500D01*
G75*
G02*
X150163500Y-90722500I0J-250000D01*
G01*
X150163500Y-91522500D01*
G75*
G02*
X149913500Y-91772500I-250000J0D01*
G01*
G37*
%TD.AperFunction*%
%TD*%
D21*
%TO.N,GND*%
X139954000Y-109220000D03*
X149606000Y-66548000D03*
%TO.N,SDA*%
X138176000Y-80645000D03*
%TO.N,SCL*%
X140716000Y-72644000D03*
%TO.N,VCC*%
X140208000Y-77724000D03*
X128524000Y-98552000D03*
X149860000Y-106680000D03*
%TO.N,Button*%
X143764000Y-75184000D03*
%TO.N,Net-(D1-Pad2)*%
X140208000Y-56642000D03*
%TO.N,PAD_AXIS_1*%
X130048000Y-67564000D03*
X128524000Y-87503000D03*
X149606000Y-110744000D03*
%TO.N,PAD_AXIS_2*%
X136144000Y-111760000D03*
%TO.N,Net-(SW2-Pad5)*%
X136601200Y-87172800D03*
%TO.N,Net-(D2-Pad2)*%
X144018000Y-56642000D03*
%TD*%
D22*
%TO.N,Net-(BT1-Pad1)*%
X132985000Y-83552000D02*
X132105000Y-84432000D01*
X130700000Y-61325000D02*
X132985000Y-61325000D01*
X132985000Y-61325000D02*
X133239000Y-61325000D01*
X133239000Y-61325000D02*
X135700000Y-61325000D01*
X135636000Y-79248000D02*
X135636000Y-79248000D01*
X133239000Y-64659000D02*
X133239000Y-61325000D01*
X135636000Y-67056000D02*
X133239000Y-64659000D01*
X135636000Y-79248000D02*
X135636000Y-67056000D01*
X133040000Y-81844000D02*
X135636000Y-79248000D01*
X133040000Y-83770000D02*
X133040000Y-81844000D01*
%TO.N,GND*%
X144272000Y-119380000D02*
X145438000Y-120546000D01*
X145438000Y-120546000D02*
X147206000Y-120546000D01*
X131064000Y-105156000D02*
X131064000Y-105664000D01*
X136729000Y-109220000D02*
X136729000Y-107773000D01*
X136729000Y-107773000D02*
X134112000Y-105156000D01*
X134112000Y-105156000D02*
X131064000Y-105156000D01*
X139954000Y-109220000D02*
X139954000Y-109220000D01*
X136729000Y-109220000D02*
X139954000Y-109220000D01*
X144272000Y-113538000D02*
X144272000Y-119380000D01*
X139954000Y-109220000D02*
X144272000Y-113538000D01*
X146431000Y-87757000D02*
X146939000Y-87249000D01*
X146939000Y-87249000D02*
X146408000Y-87780000D01*
X146408000Y-87780000D02*
X146408000Y-102108000D01*
X149606000Y-66548000D02*
X149606000Y-80336000D01*
X149656000Y-83770000D02*
X149606000Y-83820000D01*
X152790000Y-83770000D02*
X149656000Y-83770000D01*
X149606000Y-83820000D02*
X149606000Y-84455000D01*
X146939000Y-87249000D02*
X149606000Y-84582000D01*
X149606000Y-84582000D02*
X149606000Y-81407000D01*
X149606000Y-81407000D02*
X149606000Y-83820000D01*
X149606000Y-80336000D02*
X149606000Y-81407000D01*
%TO.N,SDA*%
X138176000Y-80645000D02*
X138176000Y-80645000D01*
X137668000Y-105156000D02*
X138684000Y-105156000D01*
X135636000Y-103124000D02*
X137668000Y-105156000D01*
X138176000Y-94589600D02*
X135636000Y-97129600D01*
X135636000Y-97129600D02*
X135636000Y-103124000D01*
X129921000Y-80645000D02*
X129921000Y-80645000D01*
X138176000Y-80645000D02*
X138176000Y-85280500D01*
X138176000Y-85280500D02*
X138176000Y-94589600D01*
X136207500Y-85280500D02*
X135255000Y-86233000D01*
X138176000Y-85280500D02*
X136207500Y-85280500D01*
X130746500Y-86233000D02*
X129921000Y-85407500D01*
X129921000Y-85407500D02*
X129921000Y-80645000D01*
X135255000Y-86233000D02*
X130746500Y-86233000D01*
X130556000Y-72644000D02*
X128016000Y-72644000D01*
X128016000Y-78740000D02*
X129921000Y-80645000D01*
X128016000Y-72644000D02*
X128016000Y-78740000D01*
%TO.N,SCL*%
X141732000Y-98552000D02*
X140208000Y-100076000D01*
X140208000Y-100076000D02*
X138684000Y-100076000D01*
X141732000Y-73660000D02*
X141732000Y-98552000D01*
X140716000Y-72644000D02*
X141732000Y-73660000D01*
%TO.N,VCC*%
X135700000Y-59325000D02*
X130700000Y-59325000D01*
X140208000Y-80772000D02*
X140208000Y-77724000D01*
X140208000Y-94996000D02*
X140208000Y-80772000D01*
X138684000Y-96520000D02*
X140208000Y-94996000D01*
X138684000Y-97536000D02*
X138684000Y-96520000D01*
X141274800Y-67614800D02*
X140716000Y-67056000D01*
X141274800Y-69138800D02*
X141274800Y-67614800D01*
X128524000Y-98552000D02*
X128524000Y-108242500D01*
X151840000Y-106680000D02*
X152908000Y-105612000D01*
X147372000Y-106680000D02*
X149860000Y-106680000D01*
X149860000Y-106680000D02*
X151840000Y-106680000D01*
X129501500Y-109220000D02*
X128524000Y-108242500D01*
X130810000Y-112750000D02*
X130810000Y-109220000D01*
X130810000Y-109220000D02*
X129501500Y-109220000D01*
X133604000Y-109220000D02*
X130810000Y-109220000D01*
X135700000Y-59325000D02*
X137049000Y-59325000D01*
X137049000Y-59325000D02*
X137668000Y-59944000D01*
X137668000Y-64008000D02*
X138811000Y-65151000D01*
X138811000Y-65151000D02*
X138684000Y-65024000D01*
X140716000Y-67056000D02*
X138811000Y-65151000D01*
X140208000Y-62764000D02*
X137694000Y-62764000D01*
X137694000Y-62764000D02*
X137668000Y-62738000D01*
X137668000Y-62738000D02*
X137668000Y-64008000D01*
X137668000Y-59944000D02*
X137668000Y-62738000D01*
X141986000Y-64770000D02*
X140208000Y-62992000D01*
X145288000Y-64770000D02*
X141986000Y-64770000D01*
X146558000Y-63500000D02*
X145288000Y-64770000D01*
X146558000Y-62484000D02*
X146558000Y-63500000D01*
X140208000Y-62992000D02*
X140208000Y-62764000D01*
X147717000Y-61325000D02*
X146558000Y-62484000D01*
X148480000Y-61325000D02*
X147717000Y-61325000D01*
X141274800Y-69799200D02*
X141274800Y-69138800D01*
X138366500Y-72707500D02*
X141274800Y-69799200D01*
X138366500Y-74168000D02*
X138366500Y-72707500D01*
X140208000Y-76009500D02*
X138366500Y-74168000D01*
X140208000Y-77724000D02*
X140208000Y-76009500D01*
%TO.N,Net-(LS1-Pad1)*%
X152908000Y-99631500D02*
X149288500Y-96012000D01*
X149288500Y-96012000D02*
X149288500Y-94222500D01*
X152908000Y-102108000D02*
X152908000Y-99631500D01*
%TO.N,Net-(R2-Pad2)*%
X149330000Y-115622000D02*
X147206000Y-117746000D01*
X152908000Y-115622000D02*
X149330000Y-115622000D01*
%TO.N,Button*%
X143764000Y-75184000D02*
X143764000Y-75184000D01*
X141224000Y-102616000D02*
X138684000Y-102616000D01*
X147206000Y-114046000D02*
X142432500Y-109272500D01*
X142494000Y-102616000D02*
X141224000Y-102616000D01*
X142432500Y-102677500D02*
X142494000Y-102616000D01*
X143764000Y-101346000D02*
X142494000Y-102616000D01*
X143764000Y-75184000D02*
X143764000Y-101346000D01*
X144272000Y-106680000D02*
X142494000Y-106680000D01*
X142432500Y-106741500D02*
X142432500Y-102677500D01*
X142494000Y-106680000D02*
X142432500Y-106741500D01*
X142432500Y-109272500D02*
X142432500Y-106741500D01*
%TO.N,Net-(R5-Pad2)*%
X139804000Y-120546000D02*
X141732000Y-118618000D01*
X136906000Y-120546000D02*
X139804000Y-120546000D01*
%TO.N,Net-(D1-Pad2)*%
X140208000Y-56642000D02*
X140208000Y-56642000D01*
X141224000Y-57658000D02*
X140208000Y-56642000D01*
X141224000Y-58674000D02*
X141224000Y-57658000D01*
X140208000Y-59690000D02*
X141224000Y-58674000D01*
%TO.N,PAD_AXIS_1*%
X133096000Y-70104000D02*
X133096000Y-68072000D01*
X133096000Y-68072000D02*
X132588000Y-67564000D01*
X132588000Y-67564000D02*
X130048000Y-67564000D01*
X130048000Y-67564000D02*
X130048000Y-67564000D01*
X152908000Y-108712000D02*
X152908000Y-112522000D01*
X153924000Y-112522000D02*
X155702000Y-114300000D01*
X152908000Y-112522000D02*
X153924000Y-112522000D01*
X151384000Y-112522000D02*
X149606000Y-110744000D01*
X152908000Y-112522000D02*
X151384000Y-112522000D01*
X152908000Y-120370000D02*
X152908000Y-119507000D01*
X155702000Y-116713000D02*
X155702000Y-116332000D01*
X152908000Y-119507000D02*
X155702000Y-116713000D01*
X155702000Y-116332000D02*
X155702000Y-114300000D01*
X155702000Y-116586000D02*
X155702000Y-116332000D01*
X130429000Y-87503000D02*
X128524000Y-87503000D01*
X134366000Y-91440000D02*
X130429000Y-87503000D01*
X134366000Y-94234000D02*
X134366000Y-91440000D01*
X131064000Y-97536000D02*
X134366000Y-94234000D01*
%TO.N,PAD_AXIS_2*%
X141732000Y-115518000D02*
X141732000Y-114554000D01*
X130810000Y-115850000D02*
X131292000Y-115850000D01*
X130810000Y-115850000D02*
X130810000Y-120370000D01*
X141732000Y-114300000D02*
X141732000Y-115518000D01*
X139192000Y-111760000D02*
X141732000Y-114300000D01*
X136144000Y-111760000D02*
X139192000Y-111760000D01*
X132054000Y-115850000D02*
X136144000Y-111760000D01*
X130810000Y-115850000D02*
X132054000Y-115850000D01*
X136144000Y-111760000D02*
X136144000Y-111760000D01*
%TO.N,Net-(R1-Pad2)*%
X130810000Y-123470000D02*
X131800000Y-123470000D01*
X131800000Y-123470000D02*
X133350000Y-121920000D01*
X133350000Y-117602000D02*
X134683500Y-116268500D01*
X133350000Y-121920000D02*
X133350000Y-117602000D01*
X134683500Y-116268500D02*
X136906000Y-114046000D01*
X134112000Y-116840000D02*
X134683500Y-116268500D01*
%TO.N,Net-(R8-Pad2)*%
X136508000Y-117348000D02*
X136906000Y-117746000D01*
X134874000Y-118110000D02*
X134874000Y-124460000D01*
X135238000Y-117746000D02*
X134874000Y-118110000D01*
X151918000Y-124460000D02*
X152908000Y-123470000D01*
X134874000Y-124460000D02*
X151918000Y-124460000D01*
X136906000Y-117746000D02*
X135238000Y-117746000D01*
%TO.N,Net-(SW2-Pad5)*%
X131064000Y-102616000D02*
X133096000Y-102616000D01*
X133096000Y-102616000D02*
X133604000Y-102108000D01*
X136601200Y-94386400D02*
X133604000Y-97383600D01*
X136601200Y-87172800D02*
X136601200Y-94386400D01*
X133604000Y-102108000D02*
X133604000Y-97383600D01*
%TO.N,Net-(D2-Pad2)*%
X144018000Y-56642000D02*
X144018000Y-56642000D01*
X144018000Y-59690000D02*
X143764000Y-59690000D01*
X143764000Y-59690000D02*
X143002000Y-58928000D01*
X143002000Y-57658000D02*
X144018000Y-56642000D01*
X143002000Y-58928000D02*
X143002000Y-57658000D01*
%TO.N,Net-(R9-Pad1)*%
X144018000Y-62764000D02*
X144018000Y-62738000D01*
X147431000Y-59325000D02*
X148480000Y-59325000D01*
X144018000Y-62738000D02*
X147431000Y-59325000D01*
%TO.N,Net-(R10-Pad2)*%
X150495000Y-61087000D02*
X152257000Y-59325000D01*
X152654000Y-67183000D02*
X150495000Y-65024000D01*
X152654000Y-80264000D02*
X152654000Y-67183000D01*
X150495000Y-65024000D02*
X150495000Y-61087000D01*
X155067000Y-81153000D02*
X153543000Y-81153000D01*
X152257000Y-59325000D02*
X153480000Y-59325000D01*
X153543000Y-81153000D02*
X152654000Y-80264000D01*
X155702000Y-81788000D02*
X155067000Y-81153000D01*
X155702000Y-85598000D02*
X155702000Y-81788000D01*
X154686000Y-86614000D02*
X155702000Y-85598000D01*
X149288500Y-90106500D02*
X152781000Y-86614000D01*
X152781000Y-86614000D02*
X154686000Y-86614000D01*
X149288500Y-91122500D02*
X149288500Y-90106500D01*
%TD*%
M02*
