%TF.GenerationSoftware,KiCad,Pcbnew,5.1.7*%
%TF.CreationDate,2020-11-12T05:12:17+01:00*%
%TF.ProjectId,sygeco1,73796765-636f-4312-9e6b-696361645f70,0.1*%
%TF.SameCoordinates,Original*%
%TF.FileFunction,Paste,Bot*%
%TF.FilePolarity,Positive*%
%FSLAX46Y46*%
G04 Gerber Fmt 4.6, Leading zero omitted, Abs format (unit mm)*
G04 Created by KiCad (PCBNEW 5.1.7) date 2020-11-12 05:12:17*
%MOMM*%
%LPD*%
G01*
G04 APERTURE LIST*
G04 APERTURE END LIST*
%TO.C,R6*%
G36*
G01*
X142865001Y-57581500D02*
X141614999Y-57581500D01*
G75*
G02*
X141365000Y-57331501I0J249999D01*
G01*
X141365000Y-56706499D01*
G75*
G02*
X141614999Y-56456500I249999J0D01*
G01*
X142865001Y-56456500D01*
G75*
G02*
X143115000Y-56706499I0J-249999D01*
G01*
X143115000Y-57331501D01*
G75*
G02*
X142865001Y-57581500I-249999J0D01*
G01*
G37*
G36*
G01*
X142865001Y-60506500D02*
X141614999Y-60506500D01*
G75*
G02*
X141365000Y-60256501I0J249999D01*
G01*
X141365000Y-59631499D01*
G75*
G02*
X141614999Y-59381500I249999J0D01*
G01*
X142865001Y-59381500D01*
G75*
G02*
X143115000Y-59631499I0J-249999D01*
G01*
X143115000Y-60256501D01*
G75*
G02*
X142865001Y-60506500I-249999J0D01*
G01*
G37*
%TD*%
%TO.C,C1*%
G36*
G01*
X131710000Y-109616001D02*
X131710000Y-108315999D01*
G75*
G02*
X131959999Y-108066000I249999J0D01*
G01*
X132785001Y-108066000D01*
G75*
G02*
X133035000Y-108315999I0J-249999D01*
G01*
X133035000Y-109616001D01*
G75*
G02*
X132785001Y-109866000I-249999J0D01*
G01*
X131959999Y-109866000D01*
G75*
G02*
X131710000Y-109616001I0J249999D01*
G01*
G37*
G36*
G01*
X128585000Y-109616001D02*
X128585000Y-108315999D01*
G75*
G02*
X128834999Y-108066000I249999J0D01*
G01*
X129660001Y-108066000D01*
G75*
G02*
X129910000Y-108315999I0J-249999D01*
G01*
X129910000Y-109616001D01*
G75*
G02*
X129660001Y-109866000I-249999J0D01*
G01*
X128834999Y-109866000D01*
G75*
G02*
X128585000Y-109616001I0J249999D01*
G01*
G37*
%TD*%
%TO.C,R1*%
G36*
G01*
X151775000Y-121550000D02*
X153025000Y-121550000D01*
G75*
G02*
X153275000Y-121800000I0J-250000D01*
G01*
X153275000Y-122600000D01*
G75*
G02*
X153025000Y-122850000I-250000J0D01*
G01*
X151775000Y-122850000D01*
G75*
G02*
X151525000Y-122600000I0J250000D01*
G01*
X151525000Y-121800000D01*
G75*
G02*
X151775000Y-121550000I250000J0D01*
G01*
G37*
G36*
G01*
X151775000Y-118450000D02*
X153025000Y-118450000D01*
G75*
G02*
X153275000Y-118700000I0J-250000D01*
G01*
X153275000Y-119500000D01*
G75*
G02*
X153025000Y-119750000I-250000J0D01*
G01*
X151775000Y-119750000D01*
G75*
G02*
X151525000Y-119500000I0J250000D01*
G01*
X151525000Y-118700000D01*
G75*
G02*
X151775000Y-118450000I250000J0D01*
G01*
G37*
%TD*%
%TO.C,R2*%
G36*
G01*
X131435000Y-119750000D02*
X130185000Y-119750000D01*
G75*
G02*
X129935000Y-119500000I0J250000D01*
G01*
X129935000Y-118700000D01*
G75*
G02*
X130185000Y-118450000I250000J0D01*
G01*
X131435000Y-118450000D01*
G75*
G02*
X131685000Y-118700000I0J-250000D01*
G01*
X131685000Y-119500000D01*
G75*
G02*
X131435000Y-119750000I-250000J0D01*
G01*
G37*
G36*
G01*
X131435000Y-122850000D02*
X130185000Y-122850000D01*
G75*
G02*
X129935000Y-122600000I0J250000D01*
G01*
X129935000Y-121800000D01*
G75*
G02*
X130185000Y-121550000I250000J0D01*
G01*
X131435000Y-121550000D01*
G75*
G02*
X131685000Y-121800000I0J-250000D01*
G01*
X131685000Y-122600000D01*
G75*
G02*
X131435000Y-122850000I-250000J0D01*
G01*
G37*
%TD*%
%TO.C,R3*%
G36*
G01*
X153025000Y-113400000D02*
X151775000Y-113400000D01*
G75*
G02*
X151525000Y-113150000I0J250000D01*
G01*
X151525000Y-112350000D01*
G75*
G02*
X151775000Y-112100000I250000J0D01*
G01*
X153025000Y-112100000D01*
G75*
G02*
X153275000Y-112350000I0J-250000D01*
G01*
X153275000Y-113150000D01*
G75*
G02*
X153025000Y-113400000I-250000J0D01*
G01*
G37*
G36*
G01*
X153025000Y-116500000D02*
X151775000Y-116500000D01*
G75*
G02*
X151525000Y-116250000I0J250000D01*
G01*
X151525000Y-115450000D01*
G75*
G02*
X151775000Y-115200000I250000J0D01*
G01*
X153025000Y-115200000D01*
G75*
G02*
X153275000Y-115450000I0J-250000D01*
G01*
X153275000Y-116250000D01*
G75*
G02*
X153025000Y-116500000I-250000J0D01*
G01*
G37*
%TD*%
%TO.C,R4*%
G36*
G01*
X130185000Y-115200000D02*
X131435000Y-115200000D01*
G75*
G02*
X131685000Y-115450000I0J-250000D01*
G01*
X131685000Y-116250000D01*
G75*
G02*
X131435000Y-116500000I-250000J0D01*
G01*
X130185000Y-116500000D01*
G75*
G02*
X129935000Y-116250000I0J250000D01*
G01*
X129935000Y-115450000D01*
G75*
G02*
X130185000Y-115200000I250000J0D01*
G01*
G37*
G36*
G01*
X130185000Y-112100000D02*
X131435000Y-112100000D01*
G75*
G02*
X131685000Y-112350000I0J-250000D01*
G01*
X131685000Y-113150000D01*
G75*
G02*
X131435000Y-113400000I-250000J0D01*
G01*
X130185000Y-113400000D01*
G75*
G02*
X129935000Y-113150000I0J250000D01*
G01*
X129935000Y-112350000D01*
G75*
G02*
X130185000Y-112100000I250000J0D01*
G01*
G37*
%TD*%
%TO.C,R5*%
G36*
G01*
X141107000Y-117740000D02*
X142357000Y-117740000D01*
G75*
G02*
X142607000Y-117990000I0J-250000D01*
G01*
X142607000Y-118790000D01*
G75*
G02*
X142357000Y-119040000I-250000J0D01*
G01*
X141107000Y-119040000D01*
G75*
G02*
X140857000Y-118790000I0J250000D01*
G01*
X140857000Y-117990000D01*
G75*
G02*
X141107000Y-117740000I250000J0D01*
G01*
G37*
G36*
G01*
X141107000Y-114640000D02*
X142357000Y-114640000D01*
G75*
G02*
X142607000Y-114890000I0J-250000D01*
G01*
X142607000Y-115690000D01*
G75*
G02*
X142357000Y-115940000I-250000J0D01*
G01*
X141107000Y-115940000D01*
G75*
G02*
X140857000Y-115690000I0J250000D01*
G01*
X140857000Y-114890000D01*
G75*
G02*
X141107000Y-114640000I250000J0D01*
G01*
G37*
%TD*%
M02*
