%TF.GenerationSoftware,KiCad,Pcbnew,6.0.9*%
%TF.CreationDate,2023-02-22T15:13:05+01:00*%
%TF.ProjectId,sygeco1,73796765-636f-4312-9e6b-696361645f70,1.0*%
%TF.SameCoordinates,Original*%
%TF.FileFunction,Soldermask,Bot*%
%TF.FilePolarity,Negative*%
%FSLAX46Y46*%
G04 Gerber Fmt 4.6, Leading zero omitted, Abs format (unit mm)*
G04 Created by KiCad (PCBNEW 6.0.9) date 2023-02-22 15:13:05*
%MOMM*%
%LPD*%
G01*
G04 APERTURE LIST*
G04 Aperture macros list*
%AMRoundRect*
0 Rectangle with rounded corners*
0 $1 Rounding radius*
0 $2 $3 $4 $5 $6 $7 $8 $9 X,Y pos of 4 corners*
0 Add a 4 corners polygon primitive as box body*
4,1,4,$2,$3,$4,$5,$6,$7,$8,$9,$2,$3,0*
0 Add four circle primitives for the rounded corners*
1,1,$1+$1,$2,$3*
1,1,$1+$1,$4,$5*
1,1,$1+$1,$6,$7*
1,1,$1+$1,$8,$9*
0 Add four rect primitives between the rounded corners*
20,1,$1+$1,$2,$3,$4,$5,0*
20,1,$1+$1,$4,$5,$6,$7,0*
20,1,$1+$1,$6,$7,$8,$9,0*
20,1,$1+$1,$8,$9,$2,$3,0*%
G04 Aperture macros list end*
%ADD10C,1.524000*%
%ADD11R,1.700000X1.700000*%
%ADD12O,1.700000X1.700000*%
%ADD13R,1.600000X1.600000*%
%ADD14C,1.600000*%
%ADD15C,1.800000*%
%ADD16C,1.500000*%
%ADD17C,3.500000*%
%ADD18R,2.500000X2.500000*%
%ADD19RoundRect,0.550000X-0.550000X-0.550000X0.550000X-0.550000X0.550000X0.550000X-0.550000X0.550000X0*%
%ADD20O,1.600000X1.600000*%
%ADD21RoundRect,0.249999X0.400001X0.625001X-0.400001X0.625001X-0.400001X-0.625001X0.400001X-0.625001X0*%
%ADD22RoundRect,0.249999X-0.625001X0.400001X-0.625001X-0.400001X0.625001X-0.400001X0.625001X0.400001X0*%
%ADD23RoundRect,0.249997X-0.412503X-0.650003X0.412503X-0.650003X0.412503X0.650003X-0.412503X0.650003X0*%
%ADD24RoundRect,0.249999X0.625001X-0.400001X0.625001X0.400001X-0.625001X0.400001X-0.625001X-0.400001X0*%
%ADD25RoundRect,0.249999X-0.400001X-0.625001X0.400001X-0.625001X0.400001X0.625001X-0.400001X0.625001X0*%
G04 APERTURE END LIST*
D10*
%TO.C,SW1*%
X130954000Y-62690000D03*
X130954000Y-60690000D03*
X130954000Y-58690000D03*
X135954000Y-62690000D03*
X135954000Y-60690000D03*
X135954000Y-58690000D03*
%TD*%
%TO.C,SW2*%
X148734000Y-62690000D03*
X148734000Y-60690000D03*
X148734000Y-58690000D03*
X153734000Y-62690000D03*
X153734000Y-60690000D03*
X153734000Y-58690000D03*
%TD*%
D11*
%TO.C,J1*%
X146354800Y-69138800D03*
D12*
X143814800Y-69138800D03*
X141274800Y-69138800D03*
X138734800Y-69138800D03*
%TD*%
D13*
%TO.C,LS1*%
X152908000Y-102108000D03*
D14*
X146408000Y-102108000D03*
%TD*%
D15*
%TO.C,S1*%
X136906000Y-114046000D03*
D16*
X136906000Y-117746000D03*
D15*
X136906000Y-120546000D03*
X147206000Y-120546000D03*
D16*
X147206000Y-117746000D03*
D15*
X147206000Y-114046000D03*
%TD*%
D11*
%TO.C,J2*%
X133096000Y-75184000D03*
D12*
X130556000Y-75184000D03*
X133096000Y-72644000D03*
X130556000Y-72644000D03*
X133096000Y-70104000D03*
X130556000Y-70104000D03*
%TD*%
D17*
%TO.C,H1*%
X130556000Y-93218000D03*
%TD*%
%TO.C,H2*%
X154178000Y-93218000D03*
%TD*%
D18*
%TO.C,BT1*%
X133040000Y-83770000D03*
D19*
X153040000Y-83770000D03*
%TD*%
D13*
%TO.C,U1*%
X131064000Y-97536000D03*
D20*
X131064000Y-100076000D03*
X131064000Y-102616000D03*
X131064000Y-105156000D03*
X138684000Y-105156000D03*
X138684000Y-102616000D03*
X138684000Y-100076000D03*
X138684000Y-97536000D03*
%TD*%
D21*
%TO.C,R3*%
X147372000Y-106680000D03*
X144272000Y-106680000D03*
%TD*%
D22*
%TO.C,R4*%
X129794000Y-109448000D03*
X129794000Y-112548000D03*
%TD*%
%TO.C,R5*%
X141732000Y-115518000D03*
X141732000Y-118618000D03*
%TD*%
D23*
%TO.C,C1*%
X133604000Y-109220000D03*
X136729000Y-109220000D03*
%TD*%
D24*
%TO.C,R6*%
X140208000Y-62764000D03*
X140208000Y-59664000D03*
%TD*%
D21*
%TO.C,R8*%
X145060000Y-124460000D03*
X141960000Y-124460000D03*
%TD*%
D25*
%TO.C,R1*%
X129006000Y-116586000D03*
X132106000Y-116586000D03*
%TD*%
D22*
%TO.C,R7*%
X152908000Y-105612000D03*
X152908000Y-108712000D03*
%TD*%
%TO.C,R2*%
X152908000Y-112522000D03*
X152908000Y-115622000D03*
%TD*%
D24*
%TO.C,R9*%
X144018000Y-62764000D03*
X144018000Y-59664000D03*
%TD*%
%TO.C,R10*%
X149288500Y-94222500D03*
X149288500Y-91122500D03*
%TD*%
M02*
