%TF.GenerationSoftware,KiCad,Pcbnew,5.1.7*%
%TF.CreationDate,2020-11-12T05:12:17+01:00*%
%TF.ProjectId,sygeco1,73796765-636f-4312-9e6b-696361645f70,0.1*%
%TF.SameCoordinates,Original*%
%TF.FileFunction,Legend,Top*%
%TF.FilePolarity,Positive*%
%FSLAX46Y46*%
G04 Gerber Fmt 4.6, Leading zero omitted, Abs format (unit mm)*
G04 Created by KiCad (PCBNEW 5.1.7) date 2020-11-12 05:12:17*
%MOMM*%
%LPD*%
G01*
G04 APERTURE LIST*
%ADD10C,0.150000*%
%ADD11C,0.120000*%
%ADD12C,0.100000*%
%ADD13C,0.254000*%
G04 APERTURE END LIST*
D10*
X136405880Y-73429690D02*
X135405880Y-73429690D01*
X136358261Y-73001119D02*
X136405880Y-72858261D01*
X136405880Y-72620166D01*
X136358261Y-72524928D01*
X136310642Y-72477309D01*
X136215404Y-72429690D01*
X136120166Y-72429690D01*
X136024928Y-72477309D01*
X135977309Y-72524928D01*
X135929690Y-72620166D01*
X135882071Y-72810642D01*
X135834452Y-72905880D01*
X135786833Y-72953500D01*
X135691595Y-73001119D01*
X135596357Y-73001119D01*
X135501119Y-72953500D01*
X135453500Y-72905880D01*
X135405880Y-72810642D01*
X135405880Y-72572547D01*
X135453500Y-72429690D01*
X136405880Y-72001119D02*
X135405880Y-72001119D01*
X135405880Y-71620166D01*
X135453500Y-71524928D01*
X135501119Y-71477309D01*
X135596357Y-71429690D01*
X135739214Y-71429690D01*
X135834452Y-71477309D01*
X135882071Y-71524928D01*
X135929690Y-71620166D01*
X135929690Y-72001119D01*
X127706500Y-70802404D02*
X127658880Y-70897642D01*
X127658880Y-71040500D01*
X127706500Y-71183357D01*
X127801738Y-71278595D01*
X127896976Y-71326214D01*
X128087452Y-71373833D01*
X128230309Y-71373833D01*
X128420785Y-71326214D01*
X128516023Y-71278595D01*
X128611261Y-71183357D01*
X128658880Y-71040500D01*
X128658880Y-70945261D01*
X128611261Y-70802404D01*
X128563642Y-70754785D01*
X128230309Y-70754785D01*
X128230309Y-70945261D01*
X128658880Y-70326214D02*
X127658880Y-70326214D01*
X128658880Y-69754785D01*
X127658880Y-69754785D01*
X128658880Y-69278595D02*
X127658880Y-69278595D01*
X127658880Y-69040500D01*
X127706500Y-68897642D01*
X127801738Y-68802404D01*
X127896976Y-68754785D01*
X128087452Y-68707166D01*
X128230309Y-68707166D01*
X128420785Y-68754785D01*
X128516023Y-68802404D01*
X128611261Y-68897642D01*
X128658880Y-69040500D01*
X128658880Y-69278595D01*
X127722380Y-76374476D02*
X128722380Y-76041142D01*
X127722380Y-75707809D01*
X128674761Y-74945904D02*
X128722380Y-75041142D01*
X128722380Y-75231619D01*
X128674761Y-75326857D01*
X128627142Y-75374476D01*
X128531904Y-75422095D01*
X128246190Y-75422095D01*
X128150952Y-75374476D01*
X128103333Y-75326857D01*
X128055714Y-75231619D01*
X128055714Y-75041142D01*
X128103333Y-74945904D01*
X128674761Y-74088761D02*
X128722380Y-74184000D01*
X128722380Y-74374476D01*
X128674761Y-74469714D01*
X128627142Y-74517333D01*
X128531904Y-74564952D01*
X128246190Y-74564952D01*
X128150952Y-74517333D01*
X128103333Y-74469714D01*
X128055714Y-74374476D01*
X128055714Y-74184000D01*
X128103333Y-74088761D01*
D11*
X155575000Y-55245000D02*
X146050000Y-55245000D01*
X155575000Y-66040000D02*
X155575000Y-55245000D01*
X146050000Y-66040000D02*
X155575000Y-66040000D01*
X146050000Y-55245000D02*
X146050000Y-66040000D01*
X128270000Y-55245000D02*
X128270000Y-66040000D01*
X137795000Y-55245000D02*
X128270000Y-55245000D01*
X137795000Y-66040000D02*
X137795000Y-55245000D01*
X128270000Y-66040000D02*
X137795000Y-66040000D01*
D10*
X139398952Y-84034380D02*
X139398952Y-84748666D01*
X139351333Y-84891523D01*
X139256095Y-84986761D01*
X139113238Y-85034380D01*
X139018000Y-85034380D01*
X140351333Y-85034380D02*
X139875142Y-85034380D01*
X139875142Y-84034380D01*
X141256095Y-84939142D02*
X141208476Y-84986761D01*
X141065619Y-85034380D01*
X140970380Y-85034380D01*
X140827523Y-84986761D01*
X140732285Y-84891523D01*
X140684666Y-84796285D01*
X140637047Y-84605809D01*
X140637047Y-84462952D01*
X140684666Y-84272476D01*
X140732285Y-84177238D01*
X140827523Y-84082000D01*
X140970380Y-84034380D01*
X141065619Y-84034380D01*
X141208476Y-84082000D01*
X141256095Y-84129619D01*
X141970380Y-84034380D02*
X141970380Y-84748666D01*
X141922761Y-84891523D01*
X141827523Y-84986761D01*
X141684666Y-85034380D01*
X141589428Y-85034380D01*
X142922761Y-85034380D02*
X142446571Y-85034380D01*
X142446571Y-84034380D01*
X143827523Y-84939142D02*
X143779904Y-84986761D01*
X143637047Y-85034380D01*
X143541809Y-85034380D01*
X143398952Y-84986761D01*
X143303714Y-84891523D01*
X143256095Y-84796285D01*
X143208476Y-84605809D01*
X143208476Y-84462952D01*
X143256095Y-84272476D01*
X143303714Y-84177238D01*
X143398952Y-84082000D01*
X143541809Y-84034380D01*
X143637047Y-84034380D01*
X143779904Y-84082000D01*
X143827523Y-84129619D01*
X144541809Y-84034380D02*
X144541809Y-84748666D01*
X144494190Y-84891523D01*
X144398952Y-84986761D01*
X144256095Y-85034380D01*
X144160857Y-85034380D01*
X145494190Y-85034380D02*
X145018000Y-85034380D01*
X145018000Y-84034380D01*
X146398952Y-84939142D02*
X146351333Y-84986761D01*
X146208476Y-85034380D01*
X146113238Y-85034380D01*
X145970380Y-84986761D01*
X145875142Y-84891523D01*
X145827523Y-84796285D01*
X145779904Y-84605809D01*
X145779904Y-84462952D01*
X145827523Y-84272476D01*
X145875142Y-84177238D01*
X145970380Y-84082000D01*
X146113238Y-84034380D01*
X146208476Y-84034380D01*
X146351333Y-84082000D01*
X146398952Y-84129619D01*
X147113238Y-84034380D02*
X147113238Y-84748666D01*
X147065619Y-84891523D01*
X146970380Y-84986761D01*
X146827523Y-85034380D01*
X146732285Y-85034380D01*
X148065619Y-85034380D02*
X147589428Y-85034380D01*
X147589428Y-84034380D01*
X148970380Y-84939142D02*
X148922761Y-84986761D01*
X148779904Y-85034380D01*
X148684666Y-85034380D01*
X148541809Y-84986761D01*
X148446571Y-84891523D01*
X148398952Y-84796285D01*
X148351333Y-84605809D01*
X148351333Y-84462952D01*
X148398952Y-84272476D01*
X148446571Y-84177238D01*
X148541809Y-84082000D01*
X148684666Y-84034380D01*
X148779904Y-84034380D01*
X148922761Y-84082000D01*
X148970380Y-84129619D01*
X139787619Y-67000380D02*
X139787619Y-66000380D01*
X140025714Y-66000380D01*
X140168571Y-66048000D01*
X140263809Y-66143238D01*
X140311428Y-66238476D01*
X140359047Y-66428952D01*
X140359047Y-66571809D01*
X140311428Y-66762285D01*
X140263809Y-66857523D01*
X140168571Y-66952761D01*
X140025714Y-67000380D01*
X139787619Y-67000380D01*
X140787619Y-67000380D02*
X140787619Y-66333714D01*
X140787619Y-66000380D02*
X140740000Y-66048000D01*
X140787619Y-66095619D01*
X140835238Y-66048000D01*
X140787619Y-66000380D01*
X140787619Y-66095619D01*
X141216190Y-66952761D02*
X141311428Y-67000380D01*
X141501904Y-67000380D01*
X141597142Y-66952761D01*
X141644761Y-66857523D01*
X141644761Y-66809904D01*
X141597142Y-66714666D01*
X141501904Y-66667047D01*
X141359047Y-66667047D01*
X141263809Y-66619428D01*
X141216190Y-66524190D01*
X141216190Y-66476571D01*
X141263809Y-66381333D01*
X141359047Y-66333714D01*
X141501904Y-66333714D01*
X141597142Y-66381333D01*
X142073333Y-66333714D02*
X142073333Y-67333714D01*
X142073333Y-66381333D02*
X142168571Y-66333714D01*
X142359047Y-66333714D01*
X142454285Y-66381333D01*
X142501904Y-66428952D01*
X142549523Y-66524190D01*
X142549523Y-66809904D01*
X142501904Y-66905142D01*
X142454285Y-66952761D01*
X142359047Y-67000380D01*
X142168571Y-67000380D01*
X142073333Y-66952761D01*
X143120952Y-67000380D02*
X143025714Y-66952761D01*
X142978095Y-66857523D01*
X142978095Y-66000380D01*
X143930476Y-67000380D02*
X143930476Y-66476571D01*
X143882857Y-66381333D01*
X143787619Y-66333714D01*
X143597142Y-66333714D01*
X143501904Y-66381333D01*
X143930476Y-66952761D02*
X143835238Y-67000380D01*
X143597142Y-67000380D01*
X143501904Y-66952761D01*
X143454285Y-66857523D01*
X143454285Y-66762285D01*
X143501904Y-66667047D01*
X143597142Y-66619428D01*
X143835238Y-66619428D01*
X143930476Y-66571809D01*
X144311428Y-66333714D02*
X144549523Y-67000380D01*
X144787619Y-66333714D02*
X144549523Y-67000380D01*
X144454285Y-67238476D01*
X144406666Y-67286095D01*
X144311428Y-67333714D01*
X149034761Y-56919761D02*
X149177619Y-56967380D01*
X149415714Y-56967380D01*
X149510952Y-56919761D01*
X149558571Y-56872142D01*
X149606190Y-56776904D01*
X149606190Y-56681666D01*
X149558571Y-56586428D01*
X149510952Y-56538809D01*
X149415714Y-56491190D01*
X149225238Y-56443571D01*
X149130000Y-56395952D01*
X149082380Y-56348333D01*
X149034761Y-56253095D01*
X149034761Y-56157857D01*
X149082380Y-56062619D01*
X149130000Y-56015000D01*
X149225238Y-55967380D01*
X149463333Y-55967380D01*
X149606190Y-56015000D01*
X150177619Y-56967380D02*
X150082380Y-56919761D01*
X150034761Y-56872142D01*
X149987142Y-56776904D01*
X149987142Y-56491190D01*
X150034761Y-56395952D01*
X150082380Y-56348333D01*
X150177619Y-56300714D01*
X150320476Y-56300714D01*
X150415714Y-56348333D01*
X150463333Y-56395952D01*
X150510952Y-56491190D01*
X150510952Y-56776904D01*
X150463333Y-56872142D01*
X150415714Y-56919761D01*
X150320476Y-56967380D01*
X150177619Y-56967380D01*
X151368095Y-56300714D02*
X151368095Y-56967380D01*
X150939523Y-56300714D02*
X150939523Y-56824523D01*
X150987142Y-56919761D01*
X151082380Y-56967380D01*
X151225238Y-56967380D01*
X151320476Y-56919761D01*
X151368095Y-56872142D01*
X151844285Y-56300714D02*
X151844285Y-56967380D01*
X151844285Y-56395952D02*
X151891904Y-56348333D01*
X151987142Y-56300714D01*
X152130000Y-56300714D01*
X152225238Y-56348333D01*
X152272857Y-56443571D01*
X152272857Y-56967380D01*
X153177619Y-56967380D02*
X153177619Y-55967380D01*
X153177619Y-56919761D02*
X153082380Y-56967380D01*
X152891904Y-56967380D01*
X152796666Y-56919761D01*
X152749047Y-56872142D01*
X152701428Y-56776904D01*
X152701428Y-56491190D01*
X152749047Y-56395952D01*
X152796666Y-56348333D01*
X152891904Y-56300714D01*
X153082380Y-56300714D01*
X153177619Y-56348333D01*
X130865809Y-56967380D02*
X130865809Y-55967380D01*
X131246761Y-55967380D01*
X131342000Y-56015000D01*
X131389619Y-56062619D01*
X131437238Y-56157857D01*
X131437238Y-56300714D01*
X131389619Y-56395952D01*
X131342000Y-56443571D01*
X131246761Y-56491190D01*
X130865809Y-56491190D01*
X132008666Y-56967380D02*
X131913428Y-56919761D01*
X131865809Y-56872142D01*
X131818190Y-56776904D01*
X131818190Y-56491190D01*
X131865809Y-56395952D01*
X131913428Y-56348333D01*
X132008666Y-56300714D01*
X132151523Y-56300714D01*
X132246761Y-56348333D01*
X132294380Y-56395952D01*
X132342000Y-56491190D01*
X132342000Y-56776904D01*
X132294380Y-56872142D01*
X132246761Y-56919761D01*
X132151523Y-56967380D01*
X132008666Y-56967380D01*
X132675333Y-56300714D02*
X132865809Y-56967380D01*
X133056285Y-56491190D01*
X133246761Y-56967380D01*
X133437238Y-56300714D01*
X134199142Y-56919761D02*
X134103904Y-56967380D01*
X133913428Y-56967380D01*
X133818190Y-56919761D01*
X133770571Y-56824523D01*
X133770571Y-56443571D01*
X133818190Y-56348333D01*
X133913428Y-56300714D01*
X134103904Y-56300714D01*
X134199142Y-56348333D01*
X134246761Y-56443571D01*
X134246761Y-56538809D01*
X133770571Y-56634047D01*
X134675333Y-56967380D02*
X134675333Y-56300714D01*
X134675333Y-56491190D02*
X134722952Y-56395952D01*
X134770571Y-56348333D01*
X134865809Y-56300714D01*
X134961047Y-56300714D01*
D12*
%TO.C,S1*%
X138156000Y-112296000D02*
X145056000Y-112296000D01*
X135156000Y-113996000D02*
X135156000Y-113996000D01*
X135056000Y-113996000D02*
X135056000Y-113996000D01*
X137856000Y-122296000D02*
X145356000Y-122296000D01*
X135056000Y-113996000D02*
G75*
G02*
X135156000Y-113996000I50000J0D01*
G01*
X135156000Y-113996000D02*
G75*
G02*
X135056000Y-113996000I-50000J0D01*
G01*
D11*
%TO.C,BT1*%
X155854470Y-83820000D02*
G75*
G03*
X155854470Y-83820000I-11064470J0D01*
G01*
X131590000Y-80070000D02*
X133840000Y-80070000D01*
X131615000Y-87595000D02*
X131615000Y-80070000D01*
X131615000Y-87570000D02*
X133765000Y-87570000D01*
X134591754Y-88096384D02*
G75*
G03*
X133840000Y-87570000I-751754J-273616D01*
G01*
X134615000Y-79520000D02*
G75*
G02*
X133863246Y-80046384I-751754J273616D01*
G01*
%TO.C,SW1*%
X136700000Y-64325000D02*
X129700000Y-64325000D01*
X136700000Y-58325000D02*
X136700000Y-64325000D01*
X129700000Y-58325000D02*
X136700000Y-58325000D01*
X129700000Y-64325000D02*
X129700000Y-58325000D01*
%TO.C,J1*%
X147126000Y-69088000D02*
X147126000Y-70418000D01*
X147126000Y-70418000D02*
X145796000Y-70418000D01*
X144526000Y-70418000D02*
X136846000Y-70418000D01*
X136846000Y-67758000D02*
X136846000Y-70418000D01*
X144526000Y-67758000D02*
X136846000Y-67758000D01*
X144526000Y-67758000D02*
X144526000Y-70418000D01*
%TO.C,LS1*%
X155758000Y-102108000D02*
G75*
G03*
X155758000Y-102108000I-6100000J0D01*
G01*
%TO.C,SW2*%
X154480000Y-64325000D02*
X147480000Y-64325000D01*
X154480000Y-58325000D02*
X154480000Y-64325000D01*
X147480000Y-58325000D02*
X154480000Y-58325000D01*
X147480000Y-64325000D02*
X147480000Y-58325000D01*
%TO.C,U1*%
X140124000Y-96146000D02*
X129624000Y-96146000D01*
X140124000Y-106546000D02*
X140124000Y-96146000D01*
X129624000Y-106546000D02*
X140124000Y-106546000D01*
X129624000Y-96146000D02*
X129624000Y-106546000D01*
X137124000Y-96206000D02*
X135874000Y-96206000D01*
X137124000Y-106486000D02*
X137124000Y-96206000D01*
X132624000Y-106486000D02*
X137124000Y-106486000D01*
X132624000Y-96206000D02*
X132624000Y-106486000D01*
X133874000Y-96206000D02*
X132624000Y-96206000D01*
X135874000Y-96206000D02*
G75*
G02*
X133874000Y-96206000I-1000000J0D01*
G01*
%TO.C,D1*%
X140085000Y-62730000D02*
X143970000Y-62730000D01*
X140085000Y-60460000D02*
X140085000Y-62730000D01*
X143970000Y-60460000D02*
X140085000Y-60460000D01*
%TO.C,J2*%
X134426000Y-76514000D02*
X133096000Y-76514000D01*
X134426000Y-75184000D02*
X134426000Y-76514000D01*
X131826000Y-76514000D02*
X129226000Y-76514000D01*
X131826000Y-73914000D02*
X131826000Y-76514000D01*
X134426000Y-73914000D02*
X131826000Y-73914000D01*
X129226000Y-76514000D02*
X129226000Y-68774000D01*
X134426000Y-73914000D02*
X134426000Y-68774000D01*
X134426000Y-68774000D02*
X129226000Y-68774000D01*
%TO.C,S1*%
D13*
X140613380Y-117810047D02*
X140794809Y-117870523D01*
X141097190Y-117870523D01*
X141218142Y-117810047D01*
X141278619Y-117749571D01*
X141339095Y-117628619D01*
X141339095Y-117507666D01*
X141278619Y-117386714D01*
X141218142Y-117326238D01*
X141097190Y-117265761D01*
X140855285Y-117205285D01*
X140734333Y-117144809D01*
X140673857Y-117084333D01*
X140613380Y-116963380D01*
X140613380Y-116842428D01*
X140673857Y-116721476D01*
X140734333Y-116661000D01*
X140855285Y-116600523D01*
X141157666Y-116600523D01*
X141339095Y-116661000D01*
X142548619Y-117870523D02*
X141822904Y-117870523D01*
X142185761Y-117870523D02*
X142185761Y-116600523D01*
X142064809Y-116781952D01*
X141943857Y-116902904D01*
X141822904Y-116963380D01*
%TO.C,BT1*%
D10*
X132168571Y-83927142D02*
X133311428Y-83927142D01*
X132740000Y-84498571D02*
X132740000Y-83355714D01*
%TO.C,LS1*%
X152527047Y-103979428D02*
X153288952Y-103979428D01*
X152908000Y-104360380D02*
X152908000Y-103598476D01*
%TD*%
M02*
