%TF.GenerationSoftware,KiCad,Pcbnew,5.1.7*%
%TF.CreationDate,2020-12-14T21:59:14+01:00*%
%TF.ProjectId,sygeco1,73796765-636f-4312-9e6b-696361645f70,0.2*%
%TF.SameCoordinates,Original*%
%TF.FileFunction,Paste,Bot*%
%TF.FilePolarity,Positive*%
%FSLAX46Y46*%
G04 Gerber Fmt 4.6, Leading zero omitted, Abs format (unit mm)*
G04 Created by KiCad (PCBNEW 5.1.7) date 2020-12-14 21:59:14*
%MOMM*%
%LPD*%
G01*
G04 APERTURE LIST*
G04 APERTURE END LIST*
%TO.C,R2*%
G36*
G01*
X152283000Y-111872000D02*
X153533000Y-111872000D01*
G75*
G02*
X153783000Y-112122000I0J-250000D01*
G01*
X153783000Y-112922000D01*
G75*
G02*
X153533000Y-113172000I-250000J0D01*
G01*
X152283000Y-113172000D01*
G75*
G02*
X152033000Y-112922000I0J250000D01*
G01*
X152033000Y-112122000D01*
G75*
G02*
X152283000Y-111872000I250000J0D01*
G01*
G37*
G36*
G01*
X152283000Y-114972000D02*
X153533000Y-114972000D01*
G75*
G02*
X153783000Y-115222000I0J-250000D01*
G01*
X153783000Y-116022000D01*
G75*
G02*
X153533000Y-116272000I-250000J0D01*
G01*
X152283000Y-116272000D01*
G75*
G02*
X152033000Y-116022000I0J250000D01*
G01*
X152033000Y-115222000D01*
G75*
G02*
X152283000Y-114972000I250000J0D01*
G01*
G37*
%TD*%
%TO.C,R1*%
G36*
G01*
X130185000Y-119720000D02*
X131435000Y-119720000D01*
G75*
G02*
X131685000Y-119970000I0J-250000D01*
G01*
X131685000Y-120770000D01*
G75*
G02*
X131435000Y-121020000I-250000J0D01*
G01*
X130185000Y-121020000D01*
G75*
G02*
X129935000Y-120770000I0J250000D01*
G01*
X129935000Y-119970000D01*
G75*
G02*
X130185000Y-119720000I250000J0D01*
G01*
G37*
G36*
G01*
X130185000Y-122820000D02*
X131435000Y-122820000D01*
G75*
G02*
X131685000Y-123070000I0J-250000D01*
G01*
X131685000Y-123870000D01*
G75*
G02*
X131435000Y-124120000I-250000J0D01*
G01*
X130185000Y-124120000D01*
G75*
G02*
X129935000Y-123870000I0J250000D01*
G01*
X129935000Y-123070000D01*
G75*
G02*
X130185000Y-122820000I250000J0D01*
G01*
G37*
%TD*%
%TO.C,C1*%
G36*
G01*
X136066500Y-109870002D02*
X136066500Y-108569998D01*
G75*
G02*
X136316498Y-108320000I249998J0D01*
G01*
X137141502Y-108320000D01*
G75*
G02*
X137391500Y-108569998I0J-249998D01*
G01*
X137391500Y-109870002D01*
G75*
G02*
X137141502Y-110120000I-249998J0D01*
G01*
X136316498Y-110120000D01*
G75*
G02*
X136066500Y-109870002I0J249998D01*
G01*
G37*
G36*
G01*
X132941500Y-109870002D02*
X132941500Y-108569998D01*
G75*
G02*
X133191498Y-108320000I249998J0D01*
G01*
X134016502Y-108320000D01*
G75*
G02*
X134266500Y-108569998I0J-249998D01*
G01*
X134266500Y-109870002D01*
G75*
G02*
X134016502Y-110120000I-249998J0D01*
G01*
X133191498Y-110120000D01*
G75*
G02*
X132941500Y-109870002I0J249998D01*
G01*
G37*
%TD*%
%TO.C,R3*%
G36*
G01*
X148022000Y-106054999D02*
X148022000Y-107305001D01*
G75*
G02*
X147772001Y-107555000I-249999J0D01*
G01*
X146971999Y-107555000D01*
G75*
G02*
X146722000Y-107305001I0J249999D01*
G01*
X146722000Y-106054999D01*
G75*
G02*
X146971999Y-105805000I249999J0D01*
G01*
X147772001Y-105805000D01*
G75*
G02*
X148022000Y-106054999I0J-249999D01*
G01*
G37*
G36*
G01*
X144922000Y-106054999D02*
X144922000Y-107305001D01*
G75*
G02*
X144672001Y-107555000I-249999J0D01*
G01*
X143871999Y-107555000D01*
G75*
G02*
X143622000Y-107305001I0J249999D01*
G01*
X143622000Y-106054999D01*
G75*
G02*
X143871999Y-105805000I249999J0D01*
G01*
X144672001Y-105805000D01*
G75*
G02*
X144922000Y-106054999I0J-249999D01*
G01*
G37*
%TD*%
%TO.C,R4*%
G36*
G01*
X130184999Y-115200000D02*
X131435001Y-115200000D01*
G75*
G02*
X131685000Y-115449999I0J-249999D01*
G01*
X131685000Y-116250001D01*
G75*
G02*
X131435001Y-116500000I-249999J0D01*
G01*
X130184999Y-116500000D01*
G75*
G02*
X129935000Y-116250001I0J249999D01*
G01*
X129935000Y-115449999D01*
G75*
G02*
X130184999Y-115200000I249999J0D01*
G01*
G37*
G36*
G01*
X130184999Y-112100000D02*
X131435001Y-112100000D01*
G75*
G02*
X131685000Y-112349999I0J-249999D01*
G01*
X131685000Y-113150001D01*
G75*
G02*
X131435001Y-113400000I-249999J0D01*
G01*
X130184999Y-113400000D01*
G75*
G02*
X129935000Y-113150001I0J249999D01*
G01*
X129935000Y-112349999D01*
G75*
G02*
X130184999Y-112100000I249999J0D01*
G01*
G37*
%TD*%
%TO.C,R5*%
G36*
G01*
X141106999Y-117968000D02*
X142357001Y-117968000D01*
G75*
G02*
X142607000Y-118217999I0J-249999D01*
G01*
X142607000Y-119018001D01*
G75*
G02*
X142357001Y-119268000I-249999J0D01*
G01*
X141106999Y-119268000D01*
G75*
G02*
X140857000Y-119018001I0J249999D01*
G01*
X140857000Y-118217999D01*
G75*
G02*
X141106999Y-117968000I249999J0D01*
G01*
G37*
G36*
G01*
X141106999Y-114868000D02*
X142357001Y-114868000D01*
G75*
G02*
X142607000Y-115117999I0J-249999D01*
G01*
X142607000Y-115918001D01*
G75*
G02*
X142357001Y-116168000I-249999J0D01*
G01*
X141106999Y-116168000D01*
G75*
G02*
X140857000Y-115918001I0J249999D01*
G01*
X140857000Y-115117999D01*
G75*
G02*
X141106999Y-114868000I249999J0D01*
G01*
G37*
%TD*%
%TO.C,R6*%
G36*
G01*
X140833000Y-60314000D02*
X139583000Y-60314000D01*
G75*
G02*
X139333000Y-60064000I0J250000D01*
G01*
X139333000Y-59264000D01*
G75*
G02*
X139583000Y-59014000I250000J0D01*
G01*
X140833000Y-59014000D01*
G75*
G02*
X141083000Y-59264000I0J-250000D01*
G01*
X141083000Y-60064000D01*
G75*
G02*
X140833000Y-60314000I-250000J0D01*
G01*
G37*
G36*
G01*
X140833000Y-63414000D02*
X139583000Y-63414000D01*
G75*
G02*
X139333000Y-63164000I0J250000D01*
G01*
X139333000Y-62364000D01*
G75*
G02*
X139583000Y-62114000I250000J0D01*
G01*
X140833000Y-62114000D01*
G75*
G02*
X141083000Y-62364000I0J-250000D01*
G01*
X141083000Y-63164000D01*
G75*
G02*
X140833000Y-63414000I-250000J0D01*
G01*
G37*
%TD*%
%TO.C,R7*%
G36*
G01*
X152283000Y-104962000D02*
X153533000Y-104962000D01*
G75*
G02*
X153783000Y-105212000I0J-250000D01*
G01*
X153783000Y-106012000D01*
G75*
G02*
X153533000Y-106262000I-250000J0D01*
G01*
X152283000Y-106262000D01*
G75*
G02*
X152033000Y-106012000I0J250000D01*
G01*
X152033000Y-105212000D01*
G75*
G02*
X152283000Y-104962000I250000J0D01*
G01*
G37*
G36*
G01*
X152283000Y-108062000D02*
X153533000Y-108062000D01*
G75*
G02*
X153783000Y-108312000I0J-250000D01*
G01*
X153783000Y-109112000D01*
G75*
G02*
X153533000Y-109362000I-250000J0D01*
G01*
X152283000Y-109362000D01*
G75*
G02*
X152033000Y-109112000I0J250000D01*
G01*
X152033000Y-108312000D01*
G75*
G02*
X152283000Y-108062000I250000J0D01*
G01*
G37*
%TD*%
%TO.C,R8*%
G36*
G01*
X152283000Y-122820000D02*
X153533000Y-122820000D01*
G75*
G02*
X153783000Y-123070000I0J-250000D01*
G01*
X153783000Y-123870000D01*
G75*
G02*
X153533000Y-124120000I-250000J0D01*
G01*
X152283000Y-124120000D01*
G75*
G02*
X152033000Y-123870000I0J250000D01*
G01*
X152033000Y-123070000D01*
G75*
G02*
X152283000Y-122820000I250000J0D01*
G01*
G37*
G36*
G01*
X152283000Y-119720000D02*
X153533000Y-119720000D01*
G75*
G02*
X153783000Y-119970000I0J-250000D01*
G01*
X153783000Y-120770000D01*
G75*
G02*
X153533000Y-121020000I-250000J0D01*
G01*
X152283000Y-121020000D01*
G75*
G02*
X152033000Y-120770000I0J250000D01*
G01*
X152033000Y-119970000D01*
G75*
G02*
X152283000Y-119720000I250000J0D01*
G01*
G37*
%TD*%
%TO.C,R9*%
G36*
G01*
X144643000Y-60314000D02*
X143393000Y-60314000D01*
G75*
G02*
X143143000Y-60064000I0J250000D01*
G01*
X143143000Y-59264000D01*
G75*
G02*
X143393000Y-59014000I250000J0D01*
G01*
X144643000Y-59014000D01*
G75*
G02*
X144893000Y-59264000I0J-250000D01*
G01*
X144893000Y-60064000D01*
G75*
G02*
X144643000Y-60314000I-250000J0D01*
G01*
G37*
G36*
G01*
X144643000Y-63414000D02*
X143393000Y-63414000D01*
G75*
G02*
X143143000Y-63164000I0J250000D01*
G01*
X143143000Y-62364000D01*
G75*
G02*
X143393000Y-62114000I250000J0D01*
G01*
X144643000Y-62114000D01*
G75*
G02*
X144893000Y-62364000I0J-250000D01*
G01*
X144893000Y-63164000D01*
G75*
G02*
X144643000Y-63414000I-250000J0D01*
G01*
G37*
%TD*%
%TO.C,R10*%
G36*
G01*
X149913500Y-94872500D02*
X148663500Y-94872500D01*
G75*
G02*
X148413500Y-94622500I0J250000D01*
G01*
X148413500Y-93822500D01*
G75*
G02*
X148663500Y-93572500I250000J0D01*
G01*
X149913500Y-93572500D01*
G75*
G02*
X150163500Y-93822500I0J-250000D01*
G01*
X150163500Y-94622500D01*
G75*
G02*
X149913500Y-94872500I-250000J0D01*
G01*
G37*
G36*
G01*
X149913500Y-91772500D02*
X148663500Y-91772500D01*
G75*
G02*
X148413500Y-91522500I0J250000D01*
G01*
X148413500Y-90722500D01*
G75*
G02*
X148663500Y-90472500I250000J0D01*
G01*
X149913500Y-90472500D01*
G75*
G02*
X150163500Y-90722500I0J-250000D01*
G01*
X150163500Y-91522500D01*
G75*
G02*
X149913500Y-91772500I-250000J0D01*
G01*
G37*
%TD*%
M02*
