%TF.GenerationSoftware,KiCad,Pcbnew,5.1.9*%
%TF.CreationDate,2021-02-18T20:57:37+01:00*%
%TF.ProjectId,sygeco1,73796765-636f-4312-9e6b-696361645f70,1.0*%
%TF.SameCoordinates,Original*%
%TF.FileFunction,Soldermask,Bot*%
%TF.FilePolarity,Negative*%
%FSLAX46Y46*%
G04 Gerber Fmt 4.6, Leading zero omitted, Abs format (unit mm)*
G04 Created by KiCad (PCBNEW 5.1.9) date 2021-02-18 20:57:37*
%MOMM*%
%LPD*%
G01*
G04 APERTURE LIST*
%ADD10R,2.500000X2.500000*%
%ADD11C,1.800000*%
%ADD12C,1.500000*%
%ADD13C,1.524000*%
%ADD14O,1.700000X1.700000*%
%ADD15R,1.700000X1.700000*%
%ADD16C,1.600000*%
%ADD17R,1.600000X1.600000*%
%ADD18O,2.400000X1.600000*%
%ADD19R,2.400000X1.600000*%
%ADD20C,3.500000*%
G04 APERTURE END LIST*
%TO.C,BT1*%
G36*
G01*
X151940000Y-84320000D02*
X151940000Y-83220000D01*
G75*
G02*
X152490000Y-82670000I550000J0D01*
G01*
X153590000Y-82670000D01*
G75*
G02*
X154140000Y-83220000I0J-550000D01*
G01*
X154140000Y-84320000D01*
G75*
G02*
X153590000Y-84870000I-550000J0D01*
G01*
X152490000Y-84870000D01*
G75*
G02*
X151940000Y-84320000I0J550000D01*
G01*
G37*
D10*
X133040000Y-83770000D03*
%TD*%
D11*
%TO.C,S1*%
X136906000Y-114046000D03*
D12*
X136906000Y-117746000D03*
D11*
X136906000Y-120546000D03*
X147206000Y-120546000D03*
D12*
X147206000Y-117746000D03*
D11*
X147206000Y-114046000D03*
%TD*%
%TO.C,R2*%
G36*
G01*
X152282999Y-111872000D02*
X153533001Y-111872000D01*
G75*
G02*
X153783000Y-112121999I0J-249999D01*
G01*
X153783000Y-112922001D01*
G75*
G02*
X153533001Y-113172000I-249999J0D01*
G01*
X152282999Y-113172000D01*
G75*
G02*
X152033000Y-112922001I0J249999D01*
G01*
X152033000Y-112121999D01*
G75*
G02*
X152282999Y-111872000I249999J0D01*
G01*
G37*
G36*
G01*
X152282999Y-114972000D02*
X153533001Y-114972000D01*
G75*
G02*
X153783000Y-115221999I0J-249999D01*
G01*
X153783000Y-116022001D01*
G75*
G02*
X153533001Y-116272000I-249999J0D01*
G01*
X152282999Y-116272000D01*
G75*
G02*
X152033000Y-116022001I0J249999D01*
G01*
X152033000Y-115221999D01*
G75*
G02*
X152282999Y-114972000I249999J0D01*
G01*
G37*
%TD*%
%TO.C,R1*%
G36*
G01*
X130184999Y-119720000D02*
X131435001Y-119720000D01*
G75*
G02*
X131685000Y-119969999I0J-249999D01*
G01*
X131685000Y-120770001D01*
G75*
G02*
X131435001Y-121020000I-249999J0D01*
G01*
X130184999Y-121020000D01*
G75*
G02*
X129935000Y-120770001I0J249999D01*
G01*
X129935000Y-119969999D01*
G75*
G02*
X130184999Y-119720000I249999J0D01*
G01*
G37*
G36*
G01*
X130184999Y-122820000D02*
X131435001Y-122820000D01*
G75*
G02*
X131685000Y-123069999I0J-249999D01*
G01*
X131685000Y-123870001D01*
G75*
G02*
X131435001Y-124120000I-249999J0D01*
G01*
X130184999Y-124120000D01*
G75*
G02*
X129935000Y-123870001I0J249999D01*
G01*
X129935000Y-123069999D01*
G75*
G02*
X130184999Y-122820000I249999J0D01*
G01*
G37*
%TD*%
D13*
%TO.C,SW1*%
X135700000Y-59325000D03*
X135700000Y-61325000D03*
X135700000Y-63325000D03*
X130700000Y-59325000D03*
X130700000Y-61325000D03*
X130700000Y-63325000D03*
%TD*%
D14*
%TO.C,J1*%
X138734800Y-69138800D03*
X141274800Y-69138800D03*
X143814800Y-69138800D03*
D15*
X146354800Y-69138800D03*
%TD*%
D16*
%TO.C,LS1*%
X146408000Y-102108000D03*
D17*
X152908000Y-102108000D03*
%TD*%
D13*
%TO.C,SW2*%
X153480000Y-59325000D03*
X153480000Y-61325000D03*
X153480000Y-63325000D03*
X148480000Y-59325000D03*
X148480000Y-61325000D03*
X148480000Y-63325000D03*
%TD*%
D18*
%TO.C,U1*%
X138684000Y-97536000D03*
X131064000Y-105156000D03*
X138684000Y-100076000D03*
X131064000Y-102616000D03*
X138684000Y-102616000D03*
X131064000Y-100076000D03*
X138684000Y-105156000D03*
D19*
X131064000Y-97536000D03*
%TD*%
D14*
%TO.C,J2*%
X130556000Y-70104000D03*
X133096000Y-70104000D03*
X130556000Y-72644000D03*
X133096000Y-72644000D03*
X130556000Y-75184000D03*
D15*
X133096000Y-75184000D03*
%TD*%
%TO.C,C1*%
G36*
G01*
X136066500Y-109870003D02*
X136066500Y-108569997D01*
G75*
G02*
X136316497Y-108320000I249997J0D01*
G01*
X137141503Y-108320000D01*
G75*
G02*
X137391500Y-108569997I0J-249997D01*
G01*
X137391500Y-109870003D01*
G75*
G02*
X137141503Y-110120000I-249997J0D01*
G01*
X136316497Y-110120000D01*
G75*
G02*
X136066500Y-109870003I0J249997D01*
G01*
G37*
G36*
G01*
X132941500Y-109870003D02*
X132941500Y-108569997D01*
G75*
G02*
X133191497Y-108320000I249997J0D01*
G01*
X134016503Y-108320000D01*
G75*
G02*
X134266500Y-108569997I0J-249997D01*
G01*
X134266500Y-109870003D01*
G75*
G02*
X134016503Y-110120000I-249997J0D01*
G01*
X133191497Y-110120000D01*
G75*
G02*
X132941500Y-109870003I0J249997D01*
G01*
G37*
%TD*%
%TO.C,R3*%
G36*
G01*
X148022000Y-106054999D02*
X148022000Y-107305001D01*
G75*
G02*
X147772001Y-107555000I-249999J0D01*
G01*
X146971999Y-107555000D01*
G75*
G02*
X146722000Y-107305001I0J249999D01*
G01*
X146722000Y-106054999D01*
G75*
G02*
X146971999Y-105805000I249999J0D01*
G01*
X147772001Y-105805000D01*
G75*
G02*
X148022000Y-106054999I0J-249999D01*
G01*
G37*
G36*
G01*
X144922000Y-106054999D02*
X144922000Y-107305001D01*
G75*
G02*
X144672001Y-107555000I-249999J0D01*
G01*
X143871999Y-107555000D01*
G75*
G02*
X143622000Y-107305001I0J249999D01*
G01*
X143622000Y-106054999D01*
G75*
G02*
X143871999Y-105805000I249999J0D01*
G01*
X144672001Y-105805000D01*
G75*
G02*
X144922000Y-106054999I0J-249999D01*
G01*
G37*
%TD*%
%TO.C,R4*%
G36*
G01*
X130184999Y-115200000D02*
X131435001Y-115200000D01*
G75*
G02*
X131685000Y-115449999I0J-249999D01*
G01*
X131685000Y-116250001D01*
G75*
G02*
X131435001Y-116500000I-249999J0D01*
G01*
X130184999Y-116500000D01*
G75*
G02*
X129935000Y-116250001I0J249999D01*
G01*
X129935000Y-115449999D01*
G75*
G02*
X130184999Y-115200000I249999J0D01*
G01*
G37*
G36*
G01*
X130184999Y-112100000D02*
X131435001Y-112100000D01*
G75*
G02*
X131685000Y-112349999I0J-249999D01*
G01*
X131685000Y-113150001D01*
G75*
G02*
X131435001Y-113400000I-249999J0D01*
G01*
X130184999Y-113400000D01*
G75*
G02*
X129935000Y-113150001I0J249999D01*
G01*
X129935000Y-112349999D01*
G75*
G02*
X130184999Y-112100000I249999J0D01*
G01*
G37*
%TD*%
%TO.C,R5*%
G36*
G01*
X141106999Y-117968000D02*
X142357001Y-117968000D01*
G75*
G02*
X142607000Y-118217999I0J-249999D01*
G01*
X142607000Y-119018001D01*
G75*
G02*
X142357001Y-119268000I-249999J0D01*
G01*
X141106999Y-119268000D01*
G75*
G02*
X140857000Y-119018001I0J249999D01*
G01*
X140857000Y-118217999D01*
G75*
G02*
X141106999Y-117968000I249999J0D01*
G01*
G37*
G36*
G01*
X141106999Y-114868000D02*
X142357001Y-114868000D01*
G75*
G02*
X142607000Y-115117999I0J-249999D01*
G01*
X142607000Y-115918001D01*
G75*
G02*
X142357001Y-116168000I-249999J0D01*
G01*
X141106999Y-116168000D01*
G75*
G02*
X140857000Y-115918001I0J249999D01*
G01*
X140857000Y-115117999D01*
G75*
G02*
X141106999Y-114868000I249999J0D01*
G01*
G37*
%TD*%
D20*
%TO.C,H1*%
X130556000Y-93218000D03*
%TD*%
%TO.C,H2*%
X154178000Y-93218000D03*
%TD*%
%TO.C,R6*%
G36*
G01*
X140833001Y-60314000D02*
X139582999Y-60314000D01*
G75*
G02*
X139333000Y-60064001I0J249999D01*
G01*
X139333000Y-59263999D01*
G75*
G02*
X139582999Y-59014000I249999J0D01*
G01*
X140833001Y-59014000D01*
G75*
G02*
X141083000Y-59263999I0J-249999D01*
G01*
X141083000Y-60064001D01*
G75*
G02*
X140833001Y-60314000I-249999J0D01*
G01*
G37*
G36*
G01*
X140833001Y-63414000D02*
X139582999Y-63414000D01*
G75*
G02*
X139333000Y-63164001I0J249999D01*
G01*
X139333000Y-62363999D01*
G75*
G02*
X139582999Y-62114000I249999J0D01*
G01*
X140833001Y-62114000D01*
G75*
G02*
X141083000Y-62363999I0J-249999D01*
G01*
X141083000Y-63164001D01*
G75*
G02*
X140833001Y-63414000I-249999J0D01*
G01*
G37*
%TD*%
%TO.C,R7*%
G36*
G01*
X152282999Y-104962000D02*
X153533001Y-104962000D01*
G75*
G02*
X153783000Y-105211999I0J-249999D01*
G01*
X153783000Y-106012001D01*
G75*
G02*
X153533001Y-106262000I-249999J0D01*
G01*
X152282999Y-106262000D01*
G75*
G02*
X152033000Y-106012001I0J249999D01*
G01*
X152033000Y-105211999D01*
G75*
G02*
X152282999Y-104962000I249999J0D01*
G01*
G37*
G36*
G01*
X152282999Y-108062000D02*
X153533001Y-108062000D01*
G75*
G02*
X153783000Y-108311999I0J-249999D01*
G01*
X153783000Y-109112001D01*
G75*
G02*
X153533001Y-109362000I-249999J0D01*
G01*
X152282999Y-109362000D01*
G75*
G02*
X152033000Y-109112001I0J249999D01*
G01*
X152033000Y-108311999D01*
G75*
G02*
X152282999Y-108062000I249999J0D01*
G01*
G37*
%TD*%
%TO.C,R8*%
G36*
G01*
X152282999Y-122820000D02*
X153533001Y-122820000D01*
G75*
G02*
X153783000Y-123069999I0J-249999D01*
G01*
X153783000Y-123870001D01*
G75*
G02*
X153533001Y-124120000I-249999J0D01*
G01*
X152282999Y-124120000D01*
G75*
G02*
X152033000Y-123870001I0J249999D01*
G01*
X152033000Y-123069999D01*
G75*
G02*
X152282999Y-122820000I249999J0D01*
G01*
G37*
G36*
G01*
X152282999Y-119720000D02*
X153533001Y-119720000D01*
G75*
G02*
X153783000Y-119969999I0J-249999D01*
G01*
X153783000Y-120770001D01*
G75*
G02*
X153533001Y-121020000I-249999J0D01*
G01*
X152282999Y-121020000D01*
G75*
G02*
X152033000Y-120770001I0J249999D01*
G01*
X152033000Y-119969999D01*
G75*
G02*
X152282999Y-119720000I249999J0D01*
G01*
G37*
%TD*%
%TO.C,R9*%
G36*
G01*
X144643001Y-60314000D02*
X143392999Y-60314000D01*
G75*
G02*
X143143000Y-60064001I0J249999D01*
G01*
X143143000Y-59263999D01*
G75*
G02*
X143392999Y-59014000I249999J0D01*
G01*
X144643001Y-59014000D01*
G75*
G02*
X144893000Y-59263999I0J-249999D01*
G01*
X144893000Y-60064001D01*
G75*
G02*
X144643001Y-60314000I-249999J0D01*
G01*
G37*
G36*
G01*
X144643001Y-63414000D02*
X143392999Y-63414000D01*
G75*
G02*
X143143000Y-63164001I0J249999D01*
G01*
X143143000Y-62363999D01*
G75*
G02*
X143392999Y-62114000I249999J0D01*
G01*
X144643001Y-62114000D01*
G75*
G02*
X144893000Y-62363999I0J-249999D01*
G01*
X144893000Y-63164001D01*
G75*
G02*
X144643001Y-63414000I-249999J0D01*
G01*
G37*
%TD*%
%TO.C,R10*%
G36*
G01*
X149913501Y-94872500D02*
X148663499Y-94872500D01*
G75*
G02*
X148413500Y-94622501I0J249999D01*
G01*
X148413500Y-93822499D01*
G75*
G02*
X148663499Y-93572500I249999J0D01*
G01*
X149913501Y-93572500D01*
G75*
G02*
X150163500Y-93822499I0J-249999D01*
G01*
X150163500Y-94622501D01*
G75*
G02*
X149913501Y-94872500I-249999J0D01*
G01*
G37*
G36*
G01*
X149913501Y-91772500D02*
X148663499Y-91772500D01*
G75*
G02*
X148413500Y-91522501I0J249999D01*
G01*
X148413500Y-90722499D01*
G75*
G02*
X148663499Y-90472500I249999J0D01*
G01*
X149913501Y-90472500D01*
G75*
G02*
X150163500Y-90722499I0J-249999D01*
G01*
X150163500Y-91522501D01*
G75*
G02*
X149913501Y-91772500I-249999J0D01*
G01*
G37*
%TD*%
M02*
